<svg width="20" height="19" viewBox="0 0 20 19" fill="none" xmlns="http://www.w3.org/2000/svg">
<path d="M19.1775 5.79448C21.2509 10.5347 19.089 16.0582 14.3488 18.1316C9.6086 20.2051 4.08506 18.0432 2.01165 13.303C-0.0617667 8.56276 2.1001 3.03922 6.84032 0.96581C11.5805 -1.1076 17.1041 1.05427 19.1775 5.79448Z" fill="url(#paint0_linear)"/>
<path d="M6.86565 6.8093C7.1847 7.53855 6.85218 8.38837 6.12294 8.70743C5.3937 9.02648 4.5439 8.69396 4.22485 7.96471C3.9058 7.23546 4.23832 6.38564 4.96755 6.06658C5.69679 5.74753 6.5466 6.08006 6.86565 6.8093Z" fill="url(#paint1_linear)"/>
<path d="M15.414 2.97749C15.5974 3.23754 15.6131 3.54213 15.449 3.65781C15.285 3.77349 15.0033 3.65646 14.8199 3.39641C14.6365 3.13636 14.6208 2.83177 14.7849 2.71609C14.949 2.60041 15.2306 2.71745 15.414 2.97749Z" fill="url(#paint2_linear)"/>
<path d="M18.9777 9.72667C19.2628 9.82595 19.3826 10.2262 19.2453 10.6207C19.1079 11.0152 18.7654 11.2545 18.4803 11.1552C18.1951 11.056 18.0753 10.6557 18.2127 10.2612C18.35 9.8667 18.6925 9.62739 18.9777 9.72667Z" fill="url(#paint3_linear)"/>
<path d="M10.3211 0.51942C10.3395 0.680267 10.018 0.849161 9.60293 0.896656C9.1879 0.94415 8.83654 0.85226 8.81814 0.691412C8.79973 0.530565 9.12126 0.361671 9.53629 0.314177C9.95131 0.266682 10.3027 0.358573 10.3211 0.51942Z" fill="url(#paint4_linear)"/>
<path d="M13.8375 14.931C14.0388 15.9792 13.1939 17.0225 11.9503 17.2613C10.7068 17.5001 9.53551 16.844 9.33422 15.7959C9.13292 14.7478 9.97783 13.7044 11.2214 13.4656C12.4649 13.2268 13.6362 13.8829 13.8375 14.931Z" fill="url(#paint5_linear)"/>
<path d="M7.43361 0.590483C7.4961 0.718394 7.12355 1.02886 6.6015 1.28394C6.07945 1.53901 5.60559 1.6421 5.5431 1.51419C5.48061 1.38628 5.85315 1.07581 6.3752 0.820732C6.89726 0.565658 7.37112 0.462572 7.43361 0.590483Z" fill="#67111C"/>
<path d="M7.51589 0.758679C7.62373 0.979384 7.28791 1.36506 6.76583 1.62012C6.24375 1.87517 5.73309 1.90302 5.62525 1.68231C5.51741 1.46161 5.85322 1.07593 6.37531 0.820875C6.89739 0.56582 7.40805 0.537974 7.51589 0.758679Z" fill="#67111C"/>
<path d="M7.1347 0.616783C7.15289 0.654002 6.87123 0.828997 6.5056 1.00765C6.13997 1.18629 5.82883 1.30095 5.81065 1.26373C5.79246 1.22651 6.07413 1.05152 6.43975 0.872866C6.80538 0.694217 7.11652 0.579565 7.1347 0.616783Z" fill="#3B0003"/>
<path d="M0.902151 10.9296C1.12376 10.8622 1.5267 11.5408 1.80213 12.4453C2.07756 13.3499 2.12119 14.1379 1.89958 14.2054C1.67797 14.2729 1.27503 13.5943 0.999601 12.6897C0.724169 11.7851 0.680539 10.9971 0.902151 10.9296Z" fill="url(#paint6_linear)"/>
<path d="M1.19329 10.8408C1.57569 10.7243 2.10896 11.3632 2.38439 12.2677C2.65981 13.1723 2.57309 14 2.19069 14.1164C1.80829 14.2329 1.27501 13.594 0.999587 12.6894C0.724161 11.7849 0.810883 10.9572 1.19329 10.8408Z" fill="url(#paint7_linear)"/>
<path d="M0.867851 11.4163C0.93233 11.3967 1.14097 11.8944 1.33387 12.5279C1.52677 13.1615 1.63087 13.691 1.56639 13.7106C1.50191 13.7302 1.29327 13.2326 1.10037 12.599C0.907475 11.9655 0.803372 11.436 0.867851 11.4163Z" fill="#210002"/>
<path d="M8.80391 18.7412C8.81258 18.6185 9.58563 18.5343 10.5305 18.553C11.4755 18.5718 12.2344 18.6865 12.2258 18.8092C12.2171 18.9319 11.4441 19.0162 10.4991 18.9974C9.55421 18.9786 8.79523 18.8639 8.80391 18.7412Z" fill="url(#paint8_linear)"/>
<path d="M8.81528 18.5801C8.83025 18.3684 9.60838 18.212 10.5533 18.2307C11.4982 18.2495 12.252 18.4364 12.237 18.6481C12.2221 18.8598 11.4439 19.0162 10.4991 18.9975C9.55416 18.9787 8.80031 18.7918 8.81528 18.5801Z" fill="url(#paint9_linear)"/>
<path d="M9.25282 18.8427C9.25534 18.807 9.79385 18.7887 10.4556 18.8018C11.1174 18.815 11.6518 18.8546 11.6492 18.8903C11.6467 18.926 11.1082 18.9443 10.4465 18.9312C9.7847 18.918 9.25029 18.8784 9.25282 18.8427Z" fill="#150303"/>
<path d="M18.5372 14.8049C18.353 14.721 18.4812 14.0436 18.8236 13.2919C19.1659 12.5401 19.5928 11.9987 19.777 12.0826C19.9612 12.1665 19.8329 12.8439 19.4906 13.5956C19.1482 14.3473 18.7213 14.8887 18.5372 14.8049Z" fill="url(#paint10_linear)"/>
<path d="M18.2955 14.6948C17.9777 14.5501 17.9976 13.8233 18.3399 13.0716C18.6823 12.3199 19.2175 11.8278 19.5353 11.9725C19.8531 12.1173 19.8332 12.844 19.4909 13.5957C19.1485 14.3474 18.6133 14.8395 18.2955 14.6948Z" fill="url(#paint11_linear)"/>
<path d="M18.8411 14.5062C18.7875 14.4818 18.9385 14.0352 19.1782 13.5088C19.4179 12.9823 19.6557 12.5752 19.7093 12.5996C19.7629 12.624 19.612 13.0706 19.3722 13.5971C19.1325 14.1236 18.8947 14.5306 18.8411 14.5062Z" fill="#130406"/>
<path d="M18.5874 4.37232C18.4832 4.44336 18.1637 4.15617 17.8738 3.73088C17.5839 3.30559 17.4334 2.90323 17.5375 2.8322C17.6417 2.76117 17.9612 3.04835 18.2511 3.47365C18.541 3.89894 18.6916 4.30129 18.5874 4.37232Z" fill="url(#paint12_linear)"/>
<path d="M18.4506 4.46515C18.2708 4.58771 17.89 4.34233 17.6001 3.91707C17.3102 3.4918 17.2209 3.0477 17.4007 2.92513C17.5805 2.80257 17.9613 3.04795 18.2512 3.47322C18.5412 3.89848 18.6304 4.34258 18.4506 4.46515Z" fill="url(#paint13_linear)"/>
<path d="M18.5262 4.11333C18.4959 4.134 18.3068 3.9093 18.1037 3.61146C17.9007 3.31361 17.7607 3.0554 17.791 3.03474C17.8213 3.01407 18.0105 3.23877 18.2135 3.53661C18.4165 3.83446 18.5566 4.09267 18.5262 4.11333Z" fill="#280102"/>
<path d="M12.7517 8.28793C12.7517 8.78541 12.3484 9.18871 11.8509 9.18871C11.3534 9.18871 10.9501 8.78541 10.9501 8.28793C10.9501 7.79044 11.3534 7.38715 11.8509 7.38715C12.3484 7.38715 12.7517 7.79044 12.7517 8.28793Z" fill="#530F19"/>
<path d="M4.96845 14.8701C4.74232 15.0649 4.2958 14.9173 3.97111 14.5404C3.64642 14.1634 3.56653 13.6999 3.79266 13.5051C4.01879 13.3103 4.46531 13.4579 4.79 13.8348C5.11469 14.2117 5.19459 14.6752 4.96845 14.8701Z" fill="#470F19"/>
<path d="M12.031 2.16253C12.031 2.461 11.6277 2.70296 11.1302 2.70296C10.6327 2.70296 10.2294 2.461 10.2294 2.16253C10.2294 1.86406 10.6327 1.6221 11.1302 1.6221C11.6277 1.6221 12.031 1.86406 12.031 2.16253Z" fill="#69111C"/>
<path d="M17.3467 13.5596C17.5429 13.7845 17.3981 14.232 17.0232 14.5591C16.6484 14.8862 16.1854 14.969 15.9892 14.7441C15.7929 14.5191 15.9377 14.0716 16.3126 13.7445C16.6874 13.4175 17.1504 13.3346 17.3467 13.5596Z" fill="#360E16"/>
<defs>
<linearGradient id="paint0_linear" x1="6.84032" y1="0.965825" x2="14.3488" y2="18.1317" gradientUnits="userSpaceOnUse">
<stop stop-color="#6A111C"/>
<stop offset="1" stop-color="#1E0B13"/>
</linearGradient>
<linearGradient id="paint1_linear" x1="4.96756" y1="6.06657" x2="6.12298" y2="8.7074" gradientUnits="userSpaceOnUse">
<stop stop-color="#1A0D15"/>
<stop offset="1" stop-color="#5E141F"/>
</linearGradient>
<linearGradient id="paint2_linear" x1="14.7849" y1="2.71615" x2="15.4489" y2="3.65796" gradientUnits="userSpaceOnUse">
<stop stop-color="#170D15"/>
<stop offset="1" stop-color="#791521"/>
</linearGradient>
<linearGradient id="paint3_linear" x1="18.2127" y1="10.2612" x2="19.2453" y2="10.6207" gradientUnits="userSpaceOnUse">
<stop stop-color="#220E16"/>
<stop offset="1" stop-color="#480E18"/>
</linearGradient>
<linearGradient id="paint4_linear" x1="9.53629" y1="0.314144" x2="9.60295" y2="0.896622" gradientUnits="userSpaceOnUse">
<stop stop-color="#2D0E17"/>
<stop offset="1" stop-color="#761421"/>
</linearGradient>
<linearGradient id="paint5_linear" x1="11.2213" y1="13.4656" x2="11.9503" y2="17.2613" gradientUnits="userSpaceOnUse">
<stop stop-color="#150D15"/>
<stop offset="1" stop-color="#411019"/>
</linearGradient>
<linearGradient id="paint6_linear" x1="1.94205" y1="14.2333" x2="1.04122" y2="10.8103" gradientUnits="userSpaceOnUse">
<stop stop-color="#410E17"/>
<stop offset="1" stop-color="#4E0F19"/>
</linearGradient>
<linearGradient id="paint7_linear" x1="2.25574" y1="14.1374" x2="1.29955" y2="10.7278" gradientUnits="userSpaceOnUse">
<stop stop-color="#410E17"/>
<stop offset="1" stop-color="#4E0F19"/>
</linearGradient>
<linearGradient id="paint8_linear" x1="12.3913" y1="18.7373" x2="8.79745" y2="18.9198" gradientUnits="userSpaceOnUse">
<stop stop-color="#1F0B13"/>
<stop offset="1" stop-color="#250B14"/>
</linearGradient>
<linearGradient id="paint9_linear" x1="12.4065" y1="18.5216" x2="8.7998" y2="18.5207" gradientUnits="userSpaceOnUse">
<stop stop-color="#1F0B13"/>
<stop offset="1" stop-color="#250B14"/>
</linearGradient>
<linearGradient id="paint10_linear" x1="18.5161" y1="14.7736" x2="19.7771" y2="12.0713" gradientUnits="userSpaceOnUse">
<stop stop-color="#240B14"/>
<stop offset="1" stop-color="#2D0C15"/>
</linearGradient>
<linearGradient id="paint11_linear" x1="18.2533" y1="14.6539" x2="19.5038" y2="11.9466" gradientUnits="userSpaceOnUse">
<stop stop-color="#240B14"/>
<stop offset="1" stop-color="#2D0C15"/>
</linearGradient>
<linearGradient id="paint12_linear" x1="17.4354" y1="2.70362" x2="18.6967" y2="4.32508" gradientUnits="userSpaceOnUse">
<stop stop-color="#510F19"/>
<stop offset="1" stop-color="#4A0E18"/>
</linearGradient>
<linearGradient id="paint13_linear" x1="17.2915" y1="2.80149" x2="18.511" y2="4.45784" gradientUnits="userSpaceOnUse">
<stop stop-color="#510F19"/>
<stop offset="1" stop-color="#4A0E18"/>
</linearGradient>
</defs>
</svg>
