<svg width="24" height="23" viewBox="0 0 24 23" fill="none" xmlns="http://www.w3.org/2000/svg">
<path d="M22.9426 6.77817C25.445 12.4991 22.8358 19.1655 17.1149 21.6678C11.394 24.1702 4.72763 21.5611 2.22524 15.8401C-0.27715 10.1192 2.332 3.45286 8.05294 0.950462C13.7739 -1.55193 20.4402 1.05722 22.9426 6.77817Z" fill="url(#paint0_linear)"/>
<path d="M8.0833 8.00362C8.46836 8.88373 8.06705 9.90936 7.18694 10.2944C6.30684 10.6795 5.28122 10.2782 4.89616 9.39805C4.5111 8.51794 4.91242 7.49231 5.79253 7.10725C6.67263 6.72219 7.69825 7.12351 8.0833 8.00362Z" fill="url(#paint1_linear)"/>
<path d="M18.4768 3.33552C18.6981 3.64939 18.7009 4.02837 18.483 4.182C18.2652 4.33563 17.9091 4.20573 17.6878 3.89186C17.4664 3.57799 17.4636 3.199 17.6815 3.04537C17.8994 2.89174 18.2554 3.02164 18.4768 3.33552Z" fill="url(#paint2_linear)"/>
<path d="M22.7013 11.5242C23.0454 11.644 23.19 12.1271 23.0243 12.6032C22.8585 13.0793 22.4451 13.3682 22.101 13.2483C21.7569 13.1285 21.6123 12.6454 21.778 12.1693C21.9438 11.6932 22.3572 11.4043 22.7013 11.5242Z" fill="url(#paint3_linear)"/>
<path d="M12.2534 0.411393C12.2757 0.605495 11.8876 0.809307 11.3867 0.86662C10.8859 0.923934 10.4618 0.813045 10.4396 0.618944C10.4174 0.424843 10.8055 0.221031 11.3063 0.163718C11.8072 0.106404 12.2312 0.217292 12.2534 0.411393Z" fill="url(#paint4_linear)"/>
<path d="M16.4975 17.8049C16.7404 19.0699 15.7207 20.329 14.2199 20.6172C12.7191 20.9055 11.3055 20.1137 11.0625 18.8487C10.8196 17.5838 11.8393 16.3246 13.3401 16.0364C14.8409 15.7482 16.2545 16.5399 16.4975 17.8049Z" fill="url(#paint5_linear)"/>
<path d="M8.76946 0.49769C8.84488 0.652062 8.39524 1.02676 7.76517 1.3346C7.13509 1.64244 6.56317 1.76685 6.48775 1.61248C6.41233 1.45811 6.86197 1.08341 7.49204 0.775571C8.12212 0.46773 8.69404 0.343318 8.76946 0.49769Z" fill="#79101A"/>
<path d="M8.86825 0.70063C8.99839 0.967013 8.59312 1.43251 7.96306 1.74035C7.33299 2.0482 6.71672 2.0818 6.58657 1.81542C6.45643 1.54904 6.86169 1.08354 7.49176 0.775698C8.12183 0.467856 8.7381 0.434248 8.86825 0.70063Z" fill="#79101A"/>
<path d="M8.40849 0.52958C8.43044 0.574496 8.09049 0.785685 7.64921 1.00128C7.20792 1.21688 6.8324 1.35525 6.81045 1.31033C6.78851 1.26542 7.12845 1.05423 7.56974 0.838629C8.01102 0.62303 8.38655 0.484664 8.40849 0.52958Z" fill="#400205"/>
<path d="M0.886248 12.9759C1.15372 12.8945 1.64004 13.7135 1.97247 14.8052C2.3049 15.8969 2.35756 16.848 2.09008 16.9294C1.82261 17.0109 1.33629 16.1919 1.00386 15.1001C0.671434 14.0084 0.618776 13.0574 0.886248 12.9759Z" fill="url(#paint6_linear)"/>
<path d="M1.23739 12.869C1.69894 12.7285 2.34259 13.4995 2.67502 14.5913C3.00745 15.683 2.90278 16.6819 2.44123 16.8224C1.97968 16.963 1.33604 16.1919 1.0036 15.1002C0.671174 14.0085 0.775845 13.0096 1.23739 12.869Z" fill="url(#paint7_linear)"/>
<path d="M0.844583 13.5637C0.922411 13.54 1.17425 14.1406 1.40708 14.9052C1.63992 15.6698 1.76557 16.3088 1.68774 16.3325C1.60992 16.3562 1.35807 15.7556 1.12524 14.991C0.89241 14.2264 0.766755 13.5874 0.844583 13.5637Z" fill="#2A0204"/>
<path d="M10.4227 22.4037C10.4332 22.2556 11.3661 22.1539 12.5065 22.1766C13.6469 22.1992 14.5629 22.3376 14.5524 22.4857C14.542 22.6338 13.609 22.7355 12.4686 22.7128C11.3282 22.6902 10.4122 22.5518 10.4227 22.4037Z" fill="url(#paint8_linear)"/>
<path d="M10.4365 22.209C10.4546 21.9535 11.3937 21.7647 12.5341 21.7874C13.6745 21.81 14.5844 22.0355 14.5663 22.2911C14.5482 22.5466 13.6091 22.7354 12.4687 22.7127C11.3283 22.6901 10.4185 22.4646 10.4365 22.209Z" fill="url(#paint9_linear)"/>
<path d="M10.9646 22.5263C10.9677 22.4832 11.6176 22.4612 12.4163 22.477C13.215 22.4929 13.86 22.5407 13.8569 22.5838C13.8539 22.6269 13.204 22.6489 12.4053 22.6331C11.6066 22.6172 10.9616 22.5694 10.9646 22.5263Z" fill="#150303"/>
<path d="M22.17 17.653C21.9478 17.5518 22.1025 16.7343 22.5157 15.827C22.9289 14.9198 23.444 14.2664 23.6663 14.3676C23.8886 14.4688 23.7339 15.2863 23.3207 16.1936C22.9075 17.1009 22.3923 17.7543 22.17 17.653Z" fill="url(#paint10_linear)"/>
<path d="M21.8783 17.52C21.4947 17.3453 21.5187 16.4682 21.9319 15.5609C22.345 14.6536 22.9909 14.0597 23.3745 14.2344C23.7581 14.4091 23.7341 15.2862 23.3209 16.1935C22.9077 17.1008 22.2618 17.6946 21.8783 17.52Z" fill="url(#paint11_linear)"/>
<path d="M22.5368 17.2921C22.4722 17.2627 22.6543 16.7237 22.9437 16.0883C23.2331 15.4528 23.5201 14.9616 23.5848 14.9911C23.6494 15.0205 23.4673 15.5595 23.1779 16.1949C22.8885 16.8303 22.6015 17.3216 22.5368 17.2921Z" fill="#130406"/>
<path d="M22.2305 5.06125C22.1047 5.14697 21.7192 4.80041 21.3693 4.28718C21.0194 3.77395 20.8377 3.28841 20.9634 3.20269C21.0892 3.11697 21.4748 3.46353 21.8246 3.97676C22.1745 4.48999 22.3562 4.97553 22.2305 5.06125Z" fill="url(#paint12_linear)"/>
<path d="M22.0654 5.17391C21.8484 5.32182 21.3889 5.02568 21.0391 4.51245C20.6892 3.99922 20.5815 3.46325 20.7984 3.31533C21.0154 3.16741 21.4749 3.46355 21.8248 3.97679C22.1746 4.49002 22.2824 5.02599 22.0654 5.17391Z" fill="url(#paint13_linear)"/>
<path d="M22.1568 4.74934C22.1202 4.77428 21.8919 4.50311 21.6469 4.14366C21.4019 3.78422 21.2329 3.47261 21.2695 3.44767C21.3061 3.42273 21.5344 3.6939 21.7794 4.05334C22.0244 4.41279 22.1934 4.7244 22.1568 4.74934Z" fill="#2E0102"/>
<path d="M15.1869 9.78797C15.1869 10.3884 14.7002 10.8751 14.0998 10.8751C13.4994 10.8751 13.0127 10.3884 13.0127 9.78797C13.0127 9.18756 13.4994 8.70084 14.0998 8.70084C14.7002 8.70084 15.1869 9.18756 15.1869 9.78797Z" fill="#5F0E17"/>
<path d="M5.79396 17.7316C5.52103 17.9667 4.98208 17.7886 4.5902 17.3337C4.19831 16.8788 4.10188 16.3194 4.37481 16.0843C4.64774 15.8491 5.18669 16.0273 5.57857 16.4822C5.97046 16.9371 6.06689 17.4964 5.79396 17.7316Z" fill="#510E17"/>
<path d="M14.3173 2.39532C14.3173 2.75557 13.8306 3.0476 13.2302 3.0476C12.6298 3.0476 12.1431 2.75557 12.1431 2.39532C12.1431 2.03508 12.6298 1.74304 13.2302 1.74304C13.8306 1.74304 14.3173 2.03508 14.3173 2.39532Z" fill="#7A101B"/>
<path d="M20.7334 16.15C20.9703 16.4214 20.7955 16.9614 20.3431 17.3562C19.8907 17.7509 19.3319 17.8509 19.095 17.5794C18.8582 17.308 19.0329 16.7679 19.4854 16.3732C19.9378 15.9785 20.4966 15.8785 20.7334 16.15Z" fill="#3D0C14"/>
<defs>
<linearGradient id="paint0_linear" x1="8.05292" y1="0.950441" x2="17.1149" y2="21.6678" gradientUnits="userSpaceOnUse">
<stop stop-color="#7C101B"/>
<stop offset="1" stop-color="#20090F"/>
</linearGradient>
<linearGradient id="paint1_linear" x1="5.79252" y1="7.10727" x2="7.18695" y2="10.2944" gradientUnits="userSpaceOnUse">
<stop stop-color="#1C0C12"/>
<stop offset="1" stop-color="#6C131E"/>
</linearGradient>
<linearGradient id="paint2_linear" x1="17.6815" y1="3.04537" x2="18.483" y2="4.18204" gradientUnits="userSpaceOnUse">
<stop stop-color="#190B12"/>
<stop offset="1" stop-color="#8C1421"/>
</linearGradient>
<linearGradient id="paint3_linear" x1="21.7781" y1="12.1693" x2="23.0243" y2="12.6032" gradientUnits="userSpaceOnUse">
<stop stop-color="#250C14"/>
<stop offset="1" stop-color="#530D16"/>
</linearGradient>
<linearGradient id="paint4_linear" x1="11.3063" y1="0.163716" x2="11.3867" y2="0.866618" gradientUnits="userSpaceOnUse">
<stop stop-color="#310D14"/>
<stop offset="1" stop-color="#8C1520"/>
</linearGradient>
<linearGradient id="paint5_linear" x1="13.3401" y1="16.0364" x2="14.2199" y2="20.6172" gradientUnits="userSpaceOnUse">
<stop stop-color="#160B12"/>
<stop offset="1" stop-color="#4B0F18"/>
</linearGradient>
<linearGradient id="paint6_linear" x1="2.14137" y1="16.9631" x2="1.05421" y2="12.8319" gradientUnits="userSpaceOnUse">
<stop stop-color="#4A0C14"/>
<stop offset="1" stop-color="#5B0D16"/>
</linearGradient>
<linearGradient id="paint7_linear" x1="2.51979" y1="16.8478" x2="1.3658" y2="12.7327" gradientUnits="userSpaceOnUse">
<stop stop-color="#4A0C14"/>
<stop offset="1" stop-color="#5B0D16"/>
</linearGradient>
<linearGradient id="paint8_linear" x1="14.7523" y1="22.3988" x2="10.4149" y2="22.6191" gradientUnits="userSpaceOnUse">
<stop stop-color="#21090F"/>
<stop offset="1" stop-color="#280910"/>
</linearGradient>
<linearGradient id="paint9_linear" x1="14.7708" y1="22.1383" x2="10.4178" y2="22.1373" gradientUnits="userSpaceOnUse">
<stop stop-color="#21090F"/>
<stop offset="1" stop-color="#280910"/>
</linearGradient>
<linearGradient id="paint10_linear" x1="22.1446" y1="17.6153" x2="23.6665" y2="14.3538" gradientUnits="userSpaceOnUse">
<stop stop-color="#280910"/>
<stop offset="1" stop-color="#320A11"/>
</linearGradient>
<linearGradient id="paint11_linear" x1="21.8272" y1="17.4706" x2="23.3365" y2="14.2031" gradientUnits="userSpaceOnUse">
<stop stop-color="#280910"/>
<stop offset="1" stop-color="#320A11"/>
</linearGradient>
<linearGradient id="paint12_linear" x1="20.8402" y1="3.04748" x2="22.3622" y2="5.00438" gradientUnits="userSpaceOnUse">
<stop stop-color="#5E0E17"/>
<stop offset="1" stop-color="#550D16"/>
</linearGradient>
<linearGradient id="paint13_linear" x1="20.6666" y1="3.16601" x2="22.1385" y2="5.16483" gradientUnits="userSpaceOnUse">
<stop stop-color="#5E0E17"/>
<stop offset="1" stop-color="#550D16"/>
</linearGradient>
</defs>
</svg>
