<svg width="67" height="66" viewBox="0 0 67 66" fill="none" xmlns="http://www.w3.org/2000/svg">
<path d="M63.6339 20.3562C70.7836 36.7018 63.3288 55.7485 46.9833 62.8982C30.6377 70.0479 11.591 62.5932 4.44132 46.2476C-2.70839 29.902 4.74633 10.8554 21.0919 3.70566C37.4375 -3.44404 56.4842 4.01068 63.6339 20.3562Z" fill="url(#paint0_linear)"/>
<path d="M21.1793 23.8571C22.2795 26.3717 21.1329 29.3021 18.6183 30.4022C16.1037 31.5024 13.1733 30.3558 12.0731 27.8412C10.9729 25.3266 12.1196 22.3962 14.6342 21.2961C17.1488 20.1959 20.0792 21.3425 21.1793 23.8571Z" fill="url(#paint1_linear)"/>
<path d="M51.559 10.1344C52.1913 11.0312 52.0548 12.2159 51.254 12.7806C50.4533 13.3453 49.2915 13.0761 48.6591 12.1793C48.0268 11.2825 48.1633 10.0977 48.9641 9.53304C49.7648 8.96836 50.9266 9.23759 51.559 10.1344Z" fill="url(#paint2_linear)"/>
<path d="M62.9441 33.9162C63.9273 34.2586 64.3404 35.6389 63.8668 36.9992C63.3932 38.3596 62.2122 39.1848 61.229 38.8424C60.2458 38.5001 59.8327 37.1198 60.3063 35.7594C60.7799 34.3991 61.9609 33.5739 62.9441 33.9162Z" fill="url(#paint3_linear)"/>
<path d="M33.0937 2.16589C33.1572 2.72046 32.0485 3.30276 30.6174 3.46651C29.1863 3.63026 27.9747 3.31344 27.9113 2.75888C27.8478 2.20432 28.9565 1.62201 30.3876 1.45826C31.8187 1.29451 33.0303 1.61133 33.0937 2.16589Z" fill="url(#paint4_linear)"/>
<path d="M45.2189 51.8615C45.913 55.4756 42.9996 59.0731 38.7115 59.8967C34.4234 60.7202 30.3845 58.4579 29.6904 54.8438C28.9963 51.2296 31.9097 47.6321 36.1978 46.8086C40.4859 45.985 44.5248 48.2473 45.2189 51.8615Z" fill="url(#paint5_linear)"/>
<path d="M23.1379 2.41203C23.3534 2.85309 22.0687 3.92365 20.2685 4.80319C18.4682 5.68273 16.8342 6.03819 16.6187 5.59713C16.4032 5.15607 17.6879 4.08551 19.4881 3.20597C21.2883 2.32643 22.9224 1.97098 23.1379 2.41203Z" fill="#9E0E17"/>
<path d="M23.4208 2.99146C23.7927 3.75255 22.6347 5.08253 20.8345 5.96207C19.0343 6.8416 17.2735 6.93762 16.9016 6.17654C16.5298 5.41546 17.6877 4.08547 19.4879 3.20594C21.2882 2.3264 23.049 2.23038 23.4208 2.99146Z" fill="#9E0E17"/>
<path d="M22.1075 2.50312C22.1702 2.63145 21.199 3.23484 19.9381 3.85084C18.6773 4.46683 17.6044 4.86216 17.5417 4.73383C17.479 4.60549 18.4503 4.0021 19.7111 3.38611C20.9719 2.77012 22.0448 2.37479 22.1075 2.50312Z" fill="#580509"/>
<path d="M0.615328 38.064C1.37955 37.8313 2.76905 40.1713 3.71886 43.2905C4.66867 46.4097 4.81913 49.127 4.05491 49.3597C3.29069 49.5924 1.90119 47.2524 0.951378 44.1332C0.00156362 41.014 -0.148891 38.2967 0.615328 38.064Z" fill="url(#paint6_linear)"/>
<path d="M1.61941 37.7584C2.93812 37.3569 4.7771 39.5599 5.7269 42.6791C6.6767 45.7983 6.37764 48.6524 5.05893 49.054C3.74023 49.4555 1.90124 47.2524 0.951441 44.1333C0.00164282 41.0141 0.300702 38.16 1.61941 37.7584Z" fill="url(#paint7_linear)"/>
<path d="M0.496764 39.743C0.719128 39.6753 1.43867 41.3913 2.1039 43.5759C2.76913 45.7604 3.12814 47.5863 2.90577 47.654C2.68341 47.7217 1.96387 46.0056 1.29864 43.8211C0.633413 41.6365 0.274399 39.8107 0.496764 39.743Z" fill="#470609"/>
<path d="M27.8622 65.0002C27.8921 64.5772 30.5578 64.2866 33.8161 64.3514C37.0744 64.4161 39.6916 64.8115 39.6617 65.2346C39.6317 65.6577 36.9661 65.9482 33.7078 65.8834C30.4494 65.8187 27.8323 65.4233 27.8622 65.0002Z" fill="url(#paint8_linear)"/>
<path d="M27.9016 64.4446C27.9533 63.7145 30.6365 63.1752 33.8948 63.2399C37.1531 63.3046 39.7527 63.9489 39.701 64.679C39.6494 65.409 36.9662 65.9484 33.7079 65.8837C30.4495 65.819 27.85 65.1747 27.9016 64.4446Z" fill="url(#paint9_linear)"/>
<path d="M29.4099 65.3507C29.4186 65.2276 31.2756 65.1646 33.5576 65.2099C35.8396 65.2552 37.6824 65.3918 37.6737 65.5149C37.665 65.638 35.808 65.701 33.5261 65.6557C31.2441 65.6104 29.4012 65.4738 29.4099 65.3507Z" fill="#150303"/>
<path d="M61.4268 51.4271C60.7917 51.1379 61.2338 48.8021 62.4143 46.2099C63.5948 43.6177 65.0666 41.7508 65.7017 42.04C66.3368 42.3292 65.8947 44.665 64.7142 47.2572C63.5337 49.8494 62.0619 51.7163 61.4268 51.4271Z" fill="url(#paint10_linear)"/>
<path d="M60.5927 51.0474C59.4968 50.5483 59.5654 48.0423 60.7458 45.4501C61.9263 42.8579 63.7716 41.1611 64.8675 41.6602C65.9634 42.1593 65.8948 44.6652 64.7144 47.2574C63.5339 49.8496 61.6886 51.5464 60.5927 51.0474Z" fill="url(#paint11_linear)"/>
<path d="M62.4749 50.3959C62.2901 50.3117 62.8106 48.7718 63.6374 46.9563C64.4643 45.1409 65.2844 43.7373 65.4692 43.8215C65.654 43.9056 65.1335 45.4456 64.3066 47.2611C63.4798 49.0765 62.6597 50.4801 62.4749 50.3959Z" fill="#130406"/>
<path d="M61.5987 15.451C61.2394 15.6959 60.1378 14.7058 59.1381 13.2394C58.1385 11.773 57.6193 10.3858 57.9786 10.1408C58.3379 9.89592 59.4395 10.8861 60.4392 12.3525C61.4388 13.8188 61.9579 15.2061 61.5987 15.451Z" fill="url(#paint12_linear)"/>
<path d="M61.1266 15.7729C60.5066 16.1956 59.1936 15.3494 58.1939 13.8831C57.1943 12.4167 56.8864 10.8854 57.5064 10.4627C58.1264 10.0401 59.4393 10.8862 60.439 12.3526C61.4387 13.819 61.7465 15.3503 61.1266 15.7729Z" fill="url(#paint13_linear)"/>
<path d="M61.3881 14.5596C61.2836 14.6309 60.6314 13.8561 59.9313 12.8291C59.2312 11.8021 58.7484 10.9118 58.853 10.8405C58.9575 10.7693 59.6097 11.5441 60.3098 12.5711C61.0099 13.5981 61.4927 14.4884 61.3881 14.5596Z" fill="#550407"/>
<path d="M41.4751 28.9555C41.4751 30.671 40.0844 32.0616 38.369 32.0616C36.6535 32.0616 35.2628 30.671 35.2628 28.9555C35.2628 27.2401 36.6535 25.8494 38.369 25.8494C40.0844 25.8494 41.4751 27.2401 41.4751 28.9555Z" fill="#780B12"/>
<path d="M14.6378 51.6514C13.858 52.3233 12.3181 51.8143 11.1985 50.5146C10.0788 49.2149 9.8033 47.6167 10.5831 46.9448C11.3629 46.273 12.9027 46.782 14.0224 48.0817C15.142 49.3814 15.4176 50.9796 14.6378 51.6514Z" fill="#650B12"/>
<path d="M38.9899 7.83388C38.9899 8.86315 37.5993 9.69754 35.8838 9.69754C34.1684 9.69754 32.7777 8.86315 32.7777 7.83388C32.7777 6.80461 34.1684 5.97021 35.8838 5.97021C37.5993 5.97021 38.9899 6.80461 38.9899 7.83388Z" fill="#9B0E17"/>
<path d="M57.3208 47.1329C57.9975 47.9084 57.4982 49.4515 56.2056 50.5793C54.9131 51.7071 53.3167 51.9927 52.64 51.2171C51.9633 50.4416 52.4626 48.8986 53.7552 47.7707C55.0477 46.6429 56.6441 46.3573 57.3208 47.1329Z" fill="#4B090E"/>
<defs>
<linearGradient id="paint0_linear" x1="21.0919" y1="3.70575" x2="46.9833" y2="62.8983" gradientUnits="userSpaceOnUse">
<stop stop-color="#A00F18"/>
<stop offset="1" stop-color="#240508"/>
</linearGradient>
<linearGradient id="paint1_linear" x1="14.6342" y1="21.2961" x2="18.6182" y2="30.4023" gradientUnits="userSpaceOnUse">
<stop stop-color="#1F080C"/>
<stop offset="1" stop-color="#88111B"/>
</linearGradient>
<linearGradient id="paint2_linear" x1="48.9641" y1="9.53306" x2="51.2542" y2="12.7806" gradientUnits="userSpaceOnUse">
<stop stop-color="#1C070C"/>
<stop offset="1" stop-color="#AF131F"/>
</linearGradient>
<linearGradient id="paint3_linear" x1="60.3063" y1="35.7594" x2="63.8668" y2="36.9991" gradientUnits="userSpaceOnUse">
<stop stop-color="#2B090E"/>
<stop offset="1" stop-color="#670911"/>
</linearGradient>
<linearGradient id="paint4_linear" x1="30.3876" y1="1.45836" x2="30.6174" y2="3.46661" gradientUnits="userSpaceOnUse">
<stop stop-color="#40090F"/>
<stop offset="1" stop-color="#AE131E"/>
</linearGradient>
<linearGradient id="paint5_linear" x1="36.1978" y1="46.8086" x2="38.7114" y2="59.8967" gradientUnits="userSpaceOnUse">
<stop stop-color="#16070B"/>
<stop offset="1" stop-color="#5C0C13"/>
</linearGradient>
<linearGradient id="paint6_linear" x1="4.20144" y1="49.456" x2="1.09531" y2="37.6526" gradientUnits="userSpaceOnUse">
<stop stop-color="#5D090F"/>
<stop offset="1" stop-color="#720B12"/>
</linearGradient>
<linearGradient id="paint7_linear" x1="5.28334" y1="49.1265" x2="1.98622" y2="37.369" gradientUnits="userSpaceOnUse">
<stop stop-color="#5D090F"/>
<stop offset="1" stop-color="#720B12"/>
</linearGradient>
<linearGradient id="paint8_linear" x1="40.2327" y1="64.9864" x2="27.84" y2="65.6157" gradientUnits="userSpaceOnUse">
<stop stop-color="#260508"/>
<stop offset="1" stop-color="#2F0609"/>
</linearGradient>
<linearGradient id="paint9_linear" x1="40.2853" y1="64.2426" x2="27.8482" y2="64.2397" gradientUnits="userSpaceOnUse">
<stop stop-color="#260508"/>
<stop offset="1" stop-color="#2F0609"/>
</linearGradient>
<linearGradient id="paint10_linear" x1="61.3541" y1="51.3194" x2="65.7027" y2="42.001" gradientUnits="userSpaceOnUse">
<stop stop-color="#2F0609"/>
<stop offset="1" stop-color="#3C070B"/>
</linearGradient>
<linearGradient id="paint11_linear" x1="60.4469" y1="50.9064" x2="64.7592" y2="41.5709" gradientUnits="userSpaceOnUse">
<stop stop-color="#2F0609"/>
<stop offset="1" stop-color="#3C070B"/>
</linearGradient>
<linearGradient id="paint12_linear" x1="57.6266" y1="9.69743" x2="61.9751" y2="15.2885" gradientUnits="userSpaceOnUse">
<stop stop-color="#780C13"/>
<stop offset="1" stop-color="#6C0B11"/>
</linearGradient>
<linearGradient id="paint13_linear" x1="57.1297" y1="10.0361" x2="61.335" y2="15.7473" gradientUnits="userSpaceOnUse">
<stop stop-color="#780C13"/>
<stop offset="1" stop-color="#6C0B11"/>
</linearGradient>
</defs>
</svg>
