<svg width="1704" height="1166" viewBox="0 0 1704 1166" fill="none" xmlns="http://www.w3.org/2000/svg">
<ellipse cx="5.75776" cy="150.825" rx="1.49933" ry="1.7964" fill="white"/>
<ellipse cx="230.641" cy="150.825" rx="1.49909" ry="1.7964" fill="white"/>
<ellipse cx="455.526" cy="150.825" rx="1.49917" ry="1.7964" fill="white"/>
<ellipse cx="680.41" cy="150.825" rx="1.49925" ry="1.7964" fill="white"/>
<ellipse cx="200.657" cy="330.462" rx="1.49925" ry="1.79644" fill="white"/>
<ellipse cx="425.541" cy="330.462" rx="1.49925" ry="1.79644" fill="white"/>
<ellipse cx="650.425" cy="330.462" rx="1.49925" ry="1.79644" fill="white"/>
<ellipse cx="875.309" cy="330.462" rx="1.49925" ry="1.79644" fill="white"/>
<ellipse cx="65.7261" cy="510.1" rx="1.49933" ry="1.79631" fill="white"/>
<ellipse cx="290.611" cy="510.1" rx="1.49917" ry="1.79631" fill="white"/>
<ellipse cx="515.495" cy="510.1" rx="1.49917" ry="1.79631" fill="white"/>
<ellipse cx="740.379" cy="510.1" rx="1.49917" ry="1.79631" fill="white"/>
<ellipse cx="965.263" cy="510.1" rx="1.49973" ry="1.79631" fill="white"/>
<ellipse cx="170.672" cy="689.737" rx="1.49917" ry="1.79631" fill="white"/>
<ellipse cx="395.557" cy="689.737" rx="1.49925" ry="1.79631" fill="white"/>
<ellipse cx="620.44" cy="689.737" rx="1.49917" ry="1.79631" fill="white"/>
<ellipse cx="845.324" cy="689.737" rx="1.49917" ry="1.79631" fill="white"/>
<ellipse cx="215.649" cy="869.374" rx="1.49925" ry="1.79631" fill="white"/>
<ellipse cx="440.533" cy="869.374" rx="1.49933" ry="1.79631" fill="white"/>
<ellipse cx="665.417" cy="869.374" rx="1.49925" ry="1.79631" fill="white"/>
<ellipse cx="890.301" cy="869.374" rx="1.49925" ry="1.79631" fill="white"/>
<ellipse cx="95.711" cy="1066.97" rx="1.49909" ry="1.79623" fill="white"/>
<ellipse cx="320.595" cy="1066.97" rx="1.49925" ry="1.79623" fill="white"/>
<ellipse cx="545.479" cy="1066.97" rx="1.49917" ry="1.79623" fill="white"/>
<ellipse cx="770.364" cy="1066.97" rx="1.49933" ry="1.79623" fill="white"/>
<ellipse cx="995.247" cy="1066.97" rx="1.49917" ry="1.79623" fill="white"/>
<ellipse cx="80.7187" cy="168.789" rx="1.49925" ry="1.7964" fill="white"/>
<ellipse cx="305.603" cy="168.789" rx="1.49917" ry="1.7964" fill="white"/>
<ellipse cx="530.487" cy="168.789" rx="1.49917" ry="1.7964" fill="white"/>
<ellipse cx="755.371" cy="168.789" rx="1.49925" ry="1.7964" fill="white"/>
<ellipse cx="50.7342" cy="348.426" rx="1.49933" ry="1.7964" fill="white"/>
<ellipse cx="275.618" cy="348.426" rx="1.49933" ry="1.7964" fill="white"/>
<ellipse cx="500.503" cy="348.426" rx="1.49909" ry="1.7964" fill="white"/>
<ellipse cx="725.387" cy="348.426" rx="1.49925" ry="1.7964" fill="white"/>
<ellipse cx="950.271" cy="348.426" rx="1.49893" ry="1.7964" fill="white"/>
<ellipse cx="140.688" cy="528.063" rx="1.49941" ry="1.79636" fill="white"/>
<ellipse cx="365.572" cy="528.063" rx="1.49909" ry="1.79636" fill="white"/>
<ellipse cx="590.456" cy="528.063" rx="1.49925" ry="1.79636" fill="white"/>
<ellipse cx="815.34" cy="528.063" rx="1.49925" ry="1.79636" fill="white"/>
<ellipse cx="1040.22" cy="524.471" rx="1.49885" ry="1.79636" fill="white"/>
<ellipse cx="20.7497" cy="707.7" rx="1.49925" ry="1.7964" fill="white"/>
<ellipse cx="245.634" cy="707.7" rx="1.49909" ry="1.7964" fill="white"/>
<ellipse cx="470.518" cy="707.7" rx="1.49917" ry="1.7964" fill="white"/>
<ellipse cx="695.402" cy="707.7" rx="1.49925" ry="1.7964" fill="white"/>
<ellipse cx="920.286" cy="707.7" rx="1.49925" ry="1.7964" fill="white"/>
<ellipse cx="65.7262" cy="887.338" rx="1.49941" ry="1.79631" fill="white"/>
<ellipse cx="290.611" cy="887.338" rx="1.49925" ry="1.79631" fill="white"/>
<ellipse cx="515.495" cy="887.338" rx="1.49917" ry="1.79631" fill="white"/>
<ellipse cx="740.379" cy="887.338" rx="1.49917" ry="1.79631" fill="white"/>
<ellipse cx="965.263" cy="887.338" rx="1.49981" ry="1.79631" fill="white"/>
<ellipse cx="170.672" cy="1084.94" rx="1.49909" ry="1.79631" fill="white"/>
<ellipse cx="395.557" cy="1084.94" rx="1.49933" ry="1.79631" fill="white"/>
<ellipse cx="620.44" cy="1084.94" rx="1.49917" ry="1.79631" fill="white"/>
<ellipse cx="845.324" cy="1084.94" rx="1.49917" ry="1.79631" fill="white"/>
<ellipse cx="1070.21" cy="1081.35" rx="1.49925" ry="1.79631" fill="white"/>
<ellipse cx="56.7315" cy="61.0063" rx="1.49909" ry="1.79636" fill="white"/>
<ellipse cx="281.616" cy="61.0063" rx="1.49917" ry="1.79636" fill="white"/>
<ellipse cx="506.499" cy="61.0063" rx="1.49933" ry="1.79636" fill="white"/>
<ellipse cx="731.384" cy="61.0063" rx="1.49925" ry="1.79636" fill="white"/>
<ellipse cx="146.685" cy="240.644" rx="1.49925" ry="1.7964" fill="white"/>
<ellipse cx="371.569" cy="240.644" rx="1.49925" ry="1.7964" fill="white"/>
<ellipse cx="596.453" cy="240.644" rx="1.49925" ry="1.7964" fill="white"/>
<ellipse cx="116.7" cy="420.281" rx="1.49925" ry="1.79631" fill="white"/>
<ellipse cx="341.585" cy="420.281" rx="1.49925" ry="1.79631" fill="white"/>
<ellipse cx="566.468" cy="420.281" rx="1.49917" ry="1.79631" fill="white"/>
<ellipse cx="791.353" cy="420.281" rx="1.49925" ry="1.79631" fill="white"/>
<ellipse cx="206.654" cy="599.918" rx="1.49909" ry="1.7964" fill="white"/>
<ellipse cx="431.538" cy="599.918" rx="1.49925" ry="1.7964" fill="white"/>
<ellipse cx="656.422" cy="599.918" rx="1.49933" ry="1.7964" fill="white"/>
<ellipse cx="881.307" cy="599.918" rx="1.49925" ry="1.7964" fill="white"/>
<ellipse cx="86.716" cy="779.555" rx="1.49925" ry="1.79631" fill="white"/>
<ellipse cx="311.6" cy="779.555" rx="1.49925" ry="1.79631" fill="white"/>
<ellipse cx="536.484" cy="779.555" rx="1.49925" ry="1.79631" fill="white"/>
<ellipse cx="761.368" cy="779.555" rx="1.49925" ry="1.79631" fill="white"/>
<ellipse cx="131.693" cy="959.192" rx="1.49941" ry="1.79648" fill="white"/>
<ellipse cx="356.577" cy="959.192" rx="1.49917" ry="1.79648" fill="white"/>
<ellipse cx="581.461" cy="959.192" rx="1.49933" ry="1.79648" fill="white"/>
<ellipse cx="806.345" cy="959.192" rx="1.49917" ry="1.79648" fill="white"/>
<ellipse cx="11.7544" cy="1156.79" rx="1.49925" ry="1.7964" fill="white"/>
<ellipse cx="236.639" cy="1156.79" rx="1.49941" ry="1.7964" fill="white"/>
<ellipse cx="461.523" cy="1156.79" rx="1.49933" ry="1.7964" fill="white"/>
<ellipse cx="686.407" cy="1156.79" rx="1.49925" ry="1.7964" fill="white"/>
<ellipse cx="911.291" cy="1156.79" rx="1.49925" ry="1.7964" fill="white"/>
<ellipse cx="242.635" cy="206.513" rx="2.99859" ry="3.59276" fill="white"/>
<ellipse cx="692.404" cy="224.476" rx="2.99835" ry="3.59276" fill="white"/>
<ellipse cx="1142.17" cy="238.848" rx="2.99843" ry="3.5928" fill="white"/>
<ellipse cx="167.674" cy="565.787" rx="2.99859" ry="3.59271" fill="white"/>
<ellipse cx="617.442" cy="583.751" rx="2.99851" ry="3.5928" fill="white"/>
<ellipse cx="1067.21" cy="598.122" rx="2.99811" ry="3.59271" fill="white"/>
<ellipse cx="407.55" cy="925.062" rx="2.99843" ry="3.5928" fill="white"/>
<ellipse cx="857.318" cy="943.025" rx="2.99843" ry="3.59271" fill="white"/>
<ellipse cx="1307.09" cy="957.397" rx="2.99811" ry="3.59271" fill="white"/>
<ellipse cx="107.705" cy="44.8391" rx="2.99851" ry="3.59276" fill="white"/>
<ellipse cx="557.473" cy="62.8027" rx="2.99835" ry="3.59276" fill="white"/>
<ellipse cx="1007.24" cy="77.1747" rx="2.99843" ry="3.5928" fill="white"/>
<ellipse cx="32.7436" cy="404.114" rx="2.99859" ry="3.5928" fill="white"/>
<ellipse cx="482.512" cy="422.077" rx="2.99843" ry="3.59263" fill="white"/>
<ellipse cx="932.28" cy="440.041" rx="2.99835" ry="3.59276" fill="white"/>
<ellipse cx="407.55" cy="781.352" rx="2.99843" ry="3.59271" fill="white"/>
<ellipse cx="857.319" cy="799.315" rx="2.99843" ry="3.59271" fill="white"/>
<ellipse cx="197.659" cy="1122.66" rx="2.99859" ry="3.59271" fill="white"/>
<ellipse cx="647.427" cy="1140.63" rx="2.99851" ry="3.59263" fill="white"/>
<ellipse cx="1097.19" cy="1155" rx="2.99851" ry="3.59271" fill="white"/>
<ellipse cx="986.252" cy="21.4864" rx="1.49917" ry="1.79636" fill="white"/>
<ellipse cx="1211.14" cy="21.4864" rx="1.49925" ry="1.79636" fill="white"/>
<ellipse cx="1436.02" cy="21.4864" rx="1.49941" ry="1.79636" fill="white"/>
<ellipse cx="1660.9" cy="21.4864" rx="1.49941" ry="1.79636" fill="white"/>
<ellipse cx="956.268" cy="201.124" rx="1.49925" ry="1.7964" fill="white"/>
<ellipse cx="1181.15" cy="201.124" rx="1.49917" ry="1.7964" fill="white"/>
<ellipse cx="1406.04" cy="201.124" rx="1.49909" ry="1.7964" fill="white"/>
<ellipse cx="1630.92" cy="201.124" rx="1.49925" ry="1.7964" fill="white"/>
<ellipse cx="1046.22" cy="380.761" rx="1.49933" ry="1.79631" fill="white"/>
<ellipse cx="1271.11" cy="380.761" rx="1.49917" ry="1.79631" fill="white"/>
<ellipse cx="1495.99" cy="380.761" rx="1.49925" ry="1.79631" fill="white"/>
<ellipse cx="926.283" cy="560.398" rx="1.49933" ry="1.79631" fill="white"/>
<ellipse cx="1151.17" cy="560.398" rx="1.49917" ry="1.79631" fill="white"/>
<ellipse cx="1376.05" cy="560.398" rx="1.49925" ry="1.79631" fill="white"/>
<ellipse cx="1600.94" cy="560.398" rx="1.49925" ry="1.79631" fill="white"/>
<ellipse cx="971.26" cy="740.036" rx="1.49917" ry="1.79631" fill="white"/>
<ellipse cx="1196.14" cy="740.036" rx="1.49917" ry="1.79631" fill="white"/>
<ellipse cx="1421.03" cy="740.036" rx="1.49925" ry="1.79631" fill="white"/>
<ellipse cx="1645.91" cy="740.036" rx="1.49941" ry="1.79631" fill="white"/>
<ellipse cx="1076.21" cy="937.636" rx="1.49925" ry="1.7964" fill="white"/>
<ellipse cx="1301.09" cy="937.636" rx="1.49925" ry="1.7964" fill="white"/>
<ellipse cx="1525.97" cy="937.636" rx="1.49909" ry="1.7964" fill="white"/>
<ellipse cx="986.252" cy="1135.24" rx="1.49917" ry="1.79648" fill="white"/>
<ellipse cx="1211.14" cy="1135.24" rx="1.49925" ry="1.79648" fill="white"/>
<ellipse cx="1436.02" cy="1135.24" rx="1.49941" ry="1.79648" fill="white"/>
<ellipse cx="1660.9" cy="1135.24" rx="1.49941" ry="1.79648" fill="white"/>
<ellipse cx="1061.21" cy="39.45" rx="1.49925" ry="1.79636" fill="white"/>
<ellipse cx="1286.1" cy="39.45" rx="1.49925" ry="1.79636" fill="white"/>
<ellipse cx="1510.98" cy="39.45" rx="1.49925" ry="1.79636" fill="white"/>
<ellipse cx="1031.23" cy="219.087" rx="1.49925" ry="1.79644" fill="white"/>
<ellipse cx="1256.11" cy="219.087" rx="1.49933" ry="1.79644" fill="white"/>
<ellipse cx="1481" cy="219.087" rx="1.49909" ry="1.79644" fill="white"/>
<ellipse cx="1121.18" cy="398.725" rx="1.49925" ry="1.79636" fill="white"/>
<ellipse cx="1346.07" cy="398.725" rx="1.49925" ry="1.79636" fill="white"/>
<ellipse cx="1570.95" cy="398.725" rx="1.49925" ry="1.79636" fill="white"/>
<ellipse cx="1001.24" cy="578.362" rx="1.49925" ry="1.7964" fill="white"/>
<ellipse cx="1226.13" cy="578.362" rx="1.49925" ry="1.7964" fill="white"/>
<ellipse cx="1451.01" cy="578.362" rx="1.49925" ry="1.7964" fill="white"/>
<ellipse cx="1675.9" cy="578.362" rx="1.49925" ry="1.7964" fill="white"/>
<ellipse cx="1046.22" cy="757.999" rx="1.49925" ry="1.79648" fill="white"/>
<ellipse cx="1271.1" cy="757.999" rx="1.49917" ry="1.79648" fill="white"/>
<ellipse cx="1495.99" cy="757.999" rx="1.49925" ry="1.79648" fill="white"/>
<ellipse cx="1151.17" cy="955.6" rx="1.49933" ry="1.79631" fill="white"/>
<ellipse cx="1376.05" cy="955.6" rx="1.49909" ry="1.79631" fill="white"/>
<ellipse cx="1600.93" cy="955.6" rx="1.49925" ry="1.79631" fill="white"/>
<ellipse cx="1061.21" cy="1153.2" rx="1.49925" ry="1.79631" fill="white"/>
<ellipse cx="1286.1" cy="1153.2" rx="1.49925" ry="1.79631" fill="white"/>
<ellipse cx="1510.98" cy="1153.2" rx="1.49925" ry="1.79631" fill="white"/>
<ellipse cx="902.296" cy="111.305" rx="1.49917" ry="1.7964" fill="white"/>
<ellipse cx="1127.18" cy="111.305" rx="1.49933" ry="1.7964" fill="white"/>
<ellipse cx="1352.06" cy="111.305" rx="1.49925" ry="1.7964" fill="white"/>
<ellipse cx="1576.95" cy="111.305" rx="1.49925" ry="1.7964" fill="white"/>
<ellipse cx="872.311" cy="290.942" rx="1.49917" ry="1.7964" fill="white"/>
<ellipse cx="1097.19" cy="290.942" rx="1.49917" ry="1.7964" fill="white"/>
<ellipse cx="1322.08" cy="290.942" rx="1.49925" ry="1.7964" fill="white"/>
<ellipse cx="1546.96" cy="290.942" rx="1.49925" ry="1.7964" fill="white"/>
<ellipse cx="962.265" cy="470.579" rx="1.49925" ry="1.79644" fill="white"/>
<ellipse cx="1187.15" cy="470.579" rx="1.49925" ry="1.79644" fill="white"/>
<ellipse cx="1412.03" cy="470.579" rx="1.49925" ry="1.79644" fill="white"/>
<ellipse cx="1636.92" cy="470.579" rx="1.49941" ry="1.79644" fill="white"/>
<ellipse cx="842.326" cy="650.217" rx="1.49925" ry="1.79631" fill="white"/>
<ellipse cx="1067.21" cy="650.217" rx="1.49925" ry="1.79631" fill="white"/>
<ellipse cx="1292.09" cy="650.217" rx="1.49925" ry="1.79631" fill="white"/>
<ellipse cx="1516.98" cy="650.217" rx="1.49925" ry="1.79631" fill="white"/>
<ellipse cx="887.304" cy="829.854" rx="1.49925" ry="1.7964" fill="white"/>
<ellipse cx="1112.19" cy="829.854" rx="1.49925" ry="1.7964" fill="white"/>
<ellipse cx="1337.07" cy="829.854" rx="1.49925" ry="1.7964" fill="white"/>
<ellipse cx="1561.96" cy="829.854" rx="1.49909" ry="1.7964" fill="white"/>
<ellipse cx="992.249" cy="1027.45" rx="1.49917" ry="1.79631" fill="white"/>
<ellipse cx="1217.13" cy="1027.45" rx="1.49917" ry="1.79631" fill="white"/>
<ellipse cx="1442.02" cy="1027.45" rx="1.49925" ry="1.79631" fill="white"/>
<ellipse cx="1666.9" cy="1027.45" rx="1.49925" ry="1.79631" fill="white"/>
<ellipse cx="998.246" cy="95.1377" rx="2.99835" ry="3.59276" fill="white"/>
<ellipse cx="1448.01" cy="113.101" rx="2.99851" ry="3.59271" fill="white"/>
<ellipse cx="923.285" cy="454.412" rx="2.99843" ry="3.59276" fill="white"/>
<ellipse cx="1373.05" cy="472.376" rx="2.99851" ry="3.59271" fill="white"/>
<ellipse cx="1163.16" cy="813.687" rx="2.99843" ry="3.59288" fill="white"/>
<ellipse cx="1612.93" cy="831.65" rx="2.99867" ry="3.5928" fill="white"/>
<ellipse cx="788.354" cy="292.738" rx="2.99851" ry="3.59271" fill="white"/>
<ellipse cx="1238.12" cy="310.702" rx="2.99843" ry="3.5928" fill="white"/>
<ellipse cx="1687.89" cy="292.738" rx="2.99851" ry="3.59271" fill="white"/>
<ellipse cx="713.393" cy="648.421" rx="2.99851" ry="3.5928" fill="white"/>
<ellipse cx="1163.16" cy="669.977" rx="2.99851" ry="3.59271" fill="white"/>
<ellipse cx="1612.93" cy="652.013" rx="2.99867" ry="3.5928" fill="white"/>
<ellipse cx="953.269" cy="1011.29" rx="2.99843" ry="3.59255" fill="white"/>
<ellipse cx="1403.04" cy="1029.25" rx="2.99835" ry="3.59271" fill="white"/>
</svg>
