<svg width="393" height="292" viewBox="0 0 393 292" fill="none" xmlns="http://www.w3.org/2000/svg">
<path d="M77.9988 278.133V245.315H6.96819L0 227.557L51.0252 111.345H90.5865L46.08 212.272H77.9988V183.95L85.4166 163.495H116.886V212.272H131.946V239.246L116.886 245.315V278.133H77.9988Z" fill="#3E404E"/>
<g filter="url(#filter0_d)">
<path d="M275.522 166.504C294.614 210.151 274.708 261.01 231.062 280.101C187.415 299.192 136.556 279.287 117.465 235.64C98.3736 191.994 118.279 141.135 161.926 122.043C205.572 102.952 256.431 122.858 275.522 166.504Z" fill="url(#paint0_linear)"/>
<path d="M162.158 175.853C165.096 182.568 162.034 190.392 155.32 193.33C148.605 196.268 140.78 193.206 137.843 186.492C134.905 179.777 137.967 171.952 144.681 169.015C151.396 166.077 159.221 169.139 162.158 175.853Z" fill="url(#paint1_linear)"/>
<path d="M243.205 140.717C244.891 142.673 244.573 145.232 242.493 146.431C240.413 147.631 237.36 147.017 235.673 145.061C233.987 143.104 234.305 140.546 236.385 139.346C238.465 138.147 241.518 138.76 243.205 140.717Z" fill="url(#paint2_linear)"/>
<path d="M273.681 202.712C276.307 203.627 277.41 207.312 276.145 210.945C274.881 214.577 271.727 216.781 269.101 215.866C266.476 214.952 265.373 211.267 266.637 207.634C267.902 204.002 271.056 201.798 273.681 202.712Z" fill="url(#paint3_linear)"/>
<path d="M193.974 117.932C194.144 119.413 191.183 120.968 187.362 121.405C183.541 121.843 180.306 120.997 180.136 119.516C179.967 118.035 182.927 116.48 186.748 116.043C190.57 115.606 193.805 116.452 193.974 117.932Z" fill="url(#paint4_linear)"/>
<path d="M226.351 250.63C228.204 260.281 220.425 269.887 208.975 272.086C197.524 274.285 186.74 268.245 184.886 258.594C183.033 248.943 190.812 239.337 202.263 237.138C213.713 234.939 224.497 240.98 226.351 250.63Z" fill="url(#paint5_linear)"/>
<path d="M167.389 118.589C167.965 119.767 164.534 122.626 159.727 124.974C154.92 127.323 150.557 128.272 149.981 127.094C149.406 125.916 152.836 123.058 157.643 120.709C162.45 118.361 166.814 117.412 167.389 118.589Z" fill="#C00C14"/>
<path d="M168.145 120.137C169.138 122.169 166.046 125.72 161.239 128.069C156.432 130.418 151.73 130.674 150.737 128.642C149.744 126.609 152.836 123.058 157.643 120.71C162.45 118.361 167.152 118.105 168.145 120.137Z" fill="#C00C14"/>
<path d="M164.638 118.833C164.805 119.176 162.212 120.787 158.845 122.432C155.479 124.076 152.614 125.132 152.446 124.789C152.279 124.447 154.872 122.836 158.239 121.191C161.606 119.546 164.47 118.49 164.638 118.833Z" fill="#400003"/>
<path d="M107.249 213.788C109.289 213.167 112.999 219.415 115.536 227.744C118.072 236.073 118.474 243.329 116.433 243.95C114.392 244.572 110.682 238.323 108.146 229.994C105.61 221.665 105.208 214.41 107.249 213.788Z" fill="url(#paint6_linear)"/>
<path d="M109.929 212.972C113.45 211.899 118.361 217.782 120.897 226.111C123.433 234.44 122.635 242.061 119.113 243.133C115.592 244.206 110.682 238.323 108.145 229.994C105.609 221.665 106.408 214.044 109.929 212.972Z" fill="url(#paint7_linear)"/>
<path d="M106.932 218.271C107.526 218.091 109.447 222.673 111.223 228.506C112.999 234.34 113.958 239.215 113.364 239.396C112.771 239.577 110.849 234.994 109.073 229.161C107.297 223.328 106.338 218.452 106.932 218.271Z" fill="#400104"/>
<path d="M180.004 284.329C180.084 283.2 187.201 282.424 195.902 282.597C204.602 282.77 211.591 283.825 211.511 284.955C211.431 286.085 204.313 286.86 195.613 286.688C186.912 286.515 179.924 285.459 180.004 284.329Z" fill="url(#paint8_linear)"/>
<path d="M180.109 282.845C180.247 280.896 187.412 279.455 196.112 279.628C204.813 279.801 211.754 281.521 211.616 283.471C211.478 285.42 204.313 286.86 195.613 286.688C186.913 286.515 179.971 284.794 180.109 282.845Z" fill="url(#paint9_linear)"/>
<path d="M184.136 285.265C184.16 284.936 189.118 284.768 195.212 284.889C201.305 285.01 206.226 285.375 206.203 285.703C206.18 286.032 201.221 286.2 195.128 286.079C189.034 285.958 184.113 285.594 184.136 285.265Z" fill="#150303"/>
<path d="M269.63 249.47C267.934 248.698 269.114 242.461 272.267 235.539C275.419 228.618 279.349 223.632 281.045 224.405C282.741 225.177 281.56 231.414 278.408 238.336C275.256 245.258 271.326 250.243 269.63 249.47Z" fill="url(#paint10_linear)"/>
<path d="M267.401 248.457C264.475 247.124 264.658 240.433 267.81 233.511C270.962 226.589 275.89 222.058 278.816 223.391C281.742 224.724 281.559 231.415 278.407 238.337C275.255 245.258 270.327 249.789 267.401 248.457Z" fill="url(#paint11_linear)"/>
<path d="M272.427 246.718C271.934 246.493 273.324 242.381 275.531 237.533C277.739 232.685 279.929 228.938 280.422 229.162C280.916 229.387 279.526 233.499 277.318 238.347C275.111 243.195 272.921 246.942 272.427 246.718Z" fill="#130406"/>
<path d="M270.089 153.407C269.129 154.061 266.188 151.417 263.519 147.501C260.849 143.586 259.463 139.881 260.422 139.227C261.382 138.573 264.323 141.217 266.993 145.133C269.662 149.049 271.048 152.753 270.089 153.407Z" fill="url(#paint12_linear)"/>
<path d="M268.829 154.266C267.173 155.394 263.667 153.135 260.998 149.22C258.329 145.304 257.507 141.215 259.162 140.087C260.818 138.958 264.324 141.217 266.993 145.133C269.662 149.048 270.484 153.137 268.829 154.266Z" fill="url(#paint13_linear)"/>
<path d="M269.526 151.026C269.247 151.216 267.505 149.147 265.635 146.405C263.766 143.663 262.477 141.286 262.756 141.095C263.035 140.905 264.777 142.974 266.646 145.716C268.516 148.458 269.805 150.836 269.526 151.026Z" fill="#3D0002"/>
<path d="M216.353 189.466C216.353 194.047 212.64 197.761 208.059 197.761C203.478 197.761 199.765 194.047 199.765 189.466C199.765 184.886 203.478 181.172 208.059 181.172C212.64 181.172 216.353 184.886 216.353 189.466Z" fill="#91080D"/>
<path d="M144.692 250.07C142.61 251.863 138.498 250.504 135.509 247.034C132.519 243.563 131.783 239.296 133.865 237.502C135.948 235.708 140.059 237.067 143.049 240.538C146.039 244.008 146.775 248.276 144.692 250.07Z" fill="#79080D"/>
<path d="M209.718 133.067C209.718 135.815 206.005 138.043 201.424 138.043C196.844 138.043 193.13 135.815 193.13 133.067C193.13 130.318 196.844 128.09 201.424 128.09C206.005 128.09 209.718 130.318 209.718 133.067Z" fill="#BD0C14"/>
<path d="M258.665 238.004C260.472 240.075 259.139 244.195 255.687 247.207C252.235 250.218 247.972 250.981 246.165 248.91C244.358 246.839 245.692 242.719 249.143 239.707C252.595 236.696 256.858 235.933 258.665 238.004Z" fill="#580508"/>
</g>
<path d="M126.384 129.357L130.251 130.86L142.709 126.35C142.709 126.35 145.274 128.493 146.791 130.001C147.927 131.132 148.812 131.604 149.583 133.009C149.891 133.569 150.423 133.904 150.228 134.512C150.063 135.023 149.653 135.174 149.154 135.371C148.529 135.618 148.101 135.458 147.435 135.371C145.872 135.167 143.998 133.653 143.354 134.083C142.709 134.512 142.642 135.535 142.28 136.875C141.918 138.216 144.494 141.906 143.354 144.823C143.039 145.627 143.054 146.374 142.28 146.756C141.678 147.053 141.205 146.944 140.561 146.756C139.364 146.406 139.155 145.396 138.413 144.393C137.03 142.523 135.836 139.023 135.836 139.023C135.836 139.023 136.666 141.74 136.91 143.534C137.08 144.784 137.434 145.533 137.124 146.756C136.968 147.375 137.015 147.911 136.48 148.26C136.122 148.493 135.834 148.475 135.406 148.475C134.978 148.475 134.721 148.438 134.332 148.26C133.629 147.937 133.466 147.404 133.043 146.756C132.447 145.843 132.376 145.19 131.969 144.178C131.068 141.937 129.821 138.379 129.821 138.379C129.821 138.379 130.24 142.341 129.821 144.823C129.692 145.585 130.044 146.341 129.391 146.756C129.1 146.942 128.878 146.971 128.532 146.971C128.186 146.971 127.986 146.904 127.673 146.756C126.853 146.368 126.8 145.629 126.384 144.823C125.739 143.573 125.568 142.768 125.31 141.386C124.91 139.242 124.777 137.986 124.881 135.801C124.945 134.45 124.991 133.679 125.31 132.364C125.604 131.152 126.384 129.357 126.384 129.357Z" fill="#C0C0C0"/>
<path d="M129.821 69.2114C129.821 69.2114 143.475 54.4974 154.739 49.0197C166.767 43.1696 188.248 41.9311 188.248 41.9311C188.248 41.9311 196.968 54.5615 201.137 63.4116C207.402 76.7137 211.877 99.499 211.877 99.499L164.834 127.209C164.834 127.209 152.056 112.583 145.502 102.077C137.975 90.011 129.821 69.2114 129.821 69.2114Z" fill="#CACACA"/>
<path d="M146.576 46.4419C135.312 51.9197 121.658 66.6336 121.658 66.6336C121.658 66.6336 129.813 87.4332 137.339 99.4989C143.893 110.005 156.671 124.631 156.671 124.631L164.834 127.209C164.834 127.209 152.056 112.583 145.502 102.077C137.975 90.0109 129.821 69.2113 129.821 69.2113C129.821 69.2113 143.475 54.4973 154.739 49.0196C166.767 43.1696 188.248 41.931 188.248 41.931C188.248 41.931 196.968 54.5614 201.137 63.4116C206.925 75.699 211.184 96.0782 211.8 99.1156L211.877 99.0693C211.877 99.0693 209.09 78.2867 203.714 66.204C199.145 55.9347 188.248 41.931 188.248 41.931L180.086 39.3533C180.086 39.3533 158.605 40.5919 146.576 46.4419Z" fill="#ACAAAA"/>
<path d="M121.658 66.6337C121.658 66.6337 129.813 87.4333 137.339 99.499C143.893 110.005 156.671 124.631 156.671 124.631L164.834 127.209C164.834 127.209 152.056 112.583 145.502 102.077C137.975 90.011 129.821 69.2114 129.821 69.2114L121.658 66.6337Z" fill="#BBB8B8"/>
<path d="M135.836 139.024C135.836 139.024 137.03 142.523 138.413 144.394C139.155 145.396 139.364 146.407 140.561 146.757C141.205 146.945 141.678 147.053 142.28 146.757C142.882 146.46 142.426 145.829 142.065 145.468C141.705 145.107 141.226 145.494 140.777 145.253C140.015 144.846 140.157 144.054 139.702 143.32C139.163 142.449 138.713 142.057 138.199 141.172C137.822 140.523 137.938 139.906 137.34 139.453C136.852 139.085 135.836 139.024 135.836 139.024Z" fill="#D6D6D6"/>
<path d="M129.82 138.379C129.82 138.379 131.067 141.938 131.968 144.179C132.375 145.19 132.446 145.843 133.043 146.756C133.465 147.404 133.629 147.937 134.331 148.26C134.72 148.438 134.978 148.475 135.405 148.475C135.833 148.475 135.644 147.961 135.621 147.615C135.575 146.962 135.793 146.855 135.406 146.327C134.827 145.538 134.512 145.685 134.05 144.823C133.482 143.764 132.92 142.468 132.398 141.386C131.99 140.542 132.386 139.931 131.754 139.238C131.392 138.841 130.642 138.467 129.82 138.379Z" fill="#D6D6D6"/>
<path d="M125.31 132.365C124.991 133.679 124.945 134.45 124.881 135.801C124.777 137.986 124.91 139.242 125.31 141.386C125.568 142.769 125.739 143.574 126.384 144.823C126.8 145.63 126.853 146.368 127.673 146.757C127.986 146.905 128.186 146.971 128.532 146.971C128.532 146.971 127.585 144.128 127.244 142.246C126.972 140.751 126.718 139.895 126.814 138.379C126.907 136.917 127.116 136.082 127.673 134.727C128.363 133.049 130.251 130.861 130.251 130.861L126.384 129.357C126.384 129.357 125.604 131.153 125.31 132.365Z" fill="#D6D6D6"/>
<path d="M142.996 61.6607C142.952 61.3464 143.221 61.0822 143.537 61.1108C145.16 61.2576 146.434 61.2243 148.295 61.0488C152.104 60.6895 154.182 59.8619 157.746 58.4712C159.46 57.8023 160.403 57.3724 162.042 56.5379C165.133 54.965 166.777 53.8806 169.56 51.8122C172.216 49.8385 173.929 48.8836 175.96 46.3426C176.112 46.1534 176.378 46.0923 176.585 46.2179C179.23 47.8201 179.282 50.581 180.515 52.6714C180.515 52.6714 175.439 54.5547 172.568 57.1823C169.458 60.0279 167.309 61.0866 163.331 62.7673C159.586 64.3496 156.839 65.0488 152.806 65.5597C149.294 66.0045 145.502 68.1374 145.502 68.1374C144.163 65.5635 143.324 64.0459 142.996 61.6607Z" fill="url(#paint14_linear)"/>
<path d="M211.233 158.141C211.405 157.149 211.233 155.564 211.233 155.564L226.269 159.43L225.195 163.082C225.195 163.082 230.823 169.141 231.639 174.037C232.069 176.615 230.844 182.414 227.128 182.414C220.47 182.414 217.834 179.402 214.025 174.896C210.626 170.875 207.437 167.504 208.87 162.437C209.391 160.595 210.906 160.028 211.233 158.141Z" fill="#C0C0C0"/>
<path d="M225.195 163.081L226.269 159.43H220.899C220.899 159.43 219.871 161.36 220.04 162.652C220.258 164.315 221.249 165.119 222.617 166.089C224.047 167.101 225.475 166.379 226.914 167.377C228.237 168.296 228.56 169.284 229.491 170.599C230.406 171.891 231.639 174.036 231.639 174.036C230.823 169.14 225.195 163.081 225.195 163.081Z" fill="#9C9C9C"/>
<path d="M211.233 158.141C210.906 160.028 209.391 160.595 208.87 162.437C207.437 167.504 210.626 170.875 214.025 174.896C217.834 179.402 220.47 182.414 227.128 182.414C227.128 182.414 222.501 181.293 220.04 179.622C217.337 177.786 216.187 176.163 214.455 173.392C213.322 171.579 212.53 170.545 212.092 168.452C211.714 166.646 211.501 165.474 212.092 163.726C212.54 162.404 213.468 161.999 214.025 160.719C214.545 159.525 214.885 157.497 214.885 157.497L211.233 155.564C211.233 155.564 211.405 157.149 211.233 158.141Z" fill="#D6D6D6"/>
<path d="M143.225 62.982C144.513 63.4116 147.325 63.6086 149.412 63.4116C153.221 63.0523 155.471 62.4395 159.035 61.0487C160.749 60.3799 161.691 59.9499 163.331 59.1155C166.422 57.5425 168.495 56.2433 171.279 54.1749C174.047 52.118 177.25 49.8788 178.325 47.7307C178.754 48.1603 179.216 49.423 179.7 51.1676C179.7 51.1676 176.557 56.4879 173.685 59.1155C170.576 61.961 168.427 63.0198 164.449 64.7004C160.704 66.2828 157.957 66.982 153.923 67.4929C150.412 67.9377 144.902 66.6337 144.902 66.6337C144.471 66.6337 143.439 64.2708 143.225 62.982Z" fill="url(#paint15_linear)"/>
<path d="M228.417 43.6496C228.417 43.6496 229.893 43.5243 230.78 43.22C231.774 42.879 232.296 42.5535 233.143 41.9312C234.099 41.2287 234.445 40.615 235.291 39.7831C237.83 37.2862 241.95 33.5538 241.95 33.5538C241.95 33.5538 242.748 33.1975 243.239 33.339C243.642 33.4553 243.833 33.6579 244.098 33.9834C244.334 34.2745 244.453 34.4748 244.528 34.8426C244.628 35.3428 244.433 35.6357 244.313 36.1314C243.768 38.3695 241.091 40.9755 241.52 41.2867L241.95 41.5016C242.379 41.5016 244.437 39.4536 246.246 38.4943C247.142 38.0195 247.627 37.6721 248.609 37.4203C249.506 37.1901 250.192 36.7052 250.972 37.2055C251.481 37.5321 251.672 37.9107 251.831 38.4943C251.963 38.9799 251.889 39.2832 251.831 39.7831C251.51 42.5531 246.224 43.8644 246.676 44.7236C246.816 44.9914 246.835 45.2328 247.105 45.3681C247.535 45.5828 249.219 45.3946 250.542 45.1533C252.291 44.8343 253.067 43.797 254.838 43.6496C255.423 43.6009 255.786 43.4607 256.342 43.6496C256.962 43.8604 257.497 44.0823 257.631 44.7236C257.739 45.243 257.449 45.5436 257.201 46.0125C256.757 46.8513 256.232 47.1482 255.483 47.7309C254.298 48.6522 253.436 48.8845 252.046 49.4494C250.028 50.2691 248.583 49.9027 246.676 50.953C245.779 51.4468 244.528 51.4327 244.528 52.4566C244.528 53.9603 248.816 54.6092 249.253 57.1824C249.38 57.9267 249.694 58.5029 249.253 59.1156C248.834 59.6972 248.242 59.643 247.535 59.76C245.781 60.0502 244.946 58.7508 243.239 58.2564C241.421 57.73 240.395 57.3858 238.513 57.1824C236.762 56.993 234.002 57.1824 234.002 57.1824L233.358 46.8717L228.417 43.6496Z" fill="#C0C0C0"/>
<path d="M254.838 43.6495C253.066 43.7969 252.29 44.8342 250.542 45.1532C250.112 45.368 250.111 45.369 249.897 45.5828L249.897 45.5828C249.683 45.7967 249.408 45.9307 249.468 46.2273C249.527 46.5239 249.827 46.5552 250.112 46.6569C250.764 46.8896 251.184 46.4746 251.831 46.2273C252.356 46.0261 252.583 45.7529 253.119 45.5828C253.606 45.4286 253.903 45.4431 254.408 45.368C255.077 45.2686 255.465 45.2911 256.127 45.1532C256.725 45.0287 257.764 45.365 257.63 44.7236C257.497 44.0822 256.962 43.8603 256.341 43.6495C255.785 43.4606 255.423 43.6009 254.838 43.6495Z" fill="#D6D6D6"/>
<path d="M246.246 38.4944C244.527 39.5684 243.453 40.4276 243.453 40.4276C243.453 40.4276 242.979 40.8241 243.238 41.2868C243.577 41.8902 244.297 41.9215 244.957 41.7165C245.472 41.4883 245.736 41.3098 246.246 41.072C246.825 40.8022 247.201 40.7537 247.75 40.4276C248.517 39.9724 248.714 39.3993 249.468 38.924C249.944 38.624 250.446 38.7485 250.757 38.2795C250.994 37.9231 251.752 37.7058 250.972 37.2055C250.192 36.7052 249.507 37.1902 248.609 37.4203C247.627 37.6721 247.106 37.9573 246.246 38.4944Z" fill="#D6D6D6"/>
<path d="M230.78 43.22C229.893 43.5243 229.213 43.153 228.417 43.6496C226.463 44.8695 231.086 47.2519 233.358 46.8717C234.621 46.6604 234.985 45.6846 236.15 45.1533C236.802 44.8558 237.289 44.9307 237.869 44.5088C238.398 44.1232 238.725 43.8379 238.943 43.22C239.288 42.2415 238.14 41.6678 238.298 40.6423C238.491 39.3988 239.484 39.0771 240.231 38.0647C240.909 37.1466 241.159 36.5237 241.95 35.7018C242.695 34.928 244.362 34.3089 244.098 33.9834C243.833 33.6579 243.642 33.4553 243.239 33.339C242.748 33.1975 241.95 33.5538 241.95 33.5538C241.95 33.5538 237.83 37.2862 235.291 39.7831C234.445 40.615 234.099 41.2288 233.143 41.9312C232.296 42.5536 231.774 42.879 230.78 43.22Z" fill="#D6D6D6"/>
<path d="M186.052 183.405C186.791 182.365 188.017 180.795 188.017 180.795L195.875 182.1L200.922 180.266L204.389 172.748C204.389 172.748 205.226 174.855 205.698 176.228C206.162 177.574 206.573 178.3 206.79 179.708C207.222 182.51 206.652 184.214 205.698 186.885C204.287 190.839 202.317 192.588 199.368 195.585C196.515 198.484 191.073 201.892 191.073 201.892C191.073 201.892 185.13 204.747 182.341 202.762C180.841 201.694 180.259 200.605 179.722 198.847C178.807 195.851 180.328 193.936 181.468 191.018C182.731 187.787 184.042 186.235 186.052 183.405Z" fill="#C0C0C0"/>
<path d="M205.698 176.228C205.225 174.855 204.388 172.748 204.388 172.748C204.388 172.748 199.778 177.242 200.922 180.266C201.531 181.876 203.341 181.87 203.929 183.488C204.827 185.957 203.227 187.611 201.996 189.932C201.014 191.785 200.178 192.67 198.774 194.228C197.184 195.993 196.467 196.764 194.907 198.31C193.452 199.752 191.073 201.892 191.073 201.892C191.073 201.892 196.515 198.484 199.368 195.585C202.316 192.588 204.286 190.839 205.698 186.885C206.652 184.214 207.222 182.51 206.79 179.708C206.573 178.3 206.162 177.574 205.698 176.228Z" fill="#9C9C9C"/>
<path d="M186.053 183.405C184.043 186.235 182.731 187.787 181.469 191.018C180.328 193.937 178.808 195.851 179.722 198.848C180.259 200.607 181.16 202.176 182.342 202.763C182.235 202.089 182.018 202.444 181.805 201.102C181.591 199.761 181.299 198.48 181.469 196.806C181.673 194.785 182.239 193.708 183.093 191.866C184.01 189.89 184.478 188.644 186.053 187.14C186.751 186.472 187.221 186.183 188.017 185.636C190.791 183.73 196.409 184.775 195.876 182.1C195.267 179.049 188.017 180.795 188.017 180.795C188.017 180.795 186.791 182.365 186.053 183.405Z" fill="#D6D6D6"/>
<path d="M143.845 65.0576C149.215 65.0576 150.615 65.1079 154.739 64.2709C158.898 63.4265 161.23 62.6854 165.049 60.834C168.546 59.1388 170.468 57.9833 173.427 55.4638C175.957 53.3088 177.938 51.1677 179.226 49.2345C180.086 50.3085 180.043 50.7989 180.945 51.3825C181.26 51.5863 181.448 51.6955 181.804 51.8121C183.344 52.316 184.098 50.6982 185.671 50.3085C187.632 49.8225 188.811 50.0304 190.826 49.8789C195.183 49.5511 197.638 49.5534 201.996 49.2345C205.859 48.9517 208.058 49.025 211.877 48.3752C218.024 47.3293 220.901 43.9614 227.128 43.6495C228.385 43.5866 229.122 43.3764 230.35 43.6495C233.077 44.2559 234.064 46.1256 235.72 48.3752C236.899 49.9767 237.766 50.9229 238.083 52.8862C238.453 55.1767 238.341 56.956 236.794 58.6859C235.059 60.6278 232.757 59.409 230.35 60.4044C227.638 61.5259 226.716 63.4235 223.906 64.2709C222.043 64.8326 220.849 64.4289 218.965 64.9153C215.587 65.7875 214.26 67.7068 211.018 68.9966C208.725 69.9086 207.428 70.4757 205.003 70.9298C203.264 71.2556 202.258 71.2495 200.492 71.3594C197.143 71.5679 196.84 70.5002 192.759 71.3594C192.759 72.4335 192.782 72.8221 193.404 73.7223C194.758 75.6847 195.804 76.5675 197.27 78.448C202.563 85.2373 203.236 90.8095 209.299 96.9213C210.046 97.6742 210.666 97.9218 211.259 98.8009C212.081 100.019 211.596 101.144 212.36 102.399C213.611 104.455 215.299 104.782 217.422 105.916C218.996 106.758 220.1 106.786 221.624 107.715C223.444 108.826 224.213 109.816 225.732 111.313C226.989 112.553 227.54 113.397 228.793 114.643C230.553 116.393 232.063 116.861 233.572 118.831C234.896 120.559 235.519 121.689 236.15 123.772C236.666 125.475 236.889 126.506 236.794 128.283C236.683 130.377 235.87 131.423 235.291 133.438C233.992 137.957 233.669 140.617 232.069 145.038C230.471 149.451 228.471 151.496 227.128 155.993C226.487 158.138 227.415 159.988 225.839 161.578C224.419 163.01 222.915 163.044 220.899 163.081C218.905 163.118 217.739 162.69 215.958 161.793C214.722 161.169 214.002 160.766 213.058 159.752C211.921 158.529 210.357 157.651 210.158 155.993C209.514 150.623 210.488 148.776 211.662 144.393C212.243 142.226 213.605 141.265 213.703 139.023C213.782 137.223 213.52 136.134 212.736 134.512C208.655 132.149 206.292 132.149 198.559 130.646C198.129 130.646 196.84 130.646 195.981 134.727C195.552 137.52 196.315 140.259 197.27 143.964C198.154 147.392 198.402 149.38 199.418 152.771C200.782 157.323 202.119 159.679 203.714 164.156C204.489 166.33 205.325 167.455 205.648 169.74C205.882 171.402 205.923 172.382 205.648 174.037C205.154 176.997 204.449 178.841 202.64 181.34C201.7 182.638 201.271 183.611 199.848 184.347C198.276 185.161 197.106 184.74 195.337 184.777C193.657 184.811 192.691 184.875 191.041 184.562C189.659 184.3 188.765 184.282 187.604 183.488C186.522 182.748 186.233 181.966 185.456 180.91C183.032 177.616 182.123 175.301 180.515 171.459C178.456 166.537 177.805 163.564 176.649 158.356C176.167 156.188 176.055 154.939 175.575 152.771C174.633 148.518 175.059 147.585 172.997 143.749C171.801 141.524 169.795 139.093 168.808 136.768C167.857 134.526 168.272 132.831 167.197 130.646C165.809 127.824 165.909 130.646 162.686 124.202C159.797 118.422 156.242 116.039 154.524 109.81C154.226 108.731 154.111 108.112 153.879 107.017C153.597 105.681 153.5 104.92 153.235 103.58C152.5 99.8672 152.161 95.6325 151.087 94.1288C150.67 94.0849 150.432 94.1076 150.013 94.1288C146.576 94.3035 149.426 106.992 146.146 114.321C145.533 115.69 144.83 116.312 144.428 117.757C143.867 119.778 144.869 121.077 144.428 123.128C143.939 125.402 143.385 126.75 141.85 128.498C140.499 130.037 139.501 130.87 137.554 131.505C135.481 132.181 134.14 131.716 131.969 131.505C130.102 131.324 128.865 131.59 127.243 130.646C125.858 129.839 125.064 129.119 124.451 127.639C123.777 126.011 124.641 124.879 124.451 123.128C124.276 121.508 123.85 120.654 123.592 119.046C123.364 117.629 122.968 116.817 123.162 115.395C123.306 114.343 123.774 113.849 124.021 112.817C124.395 111.258 124.416 110.338 124.451 108.736C124.495 106.716 123.922 105.598 124.021 103.58C124.084 102.312 124.287 101.617 124.451 100.358C124.899 96.9224 124.552 94.8767 125.525 91.5512C125.875 90.3542 126.061 89.669 126.599 88.5439C127.151 87.3886 127.607 86.8167 128.318 85.7514C129.183 84.4533 129.826 83.8351 130.68 82.5293C132.529 79.7039 132.761 77.662 134.547 74.7963C135.408 73.4139 135.85 72.5965 136.91 71.3594C138.734 69.2301 139.773 67.5211 142.495 66.8485C142.99 66.7261 143.407 66.9786 143.784 66.6337C144.221 66.2328 143.684 65.6286 143.845 65.0576Z" fill="url(#paint16_linear)"/>
<path d="M211.261 98.8009C210.667 97.9219 210.047 97.6743 209.3 96.9214C203.237 90.8096 202.565 85.2374 197.271 78.4481C195.805 76.5676 194.759 75.6848 193.405 73.7224C192.784 72.8222 192.76 71.3595 192.76 71.3595C192.76 71.3595 190.61 70.9 189.538 70.0707C187.14 68.2158 188.034 62.5524 187.604 62.5525C183.037 62.5529 188.278 69.6604 189.109 74.152C189.608 76.854 189.811 78.3974 190.612 81.0258C192.046 85.7277 193.302 88.2896 195.982 92.4105C199.059 97.1409 200.714 100.413 205.649 103.151C209.779 105.442 219.546 107.051 217.423 105.916C215.3 104.782 213.613 104.455 212.361 102.399C211.598 101.144 212.083 100.019 211.261 98.8009Z" fill="url(#paint17_linear)"/>
<path d="M192.759 71.3595C196.84 70.5003 197.143 71.568 200.492 71.3595C203.841 71.151 196.851 70.5087 194.907 69.2114C193.476 68.2559 192.828 67.4907 191.685 66.2042C190.448 64.8119 187.604 62.5525 187.604 62.5525C187.604 62.5525 187.516 64.9572 187.819 66.2042C188.17 67.6486 188.018 68.7647 189.108 69.8559C190.143 70.8923 192.759 71.3595 192.759 71.3595Z" fill="url(#paint18_linear)"/>
<path d="M198.559 130.646C206.292 132.15 208.655 132.15 212.736 134.512C213.52 136.135 213.782 137.224 213.703 139.023C213.605 141.265 212.243 142.226 211.662 144.394C210.489 148.776 209.514 150.623 210.159 155.993C210.358 157.651 211.921 158.529 213.059 159.752C214.197 160.975 214.643 158.877 214.67 157.926C214.697 156.944 213.545 156.847 213.059 155.993C212.052 154.225 212.167 152.867 212.307 150.838C212.491 148.164 213.819 146.935 214.67 144.394C215.698 141.323 217.574 139.638 217.033 136.446C216.592 133.85 215.584 132.372 213.596 130.646C211.132 128.507 208.909 127.954 205.648 128.068C202.704 128.172 199.203 129.142 198.559 130.646Z" fill="#B26F34"/>
<path d="M166.111 80.5963L166.97 79.9519C166.97 79.9519 167.268 83.3557 167.185 85.5368C167.101 87.7308 167.163 89.0163 166.54 91.1218C165.72 93.8957 164.028 94.907 162.889 97.5659C162.189 99.1999 161.385 101.862 161.385 101.862C161.385 101.862 160.041 96.1926 160.741 94.5587C161.88 91.8997 163.572 90.8884 164.392 88.1145C165.015 86.009 164.953 84.7235 165.037 82.5296C166.111 80.5963 166.111 80.5963 166.111 80.5963Z" fill="#D18643"/>
<path d="M143.784 66.6337C143.407 66.9786 142.99 66.7261 142.495 66.8485C139.773 67.5212 138.734 69.2301 136.91 71.3595C135.85 72.5965 135.408 73.4139 134.547 74.7963C132.761 77.662 132.529 79.704 130.68 82.5293C129.826 83.8351 129.183 84.4533 128.318 85.7514C127.607 86.8167 127.151 87.3887 126.599 88.5439C126.061 89.669 125.875 90.3543 125.525 91.5512C124.552 94.8767 124.899 96.9224 124.451 100.358C124.287 101.617 124.084 102.312 124.021 103.58C123.922 105.598 124.495 106.716 124.451 108.736C124.416 110.338 124.395 111.259 124.021 112.817C123.774 113.849 123.306 114.343 123.162 115.395C122.968 116.817 123.364 117.629 123.592 119.046C123.85 120.654 124.276 121.508 124.451 123.128C124.641 124.879 123.777 126.011 124.451 127.639C125.064 129.119 125.858 129.839 127.243 130.646C128.865 131.59 130.102 131.324 131.969 131.505C133.836 131.686 132.276 122.957 133.043 117.543C134.008 110.732 135.035 106.977 136.91 100.358C138.746 93.8751 139.903 90.2527 142.495 84.033C145.424 77.0033 158.332 69.5617 151.302 66.6337H143.784Z" fill="#E5A064"/>
<path d="M191.041 184.562C192.691 184.875 195.337 184.777 195.337 184.777C199.61 183.311 192.617 178.27 191.041 174.036C189.615 170.208 188.78 168.068 187.604 164.155C186.655 160.999 186.966 158.923 185.456 155.993C184.249 153.651 182.609 152.949 181.375 150.623C179.208 146.539 179.439 143.626 179.012 139.023C178.648 135.097 179.012 132.87 179.012 128.927C179.012 125.823 179.28 124.072 179.012 120.979C178.784 118.355 179.677 116.298 177.938 114.32C176.548 112.741 175.098 98.8021 172.997 98.6856C170.586 98.5518 169.142 99.4008 167.197 100.834C163.783 103.35 159.464 117.757 162.687 124.202C165.909 130.646 165.809 127.824 167.197 130.646C168.272 132.831 167.857 134.526 168.808 136.768C169.795 139.093 171.801 141.524 172.997 143.749C175.06 147.585 174.633 148.518 175.575 152.771C176.055 154.939 176.168 156.187 176.649 158.356L176.682 158.507C177.818 163.622 178.476 166.585 180.515 171.459C182.123 175.301 182.956 177.579 185.456 180.91C186.243 181.958 186.522 182.748 187.604 183.488C188.765 184.282 189.659 184.3 191.041 184.562Z" fill="#E5A064"/>
<path d="M168.221 65.7855L168.952 65.334C168.952 65.334 172.805 70.2325 174.969 73.581C179.008 79.8326 179.969 84.0747 183.562 90.5929C185.507 94.1211 186.778 95.9972 188.718 99.5284C191.564 104.711 193.903 107.352 195.592 113.018C197.109 118.107 197.311 126.508 197.311 126.508L196.58 126.959C196.58 126.959 196.378 118.559 194.861 113.47C193.172 107.803 190.833 105.162 187.987 99.9799C186.047 96.4487 184.776 94.5726 182.831 91.0444C179.238 84.5262 178.277 80.2842 174.238 74.0325C172.074 70.684 168.221 65.7855 168.221 65.7855Z" fill="url(#paint19_linear)"/>
<path d="M180.515 51.1678C180.515 51.1678 181.163 51.5771 181.589 51.7263C182.449 52.027 182.415 51.8972 182.878 51.8121C183.738 51.5974 184.117 50.8851 185.026 50.5233C185.594 50.2974 185.932 50.2187 186.53 50.0937C187.601 49.8698 188.231 49.9493 189.322 49.8789C191.333 49.7492 192.465 49.7543 194.478 49.6641C196.24 49.5851 197.228 49.551 198.989 49.4493C201.34 49.3134 202.653 49.1691 205.003 49.0196C206.429 48.929 208.655 48.8048 208.655 48.8048C209.046 49.2099 209.13 49.557 209.299 50.0937C209.978 52.248 208.766 53.8846 207.151 55.4638C205.33 57.2446 203.452 57.1056 200.922 57.397C197.645 57.7744 195.826 56.6594 192.545 56.323C186.61 55.7147 177.293 55.4638 177.293 55.4638L179.227 53.3157L180.515 51.1678Z" fill="#E49046"/>
<path d="M143.999 66.2043C143.999 66.2043 157.223 66.9327 164.941 63.8414C172.371 60.8659 180.644 51.1679 180.644 51.1679C180.836 51.3189 180.948 51.3972 181.159 51.5245C181.159 51.5245 172.785 61.3797 165.479 64.4858C157.559 67.8528 143.783 66.6339 143.783 66.6339C143.936 66.4914 143.968 66.3945 143.999 66.2043Z" fill="url(#paint20_linear)"/>
<path d="M143.999 66.2043C143.999 66.2043 157.223 66.9327 164.941 63.8414C172.371 60.8659 180.644 51.1679 180.644 51.1679C180.836 51.3189 180.948 51.3972 181.159 51.5245C181.159 51.5245 172.785 61.3797 165.479 64.4858C157.559 67.8528 143.783 66.6339 143.783 66.6339C143.936 66.4914 143.968 66.3945 143.999 66.2043Z" fill="url(#paint21_linear)"/>
<path d="M149.369 79.9519H149.799C149.799 79.9519 151.674 84.5726 151.732 87.6849C151.779 90.2259 150.658 94.1033 150.658 94.1033C150.241 94.1173 150.411 94.1162 150.228 94.1162C150.228 94.1162 151.383 90.098 151.302 87.4701C151.209 84.44 149.369 79.9519 149.369 79.9519Z" fill="url(#paint22_linear)"/>
<path d="M116.928 25.4333C117.524 22.6212 118.217 21.0768 119.684 18.5595C121.067 16.1875 122.115 14.9808 124.049 12.9745C126.78 10.1427 128.624 8.7543 132.09 6.74517C135.435 4.80632 137.533 4.00512 141.279 2.87867C145.366 1.64974 147.787 1.10572 152.077 0.945419C155.494 0.817728 157.452 0.966649 160.807 1.58984C162.813 1.96264 163.975 2.13729 165.861 2.87867C167.676 3.59245 168.654 4.13152 170.226 5.24153C174.237 8.07467 175.335 10.9155 177.577 15.1226C178.744 17.3115 179.259 18.6078 180.104 20.9223C180.976 23.3106 181.516 24.6598 181.942 27.1517C182.551 30.7136 182.947 32.9057 181.942 36.3883C181.127 39.2138 180.074 40.6583 178.266 43.0473C176.652 45.1802 175.573 46.2983 173.442 47.9879C170.801 50.0811 168.906 50.7442 165.861 52.284C162.118 54.1763 160.032 55.3612 155.982 56.5801C150.124 58.343 146.366 59.77 140.36 58.5133C137.222 57.8566 135.504 57.1034 132.779 55.5061C130.619 54.2394 129.555 53.3002 127.725 51.6395C123.848 48.1217 121.865 45.7357 119.684 41.1141C117.006 35.4361 115.636 31.5206 116.928 25.4333Z" fill="url(#paint23_linear)"/>
<path d="M120.762 38.3214L131.287 55.5059C131.287 55.5059 128.12 55.6627 126.347 54.8614C124.346 53.9573 123.553 52.7731 122.265 50.9949C121.011 49.2628 120.436 48.1255 119.903 46.0544C119.212 43.3737 120.762 38.3214 120.762 38.3214Z" fill="#B7B6B2"/>
<path d="M175.575 16.5842C175.575 16.5842 179.947 18.1144 181.123 18.9892C182.123 19.7337 182.58 20.3139 183.271 21.352C184.359 22.9868 184.703 24.135 184.989 26.0777C185.197 27.4885 185.197 28.3186 184.989 29.7294C184.703 31.6721 181.123 37.6352 181.123 37.6352L175.575 16.5842Z" fill="#B7B7C3"/>
<g filter="url(#filter1_f)">
<path d="M179.834 20.953L180.788 20.2779C180.788 20.2779 181.723 21.757 182.22 22.7533C182.898 24.112 183.208 24.9114 183.651 26.3538C183.865 27.0499 184.237 27.4367 184.128 28.1541C184.022 28.8555 183.174 29.7294 183.174 29.7294C183.174 29.7294 182.689 27.5089 182.22 26.1288C181.506 24.0301 179.834 20.953 179.834 20.953Z" fill="#62635E" fill-opacity="0.5"/>
</g>
<path d="M120.332 28.8701C120.89 26.058 121.538 24.5137 122.91 21.9963C124.203 19.6244 125.183 18.4176 126.991 16.4114C129.545 13.5796 131.269 12.1911 134.51 10.182C137.637 8.24316 139.599 7.44196 143.102 6.31551C146.923 5.08658 149.187 4.54257 153.198 4.38226C156.393 4.25457 158.224 4.40349 161.36 5.02668C163.237 5.39949 164.323 5.57413 166.086 6.31551C167.784 7.02929 168.698 7.56837 170.167 8.67837C173.918 11.5115 174.944 14.3523 177.041 18.5594C178.132 20.7483 178.614 22.0446 179.404 24.3592C180.219 26.7475 180.724 28.0966 181.122 30.5885C181.692 34.1505 182.062 36.3426 181.122 39.8252C180.36 42.6506 179.376 44.0952 177.686 46.4842C176.177 48.617 175.168 49.7352 173.175 51.4247C170.706 53.5179 168.933 54.181 166.086 55.7208C162.587 57.6132 160.636 58.7981 156.849 60.0169C151.372 61.7799 147.858 63.2069 142.243 61.9502C139.308 61.2934 137.702 60.5402 135.154 58.9429C133.134 57.6762 132.14 56.737 130.428 55.0764C126.803 51.5585 124.949 49.1726 122.91 44.5509C120.405 38.8729 119.125 34.9574 120.332 28.8701Z" fill="url(#paint24_linear)"/>
<path d="M128.495 32.7366C130.428 29.5146 131.19 28.4099 133.436 26.0777C136.008 23.4069 137.78 22.1943 140.954 20.2779C144.039 18.4157 145.945 17.6428 149.332 16.4114C154.057 14.693 156.42 14.2633 160.287 14.2634C163.019 14.2634 164.85 15.964 166.516 18.1298C168.664 20.9223 169.15 21.5621 170.812 24.7888C172.139 27.3647 173.605 31.6626 173.605 31.6626C173.605 31.6626 174.613 35.3138 173.605 37.2475C171.027 42.1881 166.453 46.142 160.287 49.7063C153.852 53.4258 151.909 54.8616 142.028 54.432C137.302 53.358 130.078 46.3963 128.495 38.1068C128.163 36.3686 127.585 34.254 128.495 32.7366Z" fill="url(#paint25_linear)"/>
<path d="M137.732 22.2113C140.843 19.8922 142.972 18.801 146.539 17.2709C150.002 15.7851 152.036 14.9408 155.775 14.4783C157.11 14.3133 159.212 14.2636 159.212 14.2636C159.212 14.2636 151.222 22.6281 148.472 29.2999C145.439 36.6598 145.68 49.4917 145.68 49.4917L136.658 50.3509C136.658 50.3509 128.666 36.6336 129.999 31.0184C130.428 29.2086 131.646 27.8224 133.221 26.0779C134.77 24.3623 135.879 23.5925 137.732 22.2113Z" fill="url(#paint26_linear)"/>
<path fill-rule="evenodd" clip-rule="evenodd" d="M132.779 25.7228C130.449 28.1546 129.659 29.3065 127.654 32.6661C126.814 34.0732 127.196 35.9726 127.533 37.6506C127.575 37.8595 127.616 38.065 127.654 38.2656C129.296 46.9091 136.79 54.1681 141.692 55.2879C151.454 55.7146 153.746 54.3769 159.709 50.8979L160.632 50.3604C167.028 46.644 171.773 42.5212 174.446 37.3697C175.493 35.3534 174.446 31.5462 174.446 31.5462C174.446 31.5462 172.926 27.0648 171.55 24.3789C169.826 21.0144 169.322 20.3473 167.094 17.4356C165.366 15.1772 163.466 13.404 160.632 13.404C156.621 13.404 154.17 13.8519 149.268 15.6437C145.755 16.9277 143.778 17.7336 140.578 19.6753C137.285 21.6736 135.448 22.938 132.779 25.7228ZM133.435 26.0775C131.189 28.4097 130.428 29.5144 128.495 32.7364C127.686 34.0856 128.053 35.9068 128.378 37.5157C128.418 37.7164 128.458 37.9139 128.495 38.1066C130.078 46.3961 137.302 53.3579 142.028 54.4318C151.438 54.8411 153.649 53.5581 159.397 50.2216C159.684 50.0549 159.98 49.8831 160.286 49.7061C166.452 46.1419 171.026 42.1879 173.604 37.2474C174.613 35.3137 173.604 31.6624 173.604 31.6624C173.604 31.6624 172.138 27.3646 170.812 24.7886C169.15 21.5619 168.664 20.9222 166.515 18.1296C164.849 15.9638 163.019 14.2632 160.286 14.2632C156.42 14.2632 154.057 14.6928 149.331 16.4112C145.945 17.6426 144.038 18.4155 140.954 20.2777C137.779 22.1941 136.008 23.4068 133.435 26.0775Z" fill="url(#paint27_linear)"/>
<path d="M225.598 134.956C227.405 133.253 229.424 129.787 229.424 129.787C229.424 129.787 228.999 131.131 228.659 131.963C227.874 133.885 227.165 134.781 225.598 136.045C224.037 137.304 221.261 137.949 221.261 137.949C221.261 137.949 224.086 136.381 225.598 134.956Z" fill="#AC7341"/>
<ellipse rx="4.27281" ry="4.26958" transform="matrix(0.777144 -0.629323 0.629318 0.777148 178.758 66.484)" fill="#59C7EA"/>
<path d="M176.144 69.8512L176.474 68.3602L177.15 68.3591L177.512 67.3895L178.333 67.2453L177.428 66.546L180.596 66.5324L178.806 65.8988L178.021 64.0608L180.04 64.4305L180.347 63.8438L182.397 64.1881L183.048 65.2493L183.298 66.4268L182.471 68.9451L180.867 70.3746L178.878 70.9435L176.627 70.4488L176.144 69.8512Z" fill="#DBDBDB"/>
<path fill-rule="evenodd" clip-rule="evenodd" d="M180.663 66.5295L178.271 66.5509L177.559 66.57L178.415 67.2353L177.802 67.5227L177.337 68.5537L176.572 68.6583L176.112 70.0058L176.218 67.9053L177.034 68.1799L177.125 66.2121L178.12 66.3648L178.085 65.4347L177.729 63.6465L178.628 63.7895L179.815 64.2516L179.926 63.5376C181.521 63.9202 182.345 64.137 182.397 64.1879C182.45 64.2387 181.784 64.185 180.399 64.0268L181.184 65.1703L179.645 64.8808L178.24 64.2776L178.617 65.2216L180.042 65.5352L178.909 65.9299L180.663 66.5295Z" fill="white"/>
<path fill-rule="evenodd" clip-rule="evenodd" d="M176.986 66.1246C176.986 66.1246 176.4 66.2378 176.149 66.4861C175.898 66.7344 175.762 66.8449 175.762 66.8449C175.762 66.8449 176.087 67.0786 176.383 67.1096C176.678 67.1008 176.652 67.1626 176.652 67.1626C175.908 70.6546 178.408 72.2615 181.43 69.8147C181.43 69.8147 180.252 69.5186 179.723 69.217C179.059 68.8181 179.307 68.0542 179.307 68.0542C179.307 68.0542 179.733 67.6844 180.601 67.7626C181.016 67.7999 181.356 67.5712 181.38 67.533C181.44 67.4395 181.318 67.1771 181.318 67.1771C181.318 67.1771 181.471 67.1433 181.524 66.8743C181.578 66.6054 181.422 66.1897 181.422 66.1897C181.422 66.1897 180.7 66.0974 180.431 66.0443C180.162 65.9912 179.753 65.8994 179.5 65.6982C179.247 65.4969 178.414 65.2529 178.414 65.2529C176.366 64.3336 175.278 65.371 174.933 66.4219C174.783 66.9401 174.825 67.7093 175.825 68.0489C175.254 67.4365 175.23 67.0526 175.276 66.8144C175.434 66.0118 176.311 65.4982 176.986 66.1246Z" fill="#BC0624"/>
<g filter="url(#filter2_i)">
<path d="M174.934 66.421C175.238 65.3698 176.308 64.5888 177.676 64.991C177.676 64.991 177.171 65.25 177.044 65.5553C176.958 65.7612 176.986 66.1236 176.986 66.1236C176.312 65.4972 175.434 66.0109 175.277 66.8135C175.23 67.0517 175.255 67.4356 175.826 68.048C174.825 67.7084 174.784 66.9392 174.934 66.421Z" fill="#7B5C46"/>
<path d="M174.934 66.421C175.238 65.3698 176.308 64.5888 177.676 64.991C177.676 64.991 177.171 65.25 177.044 65.5553C176.958 65.7612 176.986 66.1236 176.986 66.1236C176.312 65.4972 175.434 66.0109 175.277 66.8135C175.23 67.0517 175.255 67.4356 175.826 68.048C174.825 67.7084 174.784 66.9392 174.934 66.421Z" fill="url(#paint28_linear)"/>
</g>
<path d="M181.187 66.4254C181.169 66.4035 181.165 66.3735 181.177 66.3478L181.221 66.2514C181.229 66.2341 181.24 66.2188 181.255 66.2069C181.281 66.186 181.314 66.1765 181.347 66.1805L181.422 66.1896L181.449 66.232C181.456 66.2432 181.462 66.2553 181.466 66.268C181.495 66.3612 181.424 66.4554 181.327 66.4541L181.244 66.4529C181.222 66.4526 181.201 66.4425 181.187 66.4254Z" fill="#1C1C21"/>
<mask id="mask0" mask-type="alpha" maskUnits="userSpaceOnUse" x="174" y="64" width="4" height="5">
<path d="M174.933 66.4216C175.237 65.3704 176.307 64.5896 177.675 64.9918L176.986 66.1242C176.311 65.4978 175.433 66.0115 175.276 66.814C175.229 67.0522 175.254 67.4362 175.825 68.0486C174.825 67.709 174.783 66.9398 174.933 66.4216Z" fill="#7B5C46"/>
<path d="M174.933 66.4216C175.237 65.3704 176.307 64.5896 177.675 64.9918L176.986 66.1242C176.311 65.4978 175.433 66.0115 175.276 66.814C175.229 67.0522 175.254 67.4362 175.825 68.0486C174.825 67.709 174.783 66.9398 174.933 66.4216Z" fill="url(#paint29_linear)"/>
</mask>
<g mask="url(#mask0)">
<path d="M177.115 64.8724C176.783 65.386 176.667 65.638 176.756 65.9562" stroke="#372620" stroke-width="0.1" stroke-miterlimit="2.6131"/>
<path d="M177.115 64.8724C176.783 65.386 176.667 65.638 176.756 65.9562" stroke="url(#paint30_linear)" stroke-width="0.1" stroke-miterlimit="2.6131"/>
<path d="M176.476 64.921C176.402 65.2712 176.306 65.5127 176.443 65.8581" stroke="#372620" stroke-width="0.1" stroke-miterlimit="2.6131"/>
<path d="M176.476 64.921C176.402 65.2712 176.306 65.5127 176.443 65.8581" stroke="url(#paint31_linear)" stroke-width="0.1" stroke-miterlimit="2.6131"/>
<path d="M175.808 65.2146C175.852 65.5091 175.916 65.6508 176.112 65.885" stroke="#372620" stroke-width="0.1" stroke-miterlimit="2.6131"/>
<path d="M175.808 65.2146C175.852 65.5091 175.916 65.6508 176.112 65.885" stroke="url(#paint32_linear)" stroke-width="0.1" stroke-miterlimit="2.6131"/>
<path d="M175.4 65.5434C175.539 65.7877 175.61 65.8651 175.825 66.0278" stroke="#372620" stroke-width="0.1" stroke-miterlimit="2.6131"/>
<path d="M175.4 65.5434C175.539 65.7877 175.61 65.8651 175.825 66.0278" stroke="url(#paint33_linear)" stroke-width="0.1" stroke-miterlimit="2.6131"/>
<path d="M175.164 65.8453C175.275 66.0573 175.37 66.1446 175.581 66.2515" stroke="#372620" stroke-width="0.1" stroke-miterlimit="2.6131"/>
<path d="M175.164 65.8453C175.275 66.0573 175.37 66.1446 175.581 66.2515" stroke="url(#paint34_linear)" stroke-width="0.1" stroke-miterlimit="2.6131"/>
<path d="M174.953 66.2448C174.916 66.3192 175.421 66.6437 175.38 66.5343" stroke="#372620" stroke-width="0.1" stroke-miterlimit="2.6131"/>
<path d="M174.953 66.2448C174.916 66.3192 175.421 66.6437 175.38 66.5343" stroke="url(#paint35_linear)" stroke-width="0.1" stroke-miterlimit="2.6131"/>
<path d="M174.84 66.7029C175.002 66.8116 175.102 66.8501 175.291 66.8683" stroke="#372620" stroke-width="0.1" stroke-miterlimit="2.6131"/>
<path d="M174.84 66.7029C175.002 66.8116 175.102 66.8501 175.291 66.8683" stroke="url(#paint36_linear)" stroke-width="0.1" stroke-miterlimit="2.6131"/>
</g>
<path d="M181.43 69.8152C178.347 70.4365 177.837 68.1245 177.967 66.8908C177.913 67.4032 178.297 67.856 178.511 68.0127C178.699 68.1936 179.106 68.1526 179.293 68.105C179.184 68.587 179.446 68.9742 179.605 69.1059C179.823 69.2872 181.43 69.8152 181.43 69.8152Z" fill="#8F0018"/>
<g filter="url(#filter3_i)">
<path fill-rule="evenodd" clip-rule="evenodd" d="M179.301 66.2584C179.301 66.2584 179.089 66.1628 178.996 66.2216C178.903 66.2804 178.905 66.3459 178.838 66.4016C178.77 66.4571 178.719 66.4636 178.719 66.4636C178.719 66.4636 178.887 66.5459 179.027 66.4905C179.168 66.4351 179.274 66.3371 179.274 66.3371L179.301 66.2584Z" fill="#A4001B"/>
</g>
<g filter="url(#filter4_i)">
<path fill-rule="evenodd" clip-rule="evenodd" d="M180.548 67.3211C180.548 67.3211 180.572 67.2553 180.841 67.2103C181.11 67.1654 181.317 67.1775 181.317 67.1775" fill="#AD0420"/>
</g>
<path d="M176.652 67.1636C176.823 67.2168 176.947 67.1993 177.084 67.1528C176.92 67.2654 176.77 67.312 176.63 67.2708C176.636 67.2408 176.645 67.1938 176.652 67.1636Z" fill="url(#paint37_linear)" fill-opacity="0.3"/>
<g filter="url(#filter5_i)">
<path d="M175.977 66.9744C175.977 66.9744 176.027 66.9975 176.19 66.8165C176.353 66.6356 176.496 66.5032 176.75 66.4883C176.778 66.4867 177.206 66.5943 177.219 66.2335C177.255 66.2695 177.125 66.6876 177.297 66.9647C177.027 67.3394 176.652 67.1636 176.652 67.1636C176.652 67.1636 176.607 67.1157 176.383 67.1102C176.16 67.1046 175.977 66.9744 175.977 66.9744Z" fill="#AD0420"/>
</g>
<g filter="url(#filter6_i)">
<path d="M178.956 66.3363C179.039 66.2102 179.184 66.2705 179.184 66.2705C179.143 66.2498 179.011 66.3216 179.036 66.3814C179.054 66.4239 179.171 66.336 179.178 66.3273C179.174 66.335 179.057 66.4524 178.996 66.4638C178.934 66.4752 178.819 66.462 178.819 66.462C178.874 66.457 178.942 66.3579 178.956 66.3363Z" fill="#810016"/>
</g>
<path fill-rule="evenodd" clip-rule="evenodd" d="M181.7 70.1168C183.708 68.4909 184.019 65.5466 182.394 63.5403C180.769 61.5341 177.825 61.2258 175.817 62.8516C173.809 64.4774 173.499 67.4218 175.123 69.428C176.748 71.4342 179.692 71.7426 181.7 70.1168ZM181.446 69.8023C183.279 68.3172 183.563 65.6277 182.079 63.7952C180.595 61.9627 177.906 61.681 176.072 63.1661C174.238 64.6512 173.954 67.3406 175.438 69.1731C176.922 71.0057 179.612 71.2873 181.446 69.8023Z" fill="#BC0624"/>
<path fill-rule="evenodd" clip-rule="evenodd" d="M181.7 70.1168C183.708 68.4909 184.019 65.5466 182.394 63.5403C180.769 61.5341 177.825 61.2258 175.817 62.8516C173.809 64.4774 173.499 67.4218 175.123 69.428C176.748 71.4342 179.692 71.7426 181.7 70.1168ZM181.446 69.8023C183.279 68.3172 183.563 65.6277 182.079 63.7952C180.595 61.9627 177.906 61.681 176.072 63.1661C174.238 64.6512 173.954 67.3406 175.438 69.1731C176.922 71.0057 179.612 71.2873 181.446 69.8023Z" fill="url(#paint38_linear)"/>
<g filter="url(#filter7_d)">
<path d="M338.744 278.133V245.315H267.714L260.745 227.557L311.771 111.345H351.332L306.825 212.272H338.744V183.95L346.162 163.495H377.631V212.272H392.691V239.246L377.631 245.315V278.133H338.744Z" fill="#3E404E"/>
</g>
<defs>
<filter id="filter0_d" x="94.9465" y="110.792" width="187.827" height="180.56" filterUnits="userSpaceOnUse" color-interpolation-filters="sRGB">
<feFlood flood-opacity="0" result="BackgroundImageFix"/>
<feColorMatrix in="SourceAlpha" type="matrix" values="0 0 0 0 0 0 0 0 0 0 0 0 0 0 0 0 0 0 127 0"/>
<feOffset dx="-7"/>
<feGaussianBlur stdDeviation="2"/>
<feColorMatrix type="matrix" values="0 0 0 0 0 0 0 0 0 0 0 0 0 0 0 0 0 0 0.4 0"/>
<feBlend mode="normal" in2="BackgroundImageFix" result="effect1_dropShadow"/>
<feBlend mode="normal" in="SourceGraphic" in2="effect1_dropShadow" result="shape"/>
</filter>
<filter id="filter1_f" x="175.834" y="16.2779" width="12.3136" height="17.4515" filterUnits="userSpaceOnUse" color-interpolation-filters="sRGB">
<feFlood flood-opacity="0" result="BackgroundImageFix"/>
<feBlend mode="normal" in="SourceGraphic" in2="BackgroundImageFix" result="shape"/>
<feGaussianBlur stdDeviation="2" result="effect1_foregroundBlur"/>
</filter>
<filter id="filter2_i" x="174.869" y="64.8835" width="2.80693" height="7.16456" filterUnits="userSpaceOnUse" color-interpolation-filters="sRGB">
<feFlood flood-opacity="0" result="BackgroundImageFix"/>
<feBlend mode="normal" in="SourceGraphic" in2="BackgroundImageFix" result="shape"/>
<feColorMatrix in="SourceAlpha" type="matrix" values="0 0 0 0 0 0 0 0 0 0 0 0 0 0 0 0 0 0 127 0" result="hardAlpha"/>
<feOffset dy="4"/>
<feGaussianBlur stdDeviation="2"/>
<feComposite in2="hardAlpha" operator="arithmetic" k2="-1" k3="1"/>
<feColorMatrix type="matrix" values="0 0 0 0 0 0 0 0 0 0 0 0 0 0 0 0 0 0 0.35 0"/>
<feBlend mode="normal" in2="shape" result="effect1_innerShadow"/>
</filter>
<filter id="filter3_i" x="178.719" y="66.2025" width="0.581268" height="0.807165" filterUnits="userSpaceOnUse" color-interpolation-filters="sRGB">
<feFlood flood-opacity="0" result="BackgroundImageFix"/>
<feBlend mode="normal" in="SourceGraphic" in2="BackgroundImageFix" result="shape"/>
<feColorMatrix in="SourceAlpha" type="matrix" values="0 0 0 0 0 0 0 0 0 0 0 0 0 0 0 0 0 0 127 0" result="hardAlpha"/>
<feOffset dy="0.5"/>
<feGaussianBlur stdDeviation="0.25"/>
<feComposite in2="hardAlpha" operator="arithmetic" k2="-1" k3="1"/>
<feColorMatrix type="matrix" values="0 0 0 0 0 0 0 0 0 0 0 0 0 0 0 0 0 0 0.05 0"/>
<feBlend mode="normal" in2="shape" result="effect1_innerShadow"/>
</filter>
<filter id="filter4_i" x="180.548" y="67.176" width="0.769223" height="0.245119" filterUnits="userSpaceOnUse" color-interpolation-filters="sRGB">
<feFlood flood-opacity="0" result="BackgroundImageFix"/>
<feBlend mode="normal" in="SourceGraphic" in2="BackgroundImageFix" result="shape"/>
<feColorMatrix in="SourceAlpha" type="matrix" values="0 0 0 0 0 0 0 0 0 0 0 0 0 0 0 0 0 0 127 0" result="hardAlpha"/>
<feOffset dy="0.1"/>
<feGaussianBlur stdDeviation="0.05"/>
<feComposite in2="hardAlpha" operator="arithmetic" k2="-1" k3="1"/>
<feColorMatrix type="matrix" values="0 0 0 0 0 0 0 0 0 0 0 0 0 0 0 0 0 0 0.25 0"/>
<feBlend mode="normal" in2="shape" result="effect1_innerShadow"/>
</filter>
<filter id="filter5_i" x="175.977" y="66.2335" width="1.32003" height="1.47135" filterUnits="userSpaceOnUse" color-interpolation-filters="sRGB">
<feFlood flood-opacity="0" result="BackgroundImageFix"/>
<feBlend mode="normal" in="SourceGraphic" in2="BackgroundImageFix" result="shape"/>
<feColorMatrix in="SourceAlpha" type="matrix" values="0 0 0 0 0 0 0 0 0 0 0 0 0 0 0 0 0 0 127 0" result="hardAlpha"/>
<feOffset dy="0.5"/>
<feGaussianBlur stdDeviation="0.75"/>
<feComposite in2="hardAlpha" operator="arithmetic" k2="-1" k3="1"/>
<feColorMatrix type="matrix" values="0 0 0 0 0 0 0 0 0 0 0 0 0 0 0 0 0 0 0.04 0"/>
<feBlend mode="normal" in2="shape" result="effect1_innerShadow"/>
</filter>
<filter id="filter6_i" x="178.819" y="66.2561" width="0.365053" height="0.312399" filterUnits="userSpaceOnUse" color-interpolation-filters="sRGB">
<feFlood flood-opacity="0" result="BackgroundImageFix"/>
<feBlend mode="normal" in="SourceGraphic" in2="BackgroundImageFix" result="shape"/>
<feColorMatrix in="SourceAlpha" type="matrix" values="0 0 0 0 0 0 0 0 0 0 0 0 0 0 0 0 0 0 127 0" result="hardAlpha"/>
<feOffset dy="0.1"/>
<feGaussianBlur stdDeviation="0.05"/>
<feComposite in2="hardAlpha" operator="arithmetic" k2="-1" k3="1"/>
<feColorMatrix type="matrix" values="0 0 0 0 0 0 0 0 0 0 0 0 0 0 0 0 0 0 0.25 0"/>
<feBlend mode="normal" in2="shape" result="effect1_innerShadow"/>
</filter>
<filter id="filter7_d" x="249.745" y="107.345" width="142.946" height="174.787" filterUnits="userSpaceOnUse" color-interpolation-filters="sRGB">
<feFlood flood-opacity="0" result="BackgroundImageFix"/>
<feColorMatrix in="SourceAlpha" type="matrix" values="0 0 0 0 0 0 0 0 0 0 0 0 0 0 0 0 0 0 127 0"/>
<feOffset dx="-7"/>
<feGaussianBlur stdDeviation="2"/>
<feColorMatrix type="matrix" values="0 0 0 0 0 0 0 0 0 0 0 0 0 0 0 0 0 0 0.4 0"/>
<feBlend mode="normal" in2="BackgroundImageFix" result="effect1_dropShadow"/>
<feBlend mode="normal" in="SourceGraphic" in2="effect1_dropShadow" result="shape"/>
</filter>
<linearGradient id="paint0_linear" x1="161.926" y1="122.044" x2="231.062" y2="280.101" gradientUnits="userSpaceOnUse">
<stop stop-color="#C50D15"/>
<stop offset="1" stop-color="#280001"/>
</linearGradient>
<linearGradient id="paint1_linear" x1="144.681" y1="169.014" x2="155.32" y2="193.33" gradientUnits="userSpaceOnUse">
<stop stop-color="#1F0406"/>
<stop offset="1" stop-color="#A8111A"/>
</linearGradient>
<linearGradient id="paint2_linear" x1="236.385" y1="139.346" x2="240.976" y2="147.306" gradientUnits="userSpaceOnUse">
<stop stop-color="#190306"/>
<stop offset="1" stop-color="#E0131F"/>
</linearGradient>
<linearGradient id="paint3_linear" x1="266.637" y1="207.634" x2="276.145" y2="210.945" gradientUnits="userSpaceOnUse">
<stop stop-color="#2E0508"/>
<stop offset="1" stop-color="#7D060D"/>
</linearGradient>
<linearGradient id="paint4_linear" x1="186.748" y1="116.043" x2="187.362" y2="121.405" gradientUnits="userSpaceOnUse">
<stop stop-color="#420609"/>
<stop offset="1" stop-color="#DF131E"/>
</linearGradient>
<linearGradient id="paint5_linear" x1="202.263" y1="237.138" x2="208.975" y2="272.086" gradientUnits="userSpaceOnUse">
<stop stop-color="#150305"/>
<stop offset="1" stop-color="#70090F"/>
</linearGradient>
<linearGradient id="paint6_linear" x1="116.824" y1="244.207" x2="108.53" y2="212.689" gradientUnits="userSpaceOnUse">
<stop stop-color="#6F060A"/>
<stop offset="1" stop-color="#8C080E"/>
</linearGradient>
<linearGradient id="paint7_linear" x1="119.713" y1="243.327" x2="110.909" y2="211.931" gradientUnits="userSpaceOnUse">
<stop stop-color="#6F060A"/>
<stop offset="1" stop-color="#8C080E"/>
</linearGradient>
<linearGradient id="paint8_linear" x1="213.035" y1="284.292" x2="179.944" y2="285.973" gradientUnits="userSpaceOnUse">
<stop stop-color="#2A0001"/>
<stop offset="1" stop-color="#360103"/>
</linearGradient>
<linearGradient id="paint9_linear" x1="213.176" y1="282.305" x2="179.966" y2="282.298" gradientUnits="userSpaceOnUse">
<stop stop-color="#2A0001"/>
<stop offset="1" stop-color="#360103"/>
</linearGradient>
<linearGradient id="paint10_linear" x1="269.436" y1="249.183" x2="281.047" y2="224.3" gradientUnits="userSpaceOnUse">
<stop stop-color="#380103"/>
<stop offset="1" stop-color="#470205"/>
</linearGradient>
<linearGradient id="paint11_linear" x1="267.012" y1="248.08" x2="278.526" y2="223.152" gradientUnits="userSpaceOnUse">
<stop stop-color="#380103"/>
<stop offset="1" stop-color="#470205"/>
</linearGradient>
<linearGradient id="paint12_linear" x1="259.482" y1="138.043" x2="271.094" y2="152.972" gradientUnits="userSpaceOnUse">
<stop stop-color="#92090E"/>
<stop offset="1" stop-color="#82070C"/>
</linearGradient>
<linearGradient id="paint13_linear" x1="258.157" y1="138.947" x2="269.386" y2="154.197" gradientUnits="userSpaceOnUse">
<stop stop-color="#92090E"/>
<stop offset="1" stop-color="#82070C"/>
</linearGradient>
<linearGradient id="paint14_linear" x1="171.923" y1="48.5901" x2="142.924" y2="64.4857" gradientUnits="userSpaceOnUse">
<stop stop-color="#778186"/>
<stop offset="1" stop-color="#474B4C"/>
</linearGradient>
<linearGradient id="paint15_linear" x1="172.353" y1="49.8788" x2="144.428" y2="64.9152" gradientUnits="userSpaceOnUse">
<stop stop-color="#C1C1C1"/>
<stop offset="1" stop-color="#929292"/>
</linearGradient>
<linearGradient id="paint16_linear" x1="201.351" y1="48.8048" x2="175.145" y2="189.073" gradientUnits="userSpaceOnUse">
<stop stop-color="#D4853F"/>
<stop offset="1" stop-color="#D79962"/>
</linearGradient>
<linearGradient id="paint17_linear" x1="201.352" y1="48.8048" x2="175.145" y2="189.073" gradientUnits="userSpaceOnUse">
<stop stop-color="#A25D21"/>
<stop offset="1" stop-color="#D79962"/>
</linearGradient>
<linearGradient id="paint18_linear" x1="201.352" y1="48.8049" x2="175.145" y2="189.073" gradientUnits="userSpaceOnUse">
<stop stop-color="#995316"/>
<stop offset="1" stop-color="#D79962"/>
</linearGradient>
<linearGradient id="paint19_linear" x1="180.3" y1="90.907" x2="184.167" y2="88.9737" gradientUnits="userSpaceOnUse">
<stop stop-color="#6A4222"/>
<stop offset="1" stop-color="#D58947"/>
</linearGradient>
<linearGradient id="paint20_linear" x1="158.82" y1="62.3378" x2="160.109" y2="66.4191" gradientUnits="userSpaceOnUse">
<stop stop-color="#D48845"/>
<stop offset="1" stop-color="#4E3219"/>
</linearGradient>
<linearGradient id="paint21_linear" x1="177.938" y1="53.1011" x2="180.73" y2="52.8863" gradientUnits="userSpaceOnUse">
<stop stop-color="#D48641" stop-opacity="0"/>
<stop offset="1" stop-color="#4E3219"/>
</linearGradient>
<linearGradient id="paint22_linear" x1="149.584" y1="80.5963" x2="151.019" y2="94.1592" gradientUnits="userSpaceOnUse">
<stop stop-color="#D58A49"/>
<stop offset="1" stop-color="#281709"/>
</linearGradient>
<linearGradient id="paint23_linear" x1="119.014" y1="21.9543" x2="169.923" y2="30.117" gradientUnits="userSpaceOnUse">
<stop stop-color="#9F9F9F"/>
<stop offset="1" stop-color="#787877"/>
</linearGradient>
<linearGradient id="paint24_linear" x1="119.873" y1="29.6873" x2="159.182" y2="30.7613" gradientUnits="userSpaceOnUse">
<stop stop-color="#CBCBCB"/>
<stop offset="1" stop-color="#828380"/>
</linearGradient>
<linearGradient id="paint25_linear" x1="129.354" y1="34.8847" x2="173.175" y2="35.9587" gradientUnits="userSpaceOnUse">
<stop stop-color="#1B0A5D"/>
<stop offset="0.390625" stop-color="#1B0A5D"/>
<stop offset="0.970597" stop-color="#010005"/>
</linearGradient>
<linearGradient id="paint26_linear" x1="159.427" y1="16.6264" x2="136.228" y2="33.3812" gradientUnits="userSpaceOnUse">
<stop stop-color="#FFF9FF" stop-opacity="0.36"/>
<stop offset="1" stop-color="#1B0A5D" stop-opacity="0"/>
</linearGradient>
<linearGradient id="paint27_linear" x1="127.176" y1="34.4129" x2="174.863" y2="34.4129" gradientUnits="userSpaceOnUse">
<stop stop-color="#5B5C59"/>
<stop offset="1" stop-color="#3F403E"/>
</linearGradient>
<linearGradient id="paint28_linear" x1="175.636" y1="65.3483" x2="176.518" y2="66.4501" gradientUnits="userSpaceOnUse">
<stop stop-color="#A58C7A"/>
<stop offset="1" stop-color="#7B5C46" stop-opacity="0"/>
</linearGradient>
<linearGradient id="paint29_linear" x1="175.635" y1="65.3489" x2="176.517" y2="66.4507" gradientUnits="userSpaceOnUse">
<stop stop-color="#A58C7A"/>
<stop offset="1" stop-color="#7B5C46" stop-opacity="0"/>
</linearGradient>
<linearGradient id="paint30_linear" x1="176.714" y1="65.1752" x2="177.113" y2="65.6676" gradientUnits="userSpaceOnUse">
<stop stop-color="#95614F"/>
<stop offset="1" stop-color="#372620" stop-opacity="0"/>
</linearGradient>
<linearGradient id="paint31_linear" x1="176.163" y1="65.1204" x2="176.635" y2="65.7029" gradientUnits="userSpaceOnUse">
<stop stop-color="#95614F"/>
<stop offset="1" stop-color="#372620" stop-opacity="0"/>
</linearGradient>
<linearGradient id="paint32_linear" x1="175.736" y1="65.2731" x2="176.184" y2="65.8266" gradientUnits="userSpaceOnUse">
<stop stop-color="#95614F"/>
<stop offset="1" stop-color="#372620" stop-opacity="0"/>
</linearGradient>
<linearGradient id="paint33_linear" x1="175.409" y1="65.5353" x2="175.815" y2="66.0357" gradientUnits="userSpaceOnUse">
<stop stop-color="#95614F"/>
<stop offset="1" stop-color="#372620" stop-opacity="0"/>
</linearGradient>
<linearGradient id="paint34_linear" x1="175.191" y1="65.8239" x2="175.554" y2="66.2728" gradientUnits="userSpaceOnUse">
<stop stop-color="#95614F"/>
<stop offset="1" stop-color="#372620" stop-opacity="0"/>
</linearGradient>
<linearGradient id="paint35_linear" x1="175.013" y1="66.1966" x2="175.328" y2="66.5862" gradientUnits="userSpaceOnUse">
<stop stop-color="#95614F"/>
<stop offset="1" stop-color="#372620" stop-opacity="0"/>
</linearGradient>
<linearGradient id="paint36_linear" x1="174.936" y1="66.6253" x2="175.195" y2="66.9458" gradientUnits="userSpaceOnUse">
<stop stop-color="#95614F"/>
<stop offset="1" stop-color="#372620" stop-opacity="0"/>
</linearGradient>
<linearGradient id="paint37_linear" x1="176.808" y1="67.1007" x2="176.841" y2="67.3341" gradientUnits="userSpaceOnUse">
<stop/>
<stop offset="1" stop-color="#BC0624"/>
</linearGradient>
<linearGradient id="paint38_linear" x1="178.714" y1="61.674" x2="179.58" y2="69.9565" gradientUnits="userSpaceOnUse">
<stop offset="0.0001" stop-color="#F44336"/>
<stop offset="1" stop-color="#BC0624" stop-opacity="0"/>
</linearGradient>
</defs>
</svg>
