<svg width="111" height="104" viewBox="0 0 111 104" fill="none" xmlns="http://www.w3.org/2000/svg">
<path d="M26.5547 74.9701C26.5547 74.9701 32.2578 77.4666 33.3397 86.287C33.6298 88.8805 32.3464 90.7963 30.5085 92.6179C28.6277 94.5578 25.8427 94.5645 24.1596 96.5493C25.3227 94.6702 24.9835 92.4335 26.9721 90.934C24.0031 91.8906 22.4707 94.1977 22.0736 97.2108C21.7193 100.106 20.4358 102.021 17.245 102.336C18.8706 101.026 18.3211 99.221 18.2487 97.4289C18.0743 99.5328 16.457 100.525 14.6157 100.954C12.3727 101.532 11.4019 102.143 9.68639 103.848C10.5627 100.768 9.05492 99.0977 12.7928 97.6441C14.8422 96.8623 17.1081 95.4099 15.4642 92.8605C14.9092 97.3414 11.1668 95.9306 8.14659 97.3235C6.01143 98.3417 6.44478 100.024 5.24918 101.624C4.05358 103.224 1.97796 103.487 0.108398 103.478C3.23433 102.605 2.45131 99.0839 3.19275 96.597C4.0241 93.7146 7.82067 93.0582 9.40009 90.4739C7.98847 88.1693 6.60262 90.9576 6.02106 91.8971C5.06816 93.3441 3.83801 94.7441 1.78945 93.9744C6.60386 92.4296 3.33478 86.6152 6.81623 84.3194C8.15211 83.4394 11.5378 84.8011 12.2155 83.2275C13.2729 80.8285 9.10293 82.0719 8.21165 82.6851C8.44478 81.3783 9.47303 80.0924 10.7619 79.4896C12.4137 78.6975 13.5793 79.7623 15.0188 79.4818C16.9375 79.1342 17.1203 76.7122 14.9735 76.656C14.1784 76.6352 12.512 77.9839 11.5495 78.277C12.7272 75.8413 15.6113 73.5696 18.2518 73.0022C21.5326 72.2925 23.8009 73.7841 26.5547 74.9701Z" fill="url(#paint0_linear)"/>
<path d="M28.1436 78.0527C28.7166 78.697 28.6763 78.7352 29.2026 79.5724C30.3294 81.3248 30.5524 83.8606 28.866 85.3125C27.9034 86.1145 26.7709 85.8898 25.7406 86.459C24.6516 87.047 24.6015 88.2455 24.021 89.1676C23.9711 88.5096 23.9735 87.9874 23.8261 87.3477C23.7649 86.9603 23.6666 86.5338 23.8173 86.1679C23.4013 86.8597 23.3287 87.6712 22.874 88.3626C22.2968 89.2074 21.4342 89.469 20.4927 89.7684C19.5326 90.0484 18.5991 90.1545 17.5544 90.1434C17.1288 90.1389 16.5718 90.0363 16.1784 90.1869C15.6657 90.4135 15.4714 90.8949 15.0699 91.2388C15.2998 89.9068 15.3861 89.2309 16.7952 88.859C18.243 88.4876 18.3148 87.2313 19.2621 86.3324C18.4471 86.8459 17.4112 87.0864 16.8559 86.0168C18.5745 86.5765 19.2856 85.3077 19.5219 83.8211C19.7751 82.3927 19.7309 81.1352 20.895 80.1419C20.18 80.115 19.8196 80.8654 19.3762 81.2861C18.8538 81.7447 18.2653 81.9319 17.5826 82.06C17.6632 81.9835 17.7825 81.9074 17.8244 81.8305C18.0961 81.3499 18.5935 81.0264 18.8652 80.5458C19.1168 80.0844 19.2708 79.6412 19.4651 79.1598C19.8537 78.197 20.8565 77.3567 21.7304 76.8244C23.1806 75.9309 25.8391 76.2298 27.5656 77.5244L27.7341 77.6616C27.884 77.7792 28.0138 77.916 28.1436 78.0527Z" fill="#FFC929"/>
<path d="M28.639 78.5779C29.2587 79.3148 29.3481 79.9125 29.327 80.8761C29.2931 81.9521 28.3022 82.7118 27.5996 83.4187C27.7708 83.0956 27.7265 82.7763 27.7651 82.4185C27.3867 82.8378 27.0314 82.6731 26.6056 82.9165C26.1588 83.1799 25.9212 83.7266 25.505 84.0011C25.6998 83.5352 25.1772 83.0474 25.5146 82.6269C25.0596 82.7977 25.2215 83.3668 24.9078 83.6444C24.6359 83.8823 24.0388 83.9873 23.7378 84.1525C23.771 84.0407 24.5646 82.9262 23.963 83.2362C23.8487 83.3045 23.7472 83.7219 23.5801 83.8605C23.4344 83.9586 23.2176 84.0238 23.0422 84.0698C22.6401 84.1703 22.2319 84.0759 21.869 84.2597C21.4541 84.4727 21.2506 84.8666 21.0366 85.2704C21.2683 84.5286 21.1251 84.0422 21.7717 83.549C22.085 83.2918 22.213 83.07 22.4351 82.7588C22.6255 82.4979 22.8741 82.3824 23.1255 82.1439C22.3302 81.935 22.1778 82.8023 21.5174 82.9873C21.8931 82.691 21.7796 82.2568 21.9011 81.8604C22.0326 81.4746 22.3586 81.105 22.7416 80.9423C23.0213 80.8175 23.7469 80.9319 23.7057 80.469C23.6664 79.9242 22.8908 80.2186 22.6613 80.3962C22.8033 80.0005 23.1298 79.6104 23.5934 79.5117C23.9951 79.4316 24.4006 79.6491 24.5954 79.1831C24.2573 78.701 23.7751 79.1787 23.3141 79.1544C23.9717 78.6308 24.2733 77.5014 25.3046 77.7071C25.5802 77.7668 26.2431 78.4024 26.2844 77.9216C26.3135 77.5327 25.6224 77.245 25.3241 77.2872C26.3269 76.9176 27.7583 77.5869 28.5087 78.4406L28.639 78.5779Z" fill="#F9F079"/>
<path d="M22.9486 67.7431C22.1181 69.1379 21.3447 70.487 20.6209 71.7806C19.8972 73.0742 22.5916 77.3605 25.3744 80.286C28.1351 83.1881 33.2966 87.1975 34.6273 86.5417C35.9579 85.8859 37.3439 85.1843 38.7813 84.429L22.9486 67.7431Z" fill="url(#paint1_linear)"/>
<path d="M63.7197 70.215C80.6744 59.349 97.6688 44.9033 105.597 24.4326L86.3663 4.16541C65.5106 11.0103 50.1901 27.2219 38.4516 43.5852L27.1812 60.7633C26.146 62.453 25.1552 64.0853 24.1921 65.6849L40.9027 83.2961C42.5489 82.4163 44.2352 81.5135 45.9743 80.5691L63.7197 70.215ZM84.6696 25.0344C86.8543 27.4287 86.7726 31.0985 84.4536 33.299C82.1372 35.4969 78.4628 35.3911 76.1872 33.083C74.0008 30.6886 74.0886 27.0146 76.405 24.8167C78.724 22.6162 82.3923 22.7262 84.6696 25.0344Z" fill="url(#paint2_linear)"/>
<path d="M47.6759 85.2058L45.9741 80.5697L63.7195 70.2156C63.0849 73.5888 62.07 86.9916 62.07 86.9916L41.8914 103.864L38.1826 99.955L47.6759 85.2058Z" fill="url(#paint3_linear)"/>
<path d="M21.6126 44.3541C21.6126 44.3541 35.0477 44.0408 38.4511 43.5857L27.1807 60.7637L22.6402 58.8211L7.41347 67.5279L3.70557 63.6202L21.6126 44.3541Z" fill="url(#paint4_linear)"/>
<path d="M106.464 21.9728C108.642 15.4507 111.201 0.244267 110.988 0.0193301C110.773 -0.207371 95.4981 1.59812 88.8716 3.43183L106.464 21.9728Z" fill="url(#paint5_linear)"/>
<path d="M22.9486 67.743L38.7813 84.4289L40.9027 83.296L24.1921 65.6848L22.9486 67.743Z" fill="url(#paint6_linear)"/>
<path d="M86.3658 4.16578L105.597 24.433L106.465 21.9732L88.8718 3.43225L86.3658 4.16578Z" fill="url(#paint7_linear)"/>
<path d="M84.4538 33.2988C86.7728 31.0983 86.8545 27.4285 84.6698 25.0342C82.3925 22.726 78.7243 22.616 76.4052 24.8165C74.0888 27.0144 74.001 30.6884 76.1875 33.0828C78.4631 35.3909 82.1374 35.4967 84.4538 33.2988Z" fill="url(#paint8_linear)"/>
<defs>
<linearGradient id="paint0_linear" x1="0.108399" y1="103.486" x2="33.2914" y2="72.5525" gradientUnits="userSpaceOnUse">
<stop stop-color="#F67C01"/>
<stop offset="1" stop-color="#BB5E00"/>
</linearGradient>
<linearGradient id="paint1_linear" x1="55.4903" y1="22.852" x2="87.3759" y2="56.4559" gradientUnits="userSpaceOnUse">
<stop offset="0.213542" stop-color="#D2CECE"/>
<stop offset="1" stop-color="#393535"/>
</linearGradient>
<linearGradient id="paint2_linear" x1="55.4903" y1="22.852" x2="87.3759" y2="56.4559" gradientUnits="userSpaceOnUse">
<stop offset="0.213542" stop-color="#D2CECE"/>
<stop offset="1" stop-color="#393535"/>
</linearGradient>
<linearGradient id="paint3_linear" x1="43.8075" y1="77.8406" x2="59.086" y2="93.9425" gradientUnits="userSpaceOnUse">
<stop stop-color="#404040"/>
<stop offset="1"/>
</linearGradient>
<linearGradient id="paint4_linear" x1="29.8574" y1="63.1389" x2="13.2503" y2="45.6369" gradientUnits="userSpaceOnUse">
<stop/>
<stop offset="1" stop-color="#7A7A7A"/>
</linearGradient>
<linearGradient id="paint5_linear" x1="90.2077" y1="0.553052" x2="110.8" y2="22.2556" gradientUnits="userSpaceOnUse">
<stop stop-color="#8C8B8B"/>
<stop offset="1"/>
</linearGradient>
<linearGradient id="paint6_linear" x1="19.0141" y1="60.1239" x2="46.914" y2="89.5273" gradientUnits="userSpaceOnUse">
<stop offset="0.1875" stop-color="white"/>
<stop offset="1" stop-color="#393535"/>
</linearGradient>
<linearGradient id="paint7_linear" x1="84.0859" y1="-0.290321" x2="111.986" y2="29.1131" gradientUnits="userSpaceOnUse">
<stop offset="0.135417" stop-color="white"/>
<stop offset="1" stop-color="#393535"/>
</linearGradient>
<linearGradient id="paint8_linear" x1="84.5554" y1="33.8547" x2="75.9197" y2="24.7536" gradientUnits="userSpaceOnUse">
<stop offset="0.0885417" stop-color="#212121"/>
<stop offset="1" stop-color="#606060"/>
</linearGradient>
</defs>
</svg>
