<svg width="1600" height="960" viewBox="0 0 1600 960" fill="none" xmlns="http://www.w3.org/2000/svg">
<ellipse cx="37.8663" cy="34.1792" rx="1.26183" ry="1.13644" fill="white"/>
<ellipse cx="227.14" cy="34.1792" rx="1.26183" ry="1.13644" fill="white"/>
<ellipse cx="416.413" cy="34.1792" rx="1.26179" ry="1.13644" fill="white"/>
<ellipse cx="605.687" cy="34.1792" rx="1.26186" ry="1.13644" fill="white"/>
<ellipse cx="794.96" cy="34.1792" rx="1.26186" ry="1.13644" fill="white"/>
<ellipse cx="984.234" cy="34.1792" rx="1.26179" ry="1.13644" fill="white"/>
<ellipse cx="75.721" cy="147.823" rx="1.26186" ry="1.13644" fill="white"/>
<ellipse cx="264.995" cy="147.823" rx="1.26183" ry="1.13644" fill="white"/>
<ellipse cx="454.268" cy="147.823" rx="1.26186" ry="1.13644" fill="white"/>
<ellipse cx="643.542" cy="147.823" rx="1.26179" ry="1.13644" fill="white"/>
<ellipse cx="832.815" cy="147.823" rx="1.26186" ry="1.13644" fill="white"/>
<ellipse cx="1022.09" cy="147.823" rx="1.26186" ry="1.13644" fill="white"/>
<ellipse cx="12.6296" cy="263.739" rx="1.26183" ry="1.13644" fill="white"/>
<ellipse cx="201.903" cy="263.739" rx="1.26183" ry="1.13644" fill="white"/>
<ellipse cx="391.177" cy="263.739" rx="1.26193" ry="1.13644" fill="white"/>
<ellipse cx="580.451" cy="263.739" rx="1.26179" ry="1.13644" fill="white"/>
<ellipse cx="769.724" cy="263.739" rx="1.26186" ry="1.13644" fill="white"/>
<ellipse cx="958.998" cy="263.739" rx="1.26179" ry="1.13644" fill="white"/>
<ellipse cx="88.3391" cy="377.383" rx="1.26183" ry="1.13644" fill="white"/>
<ellipse cx="277.613" cy="377.383" rx="1.26193" ry="1.13644" fill="white"/>
<ellipse cx="466.886" cy="377.383" rx="1.26165" ry="1.13644" fill="white"/>
<ellipse cx="656.16" cy="377.383" rx="1.26186" ry="1.13644" fill="white"/>
<ellipse cx="845.434" cy="377.383" rx="1.26179" ry="1.13644" fill="white"/>
<ellipse cx="63.1026" cy="491.027" rx="1.26183" ry="1.13644" fill="white"/>
<ellipse cx="252.376" cy="491.027" rx="1.26169" ry="1.13644" fill="white"/>
<ellipse cx="441.65" cy="491.027" rx="1.26193" ry="1.13644" fill="white"/>
<ellipse cx="630.923" cy="491.027" rx="1.26186" ry="1.13644" fill="white"/>
<ellipse cx="820.197" cy="491.027" rx="1.26186" ry="1.13644" fill="white"/>
<ellipse cx="1009.47" cy="491.027" rx="1.26179" ry="1.13644" fill="white"/>
<ellipse cx="138.812" cy="604.671" rx="1.26179" ry="1.13641" fill="white"/>
<ellipse cx="328.085" cy="604.671" rx="1.26193" ry="1.13641" fill="white"/>
<ellipse cx="517.359" cy="604.671" rx="1.26186" ry="1.13641" fill="white"/>
<ellipse cx="706.633" cy="604.671" rx="1.26186" ry="1.13641" fill="white"/>
<ellipse cx="895.906" cy="604.671" rx="1.26179" ry="1.13641" fill="white"/>
<ellipse cx="1085.18" cy="604.671" rx="1.26228" ry="1.13641" fill="white"/>
<ellipse cx="37.8663" cy="718.315" rx="1.26183" ry="1.13641" fill="white"/>
<ellipse cx="227.14" cy="718.315" rx="1.26183" ry="1.13641" fill="white"/>
<ellipse cx="416.413" cy="718.315" rx="1.26179" ry="1.13641" fill="white"/>
<ellipse cx="605.687" cy="718.315" rx="1.26186" ry="1.13641" fill="white"/>
<ellipse cx="794.96" cy="718.315" rx="1.26186" ry="1.13641" fill="white"/>
<ellipse cx="984.234" cy="718.315" rx="1.26179" ry="1.13641" fill="white"/>
<ellipse cx="75.721" cy="831.959" rx="1.26186" ry="1.13641" fill="white"/>
<ellipse cx="264.995" cy="831.959" rx="1.26183" ry="1.13641" fill="white"/>
<ellipse cx="454.268" cy="831.959" rx="1.26186" ry="1.13641" fill="white"/>
<ellipse cx="643.542" cy="831.959" rx="1.26179" ry="1.13641" fill="white"/>
<ellipse cx="832.815" cy="831.959" rx="1.26186" ry="1.13641" fill="white"/>
<ellipse cx="1022.09" cy="831.959" rx="1.26186" ry="1.13641" fill="white"/>
<ellipse cx="164.049" cy="956.967" rx="1.26193" ry="1.13641" fill="white"/>
<ellipse cx="353.322" cy="956.967" rx="1.26169" ry="1.13641" fill="white"/>
<ellipse cx="542.596" cy="956.967" rx="1.26186" ry="1.13641" fill="white"/>
<ellipse cx="731.869" cy="956.967" rx="1.26179" ry="1.13641" fill="white"/>
<ellipse cx="921.143" cy="956.967" rx="1.26179" ry="1.13641" fill="white"/>
<ellipse cx="1110.42" cy="956.967" rx="1.26186" ry="1.13641" fill="white"/>
<ellipse cx="100.958" cy="45.5436" rx="1.26183" ry="1.13644" fill="white"/>
<ellipse cx="290.231" cy="45.5436" rx="1.26183" ry="1.13644" fill="white"/>
<ellipse cx="479.504" cy="45.5436" rx="1.26172" ry="1.13644" fill="white"/>
<ellipse cx="668.778" cy="45.5436" rx="1.26179" ry="1.13644" fill="white"/>
<ellipse cx="858.052" cy="45.5436" rx="1.26186" ry="1.13644" fill="white"/>
<ellipse cx="1047.33" cy="45.5436" rx="1.26186" ry="1.13644" fill="white"/>
<ellipse cx="138.812" cy="159.187" rx="1.26179" ry="1.13644" fill="white"/>
<ellipse cx="328.086" cy="159.187" rx="1.26193" ry="1.13644" fill="white"/>
<ellipse cx="517.359" cy="159.187" rx="1.26186" ry="1.13644" fill="white"/>
<ellipse cx="706.633" cy="159.187" rx="1.26186" ry="1.13644" fill="white"/>
<ellipse cx="895.906" cy="159.187" rx="1.26179" ry="1.13644" fill="white"/>
<ellipse cx="1085.18" cy="159.187" rx="1.26228" ry="1.13644" fill="white"/>
<ellipse cx="75.7211" cy="275.104" rx="1.26186" ry="1.13644" fill="white"/>
<ellipse cx="264.995" cy="275.104" rx="1.26183" ry="1.13644" fill="white"/>
<ellipse cx="454.268" cy="275.104" rx="1.26186" ry="1.13644" fill="white"/>
<ellipse cx="643.542" cy="275.104" rx="1.26179" ry="1.13644" fill="white"/>
<ellipse cx="832.816" cy="275.104" rx="1.26186" ry="1.13644" fill="white"/>
<ellipse cx="1022.09" cy="275.104" rx="1.26186" ry="1.13644" fill="white"/>
<ellipse cx="151.431" cy="388.747" rx="1.26183" ry="1.13644" fill="white"/>
<ellipse cx="340.704" cy="388.747" rx="1.26183" ry="1.13644" fill="white"/>
<ellipse cx="529.977" cy="388.747" rx="1.26179" ry="1.13644" fill="white"/>
<ellipse cx="719.251" cy="388.747" rx="1.26186" ry="1.13644" fill="white"/>
<ellipse cx="908.525" cy="388.747" rx="1.26186" ry="1.13644" fill="white"/>
<ellipse cx="126.194" cy="502.391" rx="1.26183" ry="1.13644" fill="white"/>
<ellipse cx="315.468" cy="502.391" rx="1.26183" ry="1.13644" fill="white"/>
<ellipse cx="504.741" cy="502.391" rx="1.26193" ry="1.13644" fill="white"/>
<ellipse cx="694.015" cy="502.391" rx="1.26179" ry="1.13644" fill="white"/>
<ellipse cx="883.288" cy="502.391" rx="1.26186" ry="1.13644" fill="white"/>
<ellipse cx="1072.56" cy="502.391" rx="1.26158" ry="1.13644" fill="white"/>
<ellipse cx="12.6298" cy="616.035" rx="1.26183" ry="1.13641" fill="white"/>
<ellipse cx="201.903" cy="616.035" rx="1.26183" ry="1.13641" fill="white"/>
<ellipse cx="391.177" cy="616.035" rx="1.26193" ry="1.13641" fill="white"/>
<ellipse cx="580.451" cy="616.035" rx="1.26179" ry="1.13641" fill="white"/>
<ellipse cx="769.724" cy="616.035" rx="1.26186" ry="1.13641" fill="white"/>
<ellipse cx="958.998" cy="616.035" rx="1.26179" ry="1.13641" fill="white"/>
<ellipse cx="1148.27" cy="613.763" rx="1.26152" ry="1.13641" fill="white"/>
<ellipse cx="100.958" cy="729.679" rx="1.26183" ry="1.13647" fill="white"/>
<ellipse cx="290.231" cy="729.679" rx="1.26183" ry="1.13647" fill="white"/>
<ellipse cx="479.504" cy="729.679" rx="1.26172" ry="1.13647" fill="white"/>
<ellipse cx="668.778" cy="729.679" rx="1.26179" ry="1.13647" fill="white"/>
<ellipse cx="858.052" cy="729.679" rx="1.26186" ry="1.13647" fill="white"/>
<ellipse cx="1047.33" cy="729.679" rx="1.26186" ry="1.13647" fill="white"/>
<ellipse cx="138.812" cy="843.323" rx="1.26179" ry="1.13647" fill="white"/>
<ellipse cx="328.086" cy="843.323" rx="1.26193" ry="1.13647" fill="white"/>
<ellipse cx="517.359" cy="843.323" rx="1.26186" ry="1.13647" fill="white"/>
<ellipse cx="706.633" cy="843.323" rx="1.26186" ry="1.13647" fill="white"/>
<ellipse cx="895.906" cy="843.323" rx="1.26179" ry="1.13647" fill="white"/>
<ellipse cx="1085.18" cy="843.323" rx="1.26228" ry="1.13647" fill="white"/>
<ellipse cx="156.478" cy="91.001" rx="1.26193" ry="1.13644" fill="white"/>
<ellipse cx="345.751" cy="91.001" rx="1.26183" ry="1.13644" fill="white"/>
<ellipse cx="535.025" cy="91.001" rx="1.26186" ry="1.13644" fill="white"/>
<ellipse cx="724.298" cy="91.001" rx="1.26179" ry="1.13644" fill="white"/>
<ellipse cx="913.572" cy="91.001" rx="1.26179" ry="1.13644" fill="white"/>
<ellipse cx="5.05879" cy="204.645" rx="1.26179" ry="1.13644" fill="white"/>
<ellipse cx="194.332" cy="204.645" rx="1.26186" ry="1.13644" fill="white"/>
<ellipse cx="383.606" cy="204.645" rx="1.26193" ry="1.13644" fill="white"/>
<ellipse cx="572.88" cy="204.645" rx="1.26179" ry="1.13644" fill="white"/>
<ellipse cx="762.153" cy="204.645" rx="1.26186" ry="1.13644" fill="white"/>
<ellipse cx="951.427" cy="204.645" rx="1.26179" ry="1.13644" fill="white"/>
<ellipse cx="131.241" cy="320.561" rx="1.26183" ry="1.13644" fill="white"/>
<ellipse cx="320.515" cy="320.561" rx="1.26169" ry="1.13644" fill="white"/>
<ellipse cx="509.788" cy="320.561" rx="1.26179" ry="1.13644" fill="white"/>
<ellipse cx="699.062" cy="320.561" rx="1.26179" ry="1.13644" fill="white"/>
<ellipse cx="888.335" cy="320.561" rx="1.26186" ry="1.13644" fill="white"/>
<ellipse cx="17.6771" cy="434.205" rx="1.26183" ry="1.13644" fill="white"/>
<ellipse cx="206.951" cy="434.205" rx="1.26169" ry="1.13644" fill="white"/>
<ellipse cx="396.224" cy="434.205" rx="1.26183" ry="1.13644" fill="white"/>
<ellipse cx="585.498" cy="434.205" rx="1.26179" ry="1.13644" fill="white"/>
<ellipse cx="774.771" cy="434.205" rx="1.26186" ry="1.13644" fill="white"/>
<ellipse cx="181.714" cy="547.849" rx="1.26193" ry="1.13641" fill="white"/>
<ellipse cx="370.988" cy="547.849" rx="1.26183" ry="1.13641" fill="white"/>
<ellipse cx="560.261" cy="547.849" rx="1.26179" ry="1.13641" fill="white"/>
<ellipse cx="749.534" cy="547.849" rx="1.26179" ry="1.13641" fill="white"/>
<ellipse cx="938.808" cy="547.849" rx="1.26186" ry="1.13641" fill="white"/>
<ellipse cx="68.1499" cy="661.493" rx="1.26183" ry="1.13647" fill="white"/>
<ellipse cx="257.423" cy="661.493" rx="1.26183" ry="1.13647" fill="white"/>
<ellipse cx="446.697" cy="661.493" rx="1.26165" ry="1.13647" fill="white"/>
<ellipse cx="635.97" cy="661.493" rx="1.26179" ry="1.13647" fill="white"/>
<ellipse cx="825.244" cy="661.493" rx="1.26186" ry="1.13647" fill="white"/>
<ellipse cx="1014.52" cy="661.493" rx="1.26179" ry="1.13647" fill="white"/>
<ellipse cx="156.478" cy="775.137" rx="1.26193" ry="1.13641" fill="white"/>
<ellipse cx="345.751" cy="775.137" rx="1.26183" ry="1.13641" fill="white"/>
<ellipse cx="535.025" cy="775.137" rx="1.26186" ry="1.13641" fill="white"/>
<ellipse cx="724.298" cy="775.137" rx="1.26179" ry="1.13641" fill="white"/>
<ellipse cx="913.572" cy="775.137" rx="1.26179" ry="1.13641" fill="white"/>
<ellipse cx="5.05879" cy="888.78" rx="1.26179" ry="1.13647" fill="white"/>
<ellipse cx="194.332" cy="888.78" rx="1.26186" ry="1.13647" fill="white"/>
<ellipse cx="383.606" cy="888.78" rx="1.26193" ry="1.13647" fill="white"/>
<ellipse cx="572.88" cy="888.78" rx="1.26179" ry="1.13647" fill="white"/>
<ellipse cx="762.153" cy="888.78" rx="1.26186" ry="1.13647" fill="white"/>
<ellipse cx="951.427" cy="888.78" rx="1.26179" ry="1.13647" fill="white"/>
<ellipse cx="161.525" cy="194.417" rx="2.52355" ry="2.27288" fill="white"/>
<ellipse cx="540.072" cy="183.053" rx="2.52366" ry="2.27288" fill="white"/>
<ellipse cx="918.619" cy="194.417" rx="2.52359" ry="2.27288" fill="white"/>
<ellipse cx="1297.17" cy="205.781" rx="2.52366" ry="2.27288" fill="white"/>
<ellipse cx="98.4337" cy="423.977" rx="2.52366" ry="2.27288" fill="white"/>
<ellipse cx="476.981" cy="412.613" rx="2.52372" ry="2.27285" fill="white"/>
<ellipse cx="855.528" cy="423.977" rx="2.52359" ry="2.27288" fill="white"/>
<ellipse cx="1234.08" cy="433.069" rx="2.52366" ry="2.27288" fill="white"/>
<ellipse cx="35.3427" cy="651.265" rx="2.52362" ry="2.27288" fill="white"/>
<ellipse cx="413.89" cy="639.9" rx="2.52379" ry="2.27288" fill="white"/>
<ellipse cx="792.437" cy="651.265" rx="2.52366" ry="2.27288" fill="white"/>
<ellipse cx="1170.98" cy="660.357" rx="2.52338" ry="2.27288" fill="white"/>
<ellipse cx="237.234" cy="878.552" rx="2.52362" ry="2.27288" fill="white"/>
<ellipse cx="615.781" cy="867.188" rx="2.52366" ry="2.27288" fill="white"/>
<ellipse cx="994.329" cy="878.552" rx="2.52366" ry="2.27288" fill="white"/>
<ellipse cx="1372.88" cy="887.644" rx="2.52338" ry="2.27288" fill="white"/>
<ellipse cx="211.998" cy="80.7731" rx="2.52376" ry="2.27288" fill="white"/>
<ellipse cx="590.545" cy="92.1374" rx="2.52372" ry="2.27288" fill="white"/>
<ellipse cx="969.092" cy="103.502" rx="2.52359" ry="2.27291" fill="white"/>
<ellipse cx="363.417" cy="310.333" rx="2.52369" ry="2.27288" fill="white"/>
<ellipse cx="741.964" cy="321.698" rx="2.52359" ry="2.27288" fill="white"/>
<ellipse cx="1120.51" cy="330.79" rx="2.52366" ry="2.27288" fill="white"/>
<ellipse cx="300.326" cy="537.621" rx="2.52376" ry="2.27288" fill="white"/>
<ellipse cx="678.873" cy="548.985" rx="2.52366" ry="2.27282" fill="white"/>
<ellipse cx="1057.42" cy="560.35" rx="2.52366" ry="2.27288" fill="white"/>
<ellipse cx="237.234" cy="764.909" rx="2.52362" ry="2.27288" fill="white"/>
<ellipse cx="615.781" cy="776.273" rx="2.52366" ry="2.27288" fill="white"/>
<ellipse cx="994.329" cy="787.637" rx="2.52366" ry="2.27288" fill="white"/>
<ellipse cx="1090.23" cy="65.9995" rx="1.26183" ry="1.13644" fill="white"/>
<ellipse cx="1279.5" cy="65.9995" rx="1.26185" ry="1.13644" fill="white"/>
<ellipse cx="1468.77" cy="65.9995" rx="1.26183" ry="1.13644" fill="white"/>
<ellipse cx="1027.14" cy="181.916" rx="1.26182" ry="1.13644" fill="white"/>
<ellipse cx="1216.41" cy="181.916" rx="1.26183" ry="1.13644" fill="white"/>
<ellipse cx="1405.68" cy="181.916" rx="1.26181" ry="1.13644" fill="white"/>
<ellipse cx="1594.96" cy="181.916" rx="1.26188" ry="1.13644" fill="white"/>
<ellipse cx="1102.85" cy="295.559" rx="1.26182" ry="1.13644" fill="white"/>
<ellipse cx="1292.12" cy="295.559" rx="1.26183" ry="1.13644" fill="white"/>
<ellipse cx="1481.39" cy="295.559" rx="1.26188" ry="1.13644" fill="white"/>
<ellipse cx="1077.61" cy="409.203" rx="1.26182" ry="1.13644" fill="white"/>
<ellipse cx="1266.88" cy="409.203" rx="1.26179" ry="1.13644" fill="white"/>
<ellipse cx="1456.16" cy="409.203" rx="1.26183" ry="1.13644" fill="white"/>
<ellipse cx="1153.32" cy="522.847" rx="1.26184" ry="1.13641" fill="white"/>
<ellipse cx="1342.59" cy="522.847" rx="1.26183" ry="1.13641" fill="white"/>
<ellipse cx="1531.87" cy="522.847" rx="1.26188" ry="1.13641" fill="white"/>
<ellipse cx="1052.37" cy="636.491" rx="1.26183" ry="1.13641" fill="white"/>
<ellipse cx="1241.65" cy="636.491" rx="1.26183" ry="1.13641" fill="white"/>
<ellipse cx="1430.92" cy="636.491" rx="1.26183" ry="1.13641" fill="white"/>
<ellipse cx="1090.23" cy="750.135" rx="1.26183" ry="1.13641" fill="white"/>
<ellipse cx="1279.5" cy="750.135" rx="1.26185" ry="1.13641" fill="white"/>
<ellipse cx="1468.77" cy="750.135" rx="1.26183" ry="1.13641" fill="white"/>
<ellipse cx="1178.55" cy="875.143" rx="1.26182" ry="1.13641" fill="white"/>
<ellipse cx="1367.83" cy="875.143" rx="1.26183" ry="1.13641" fill="white"/>
<ellipse cx="1557.1" cy="875.143" rx="1.26181" ry="1.13641" fill="white"/>
<ellipse cx="1153.32" cy="77.3639" rx="1.26184" ry="1.13644" fill="white"/>
<ellipse cx="1342.59" cy="77.3639" rx="1.26183" ry="1.13644" fill="white"/>
<ellipse cx="1531.87" cy="77.3639" rx="1.26188" ry="1.13644" fill="white"/>
<ellipse cx="1090.23" cy="193.28" rx="1.26183" ry="1.13644" fill="white"/>
<ellipse cx="1279.5" cy="193.28" rx="1.26185" ry="1.13644" fill="white"/>
<ellipse cx="1468.77" cy="193.28" rx="1.26183" ry="1.13644" fill="white"/>
<ellipse cx="1165.94" cy="306.924" rx="1.26183" ry="1.13644" fill="white"/>
<ellipse cx="1355.21" cy="306.924" rx="1.26183" ry="1.13644" fill="white"/>
<ellipse cx="1544.48" cy="306.924" rx="1.26181" ry="1.13644" fill="white"/>
<ellipse cx="1140.7" cy="420.568" rx="1.26181" ry="1.13644" fill="white"/>
<ellipse cx="1329.97" cy="420.568" rx="1.26184" ry="1.13644" fill="white"/>
<ellipse cx="1519.25" cy="420.568" rx="1.26176" ry="1.13644" fill="white"/>
<ellipse cx="1216.41" cy="534.211" rx="1.26183" ry="1.13641" fill="white"/>
<ellipse cx="1405.68" cy="534.211" rx="1.26181" ry="1.13641" fill="white"/>
<ellipse cx="1594.96" cy="534.211" rx="1.26188" ry="1.13641" fill="white"/>
<ellipse cx="1115.46" cy="647.855" rx="1.26183" ry="1.13647" fill="white"/>
<ellipse cx="1304.74" cy="647.855" rx="1.26183" ry="1.13647" fill="white"/>
<ellipse cx="1494.01" cy="647.855" rx="1.26178" ry="1.13647" fill="white"/>
<ellipse cx="1153.32" cy="761.499" rx="1.26184" ry="1.13647" fill="white"/>
<ellipse cx="1342.59" cy="761.499" rx="1.26183" ry="1.13647" fill="white"/>
<ellipse cx="1531.87" cy="761.499" rx="1.26188" ry="1.13647" fill="white"/>
<ellipse cx="1241.65" cy="886.508" rx="1.26183" ry="1.13641" fill="white"/>
<ellipse cx="1430.92" cy="886.508" rx="1.26183" ry="1.13641" fill="white"/>
<ellipse cx="981.71" cy="9.17758" rx="1.26182" ry="1.13644" fill="white"/>
<ellipse cx="1170.98" cy="9.17758" rx="1.26183" ry="1.13644" fill="white"/>
<ellipse cx="1360.26" cy="9.17758" rx="1.26183" ry="1.13644" fill="white"/>
<ellipse cx="1549.53" cy="9.17758" rx="1.26181" ry="1.13644" fill="white"/>
<ellipse cx="1019.57" cy="122.821" rx="1.26182" ry="1.13644" fill="white"/>
<ellipse cx="1208.84" cy="122.821" rx="1.26183" ry="1.13644" fill="white"/>
<ellipse cx="1398.11" cy="122.821" rx="1.26183" ry="1.13644" fill="white"/>
<ellipse cx="1587.39" cy="122.821" rx="1.26178" ry="1.13644" fill="white"/>
<ellipse cx="956.474" cy="238.738" rx="1.26182" ry="1.13644" fill="white"/>
<ellipse cx="1145.75" cy="238.738" rx="1.26181" ry="1.13644" fill="white"/>
<ellipse cx="1335.02" cy="238.738" rx="1.26183" ry="1.13644" fill="white"/>
<ellipse cx="1524.29" cy="238.738" rx="1.26183" ry="1.13644" fill="white"/>
<ellipse cx="1032.18" cy="352.381" rx="1.26182" ry="1.13644" fill="white"/>
<ellipse cx="1221.46" cy="352.381" rx="1.26183" ry="1.13644" fill="white"/>
<ellipse cx="1410.73" cy="352.381" rx="1.26183" ry="1.13644" fill="white"/>
<ellipse cx="1600" cy="352.381" rx="1.26183" ry="1.13644" fill="white"/>
<ellipse cx="1006.95" cy="466.025" rx="1.26182" ry="1.13641" fill="white"/>
<ellipse cx="1196.22" cy="466.025" rx="1.26183" ry="1.13641" fill="white"/>
<ellipse cx="1385.49" cy="466.025" rx="1.26183" ry="1.13641" fill="white"/>
<ellipse cx="1574.77" cy="466.025" rx="1.26178" ry="1.13641" fill="white"/>
<ellipse cx="1082.66" cy="579.669" rx="1.26183" ry="1.13647" fill="white"/>
<ellipse cx="1271.93" cy="579.669" rx="1.26183" ry="1.13647" fill="white"/>
<ellipse cx="1461.2" cy="579.669" rx="1.26183" ry="1.13647" fill="white"/>
<ellipse cx="981.71" cy="693.313" rx="1.26182" ry="1.13641" fill="white"/>
<ellipse cx="1170.98" cy="693.313" rx="1.26183" ry="1.13641" fill="white"/>
<ellipse cx="1360.26" cy="693.313" rx="1.26183" ry="1.13641" fill="white"/>
<ellipse cx="1549.53" cy="693.313" rx="1.26181" ry="1.13641" fill="white"/>
<ellipse cx="1019.57" cy="806.957" rx="1.26182" ry="1.13647" fill="white"/>
<ellipse cx="1208.84" cy="806.957" rx="1.26183" ry="1.13647" fill="white"/>
<ellipse cx="1398.11" cy="806.957" rx="1.26183" ry="1.13647" fill="white"/>
<ellipse cx="1587.39" cy="806.957" rx="1.26178" ry="1.13647" fill="white"/>
<ellipse cx="1107.89" cy="931.965" rx="1.26182" ry="1.13641" fill="white"/>
<ellipse cx="1297.17" cy="931.965" rx="1.26179" ry="1.13641" fill="white"/>
<ellipse cx="1486.44" cy="931.965" rx="1.26184" ry="1.13641" fill="white"/>
<ellipse cx="1176.03" cy="112.593" rx="2.52363" ry="2.27288" fill="white"/>
<ellipse cx="1554.58" cy="123.958" rx="2.52359" ry="2.27288" fill="white"/>
<ellipse cx="1112.94" cy="342.153" rx="2.52365" ry="2.27288" fill="white"/>
<ellipse cx="1491.49" cy="353.518" rx="2.52366" ry="2.27288" fill="white"/>
<ellipse cx="1049.85" cy="569.441" rx="2.52365" ry="2.27288" fill="white"/>
<ellipse cx="1428.4" cy="580.805" rx="2.52364" ry="2.27288" fill="white"/>
<ellipse cx="1251.74" cy="796.729" rx="2.52367" ry="2.27288" fill="white"/>
<ellipse cx="847.957" cy="10.314" rx="2.52365" ry="2.27288" fill="white"/>
<ellipse cx="1226.5" cy="21.6783" rx="2.52365" ry="2.27291" fill="white"/>
<ellipse cx="999.376" cy="239.874" rx="2.52365" ry="2.27288" fill="white"/>
<ellipse cx="1377.92" cy="251.238" rx="2.52364" ry="2.27285" fill="white"/>
<ellipse cx="936.285" cy="467.162" rx="2.52365" ry="2.27282" fill="white"/>
<ellipse cx="1314.83" cy="478.526" rx="2.52364" ry="2.27288" fill="white"/>
<ellipse cx="873.194" cy="692.177" rx="2.52365" ry="2.27288" fill="white"/>
<ellipse cx="1251.74" cy="705.814" rx="2.52367" ry="2.27288" fill="white"/>
<ellipse cx="1075.09" cy="921.737" rx="2.52365" ry="2.27282" fill="white"/>
<ellipse cx="1453.63" cy="933.101" rx="2.52366" ry="2.27288" fill="white"/>
</svg>
