<svg width="1600" height="960" viewBox="0 0 1600 960" fill="none" xmlns="http://www.w3.org/2000/svg">
<ellipse cx="91.7308" cy="14.4348" rx="0.814244" ry="0.721642" fill="white"/>
<ellipse cx="213.864" cy="14.4348" rx="0.8142" ry="0.721642" fill="white"/>
<ellipse cx="75.4465" cy="86.5989" rx="0.814244" ry="0.721642" fill="white"/>
<ellipse cx="197.579" cy="86.5989" rx="0.814244" ry="0.721642" fill="white"/>
<ellipse cx="319.712" cy="86.5989" rx="0.8142" ry="0.721642" fill="white"/>
<ellipse cx="2.16678" cy="158.763" rx="0.814244" ry="0.721623" fill="white"/>
<ellipse cx="124.299" cy="158.763" rx="0.814244" ry="0.721623" fill="white"/>
<ellipse cx="246.432" cy="158.763" rx="0.8142" ry="0.721623" fill="white"/>
<ellipse cx="368.565" cy="158.763" rx="0.814513" ry="0.721623" fill="white"/>
<ellipse cx="59.162" cy="230.927" rx="0.814244" ry="0.721623" fill="white"/>
<ellipse cx="181.295" cy="230.927" rx="0.814244" ry="0.721623" fill="white"/>
<ellipse cx="303.428" cy="230.927" rx="0.8142" ry="0.721623" fill="white"/>
<ellipse cx="83.5885" cy="303.091" rx="0.8142" ry="0.721623" fill="white"/>
<ellipse cx="205.722" cy="303.091" rx="0.814244" ry="0.721623" fill="white"/>
<ellipse cx="327.854" cy="303.091" rx="0.814244" ry="0.721623" fill="white"/>
<ellipse cx="18.4509" cy="382.471" rx="0.814244" ry="0.721623" fill="white"/>
<ellipse cx="140.584" cy="382.471" rx="0.8142" ry="0.721623" fill="white"/>
<ellipse cx="262.717" cy="382.471" rx="0.8142" ry="0.721623" fill="white"/>
<ellipse cx="384.85" cy="382.471" rx="0.814244" ry="0.721623" fill="white"/>
<ellipse cx="91.7308" cy="461.852" rx="0.814244" ry="0.721662" fill="white"/>
<ellipse cx="213.864" cy="461.852" rx="0.8142" ry="0.721662" fill="white"/>
<ellipse cx="335.997" cy="461.852" rx="0.8142" ry="0.721662" fill="white"/>
<ellipse cx="34.7354" cy="539.789" rx="0.814244" ry="0.721662" fill="white"/>
<ellipse cx="156.868" cy="539.789" rx="0.8142" ry="0.721662" fill="white"/>
<ellipse cx="279.001" cy="539.789" rx="0.814244" ry="0.721662" fill="white"/>
<ellipse cx="108.015" cy="619.17" rx="0.814244" ry="0.721662" fill="white"/>
<ellipse cx="230.148" cy="619.17" rx="0.8142" ry="0.721662" fill="white"/>
<ellipse cx="352.281" cy="619.17" rx="0.814244" ry="0.721662" fill="white"/>
<ellipse cx="59.162" cy="698.55" rx="0.814244" ry="0.721623" fill="white"/>
<ellipse cx="181.295" cy="698.55" rx="0.814244" ry="0.721623" fill="white"/>
<ellipse cx="303.428" cy="698.55" rx="0.8142" ry="0.721623" fill="white"/>
<ellipse cx="108.015" cy="777.93" rx="0.814244" ry="0.721623" fill="white"/>
<ellipse cx="230.148" cy="777.93" rx="0.8142" ry="0.721623" fill="white"/>
<ellipse cx="75.4465" cy="850.094" rx="0.814244" ry="0.721623" fill="white"/>
<ellipse cx="197.579" cy="850.094" rx="0.814244" ry="0.721623" fill="white"/>
<ellipse cx="197.579" cy="850.094" rx="0.814244" ry="0.721623" fill="white"/>
<ellipse cx="18.4509" cy="922.258" rx="0.814244" ry="0.721623" fill="white"/>
<ellipse cx="140.584" cy="922.258" rx="0.8142" ry="0.721623" fill="white"/>
<ellipse cx="262.717" cy="922.258" rx="0.8142" ry="0.721623" fill="white"/>
<ellipse cx="352.281" cy="777.93" rx="0.814244" ry="0.721623" fill="white"/>
<ellipse cx="10.3088" cy="21.6512" rx="0.8142" ry="0.721642" fill="white"/>
<ellipse cx="132.442" cy="21.6512" rx="0.814244" ry="0.721642" fill="white"/>
<ellipse cx="254.575" cy="21.6512" rx="0.814244" ry="0.721642" fill="white"/>
<ellipse cx="116.158" cy="93.8152" rx="0.8142" ry="0.721642" fill="white"/>
<ellipse cx="238.29" cy="93.8152" rx="0.814244" ry="0.721642" fill="white"/>
<ellipse cx="360.423" cy="93.8152" rx="0.814065" ry="0.721642" fill="white"/>
<ellipse cx="42.8778" cy="165.979" rx="0.8142" ry="0.721623" fill="white"/>
<ellipse cx="165.011" cy="165.979" rx="0.814244" ry="0.721623" fill="white"/>
<ellipse cx="287.144" cy="165.979" rx="0.8142" ry="0.721623" fill="white"/>
<ellipse cx="409.276" cy="164.536" rx="0.814021" ry="0.721623" fill="white"/>
<ellipse cx="99.873" cy="238.143" rx="0.8142" ry="0.721662" fill="white"/>
<ellipse cx="222.006" cy="238.143" rx="0.814244" ry="0.721662" fill="white"/>
<ellipse cx="344.139" cy="238.143" rx="0.814244" ry="0.721662" fill="white"/>
<ellipse cx="2.16678" cy="310.307" rx="0.814244" ry="0.721662" fill="white"/>
<ellipse cx="124.299" cy="310.307" rx="0.814244" ry="0.721662" fill="white"/>
<ellipse cx="246.432" cy="310.307" rx="0.8142" ry="0.721662" fill="white"/>
<ellipse cx="368.565" cy="310.307" rx="0.814513" ry="0.721662" fill="white"/>
<ellipse cx="59.162" cy="389.688" rx="0.814244" ry="0.721623" fill="white"/>
<ellipse cx="181.295" cy="389.688" rx="0.814244" ry="0.721623" fill="white"/>
<ellipse cx="303.428" cy="389.688" rx="0.8142" ry="0.721623" fill="white"/>
<ellipse cx="425.561" cy="388.245" rx="0.814244" ry="0.721662" fill="white"/>
<ellipse cx="10.3088" cy="469.068" rx="0.8142" ry="0.721623" fill="white"/>
<ellipse cx="132.442" cy="469.068" rx="0.814244" ry="0.721623" fill="white"/>
<ellipse cx="254.575" cy="469.068" rx="0.814244" ry="0.721623" fill="white"/>
<ellipse cx="376.708" cy="469.068" rx="0.814244" ry="0.721623" fill="white"/>
<ellipse cx="75.4465" cy="547.005" rx="0.814244" ry="0.721623" fill="white"/>
<ellipse cx="197.579" cy="547.005" rx="0.814244" ry="0.721623" fill="white"/>
<ellipse cx="319.712" cy="547.005" rx="0.8142" ry="0.721623" fill="white"/>
<ellipse cx="26.5933" cy="626.386" rx="0.8142" ry="0.721662" fill="white"/>
<ellipse cx="148.726" cy="626.386" rx="0.814244" ry="0.721662" fill="white"/>
<ellipse cx="270.859" cy="626.386" rx="0.814244" ry="0.721662" fill="white"/>
<ellipse cx="392.992" cy="626.386" rx="0.814244" ry="0.721662" fill="white"/>
<ellipse cx="99.873" cy="705.766" rx="0.8142" ry="0.721662" fill="white"/>
<ellipse cx="222.006" cy="705.766" rx="0.814244" ry="0.721662" fill="white"/>
<ellipse cx="344.139" cy="705.766" rx="0.814244" ry="0.721662" fill="white"/>
<ellipse cx="26.5933" cy="785.147" rx="0.8142" ry="0.721623" fill="white"/>
<ellipse cx="148.726" cy="785.147" rx="0.814244" ry="0.721623" fill="white"/>
<ellipse cx="270.859" cy="785.147" rx="0.814244" ry="0.721623" fill="white"/>
<ellipse cx="116.158" cy="857.311" rx="0.8142" ry="0.721623" fill="white"/>
<ellipse cx="238.29" cy="857.311" rx="0.814244" ry="0.721623" fill="white"/>
<ellipse cx="238.29" cy="857.311" rx="0.814244" ry="0.721623" fill="white"/>
<ellipse cx="59.162" cy="929.475" rx="0.814244" ry="0.721702" fill="white"/>
<ellipse cx="181.295" cy="929.475" rx="0.814244" ry="0.721702" fill="white"/>
<ellipse cx="303.428" cy="929.475" rx="0.8142" ry="0.721702" fill="white"/>
<ellipse cx="392.992" cy="785.147" rx="0.814244" ry="0.721623" fill="white"/>
<ellipse cx="46.1345" cy="50.5168" rx="0.8142" ry="0.721642" fill="white"/>
<ellipse cx="168.267" cy="50.5168" rx="0.814244" ry="0.721642" fill="white"/>
<ellipse cx="29.8501" cy="122.681" rx="0.8142" ry="0.721623" fill="white"/>
<ellipse cx="151.983" cy="122.681" rx="0.8142" ry="0.721623" fill="white"/>
<ellipse cx="274.116" cy="122.681" rx="0.814244" ry="0.721623" fill="white"/>
<ellipse cx="78.7031" cy="194.845" rx="0.8142" ry="0.721662" fill="white"/>
<ellipse cx="200.836" cy="194.845" rx="0.814244" ry="0.721662" fill="white"/>
<ellipse cx="322.969" cy="194.845" rx="0.8142" ry="0.721662" fill="white"/>
<ellipse cx="13.5659" cy="267.009" rx="0.814244" ry="0.721623" fill="white"/>
<ellipse cx="135.699" cy="267.009" rx="0.8142" ry="0.721623" fill="white"/>
<ellipse cx="257.832" cy="267.009" rx="0.8142" ry="0.721623" fill="white"/>
<ellipse cx="37.9924" cy="339.173" rx="0.8142" ry="0.721662" fill="white"/>
<ellipse cx="160.125" cy="339.173" rx="0.814244" ry="0.721662" fill="white"/>
<ellipse cx="282.258" cy="339.173" rx="0.8142" ry="0.721662" fill="white"/>
<ellipse cx="94.9877" cy="418.553" rx="0.814244" ry="0.721623" fill="white"/>
<ellipse cx="217.121" cy="418.553" rx="0.8142" ry="0.721623" fill="white"/>
<ellipse cx="339.253" cy="418.553" rx="0.8142" ry="0.721623" fill="white"/>
<ellipse cx="46.1345" cy="497.934" rx="0.8142" ry="0.721662" fill="white"/>
<ellipse cx="168.267" cy="497.934" rx="0.814244" ry="0.721662" fill="white"/>
<ellipse cx="290.4" cy="497.934" rx="0.8142" ry="0.721662" fill="white"/>
<ellipse cx="111.272" cy="575.871" rx="0.8142" ry="0.721583" fill="white"/>
<ellipse cx="233.405" cy="575.871" rx="0.814244" ry="0.721583" fill="white"/>
<ellipse cx="62.4188" cy="655.252" rx="0.8142" ry="0.721662" fill="white"/>
<ellipse cx="184.552" cy="655.252" rx="0.8142" ry="0.721662" fill="white"/>
<ellipse cx="306.685" cy="655.252" rx="0.814244" ry="0.721662" fill="white"/>
<ellipse cx="13.5659" cy="734.632" rx="0.814244" ry="0.721623" fill="white"/>
<ellipse cx="135.699" cy="734.632" rx="0.8142" ry="0.721623" fill="white"/>
<ellipse cx="257.832" cy="734.632" rx="0.8142" ry="0.721623" fill="white"/>
<ellipse cx="62.4188" cy="814.012" rx="0.8142" ry="0.721543" fill="white"/>
<ellipse cx="184.552" cy="814.012" rx="0.8142" ry="0.721543" fill="white"/>
<ellipse cx="29.8501" cy="886.176" rx="0.8142" ry="0.721623" fill="white"/>
<ellipse cx="151.983" cy="886.176" rx="0.8142" ry="0.721623" fill="white"/>
<ellipse cx="151.983" cy="886.176" rx="0.8142" ry="0.721623" fill="white"/>
<ellipse cx="94.9877" cy="958.34" rx="0.814244" ry="0.721702" fill="white"/>
<ellipse cx="217.121" cy="958.34" rx="0.8142" ry="0.721702" fill="white"/>
<ellipse cx="306.685" cy="814.012" rx="0.814244" ry="0.721543" fill="white"/>
<ellipse cx="220.378" cy="44.0221" rx="1.6284" ry="1.44328" fill="white"/>
<ellipse cx="464.643" cy="49.7955" rx="1.62844" ry="1.44328" fill="white"/>
<ellipse cx="179.667" cy="188.35" rx="1.62844" ry="1.44328" fill="white"/>
<ellipse cx="423.932" cy="194.124" rx="1.62827" ry="1.44328" fill="white"/>
<ellipse cx="65.6757" cy="325.462" rx="1.62844" ry="1.44328" fill="white"/>
<ellipse cx="309.942" cy="332.678" rx="1.62844" ry="1.44328" fill="white"/>
<ellipse cx="554.208" cy="338.452" rx="1.62827" ry="1.44328" fill="white"/>
<ellipse cx="157.683" cy="477.006" rx="1.62844" ry="1.44328" fill="white"/>
<ellipse cx="401.948" cy="482.78" rx="1.62831" ry="1.44332" fill="white"/>
<ellipse cx="176.409" cy="601.128" rx="1.62844" ry="1.44328" fill="white"/>
<ellipse cx="420.675" cy="608.345" rx="1.62844" ry="1.44328" fill="white"/>
<ellipse cx="235.848" cy="755.56" rx="1.6284" ry="1.44328" fill="white"/>
<ellipse cx="480.113" cy="762.776" rx="1.62849" ry="1.44325" fill="white"/>
<ellipse cx="181.295" cy="909.991" rx="1.62844" ry="1.44332" fill="white"/>
<ellipse cx="298.542" cy="884.012" rx="1.62844" ry="1.44332" fill="white"/>
<ellipse cx="425.561" cy="917.207" rx="1.62858" ry="1.44325" fill="white"/>
<ellipse cx="106.387" cy="123.402" rx="1.62844" ry="1.44325" fill="white"/>
<ellipse cx="350.653" cy="130.619" rx="1.62844" ry="1.44328" fill="white"/>
<ellipse cx="65.6757" cy="267.731" rx="1.62844" ry="1.44328" fill="white"/>
<ellipse cx="309.942" cy="274.947" rx="1.62844" ry="1.44328" fill="white"/>
<ellipse cx="195.951" cy="412.059" rx="1.62849" ry="1.44325" fill="white"/>
<ellipse cx="440.217" cy="417.832" rx="1.62844" ry="1.44328" fill="white"/>
<ellipse cx="43.6917" cy="554.944" rx="1.62844" ry="1.44328" fill="white"/>
<ellipse cx="287.958" cy="562.16" rx="1.62844" ry="1.44328" fill="white"/>
<ellipse cx="62.4188" cy="680.509" rx="1.62844" ry="1.44325" fill="white"/>
<ellipse cx="306.685" cy="687.725" rx="1.62844" ry="1.44328" fill="white"/>
<ellipse cx="121.857" cy="834.94" rx="1.62844" ry="1.44325" fill="white"/>
<ellipse cx="33.107" cy="941.31" rx="0.8142" ry="0.721543" fill="white"/>
<ellipse cx="155.239" cy="941.31" rx="0.8142" ry="0.721543" fill="white"/>
<ellipse cx="277.372" cy="941.31" rx="0.814244" ry="0.721543" fill="white"/>
<ellipse cx="366.123" cy="842.156" rx="1.62831" ry="1.44325" fill="white"/>
<ellipse cx="363.68" cy="34.6408" rx="0.814219" ry="0.721642" fill="white"/>
<ellipse cx="485.813" cy="34.6408" rx="0.8142" ry="0.721642" fill="white"/>
<ellipse cx="607.946" cy="34.6408" rx="0.814222" ry="0.721642" fill="white"/>
<ellipse cx="730.079" cy="34.6408" rx="0.814267" ry="0.721642" fill="white"/>
<ellipse cx="852.212" cy="34.6408" rx="0.814222" ry="0.721642" fill="white"/>
<ellipse cx="974.344" cy="34.6408" rx="0.814133" ry="0.721642" fill="white"/>
<ellipse cx="1096.48" cy="34.6408" rx="0.814289" ry="0.721642" fill="white"/>
<ellipse cx="1218.61" cy="34.6408" rx="0.814244" ry="0.721642" fill="white"/>
<ellipse cx="1340.74" cy="34.6408" rx="0.814244" ry="0.721642" fill="white"/>
<ellipse cx="1462.88" cy="34.6408" rx="0.8142" ry="0.721642" fill="white"/>
<ellipse cx="412.533" cy="106.805" rx="0.814228" ry="0.721623" fill="white"/>
<ellipse cx="534.666" cy="106.805" rx="0.814222" ry="0.721623" fill="white"/>
<ellipse cx="656.799" cy="106.805" rx="0.814255" ry="0.721623" fill="white"/>
<ellipse cx="778.932" cy="106.805" rx="0.814222" ry="0.721623" fill="white"/>
<ellipse cx="901.065" cy="106.805" rx="0.8142" ry="0.721623" fill="white"/>
<ellipse cx="1023.2" cy="106.805" rx="0.814289" ry="0.721623" fill="white"/>
<ellipse cx="1145.33" cy="106.805" rx="0.814244" ry="0.721623" fill="white"/>
<ellipse cx="1267.46" cy="106.805" rx="0.814244" ry="0.721623" fill="white"/>
<ellipse cx="1389.6" cy="106.805" rx="0.8142" ry="0.721623" fill="white"/>
<ellipse cx="1511.73" cy="106.805" rx="0.814513" ry="0.721623" fill="white"/>
<ellipse cx="347.396" cy="178.969" rx="0.814223" ry="0.721623" fill="white"/>
<ellipse cx="469.529" cy="178.969" rx="0.814222" ry="0.721623" fill="white"/>
<ellipse cx="591.661" cy="178.969" rx="0.814222" ry="0.721623" fill="white"/>
<ellipse cx="713.794" cy="178.969" rx="0.814244" ry="0.721623" fill="white"/>
<ellipse cx="835.927" cy="178.969" rx="0.814222" ry="0.721623" fill="white"/>
<ellipse cx="958.06" cy="178.969" rx="0.814222" ry="0.721623" fill="white"/>
<ellipse cx="1080.19" cy="178.969" rx="0.8142" ry="0.721623" fill="white"/>
<ellipse cx="1202.33" cy="178.969" rx="0.814244" ry="0.721623" fill="white"/>
<ellipse cx="1324.46" cy="178.969" rx="0.814244" ry="0.721623" fill="white"/>
<ellipse cx="1446.59" cy="178.969" rx="0.8142" ry="0.721623" fill="white"/>
<ellipse cx="371.822" cy="251.133" rx="0.814222" ry="0.721623" fill="white"/>
<ellipse cx="493.955" cy="251.133" rx="0.814239" ry="0.721623" fill="white"/>
<ellipse cx="616.088" cy="251.133" rx="0.814222" ry="0.721623" fill="white"/>
<ellipse cx="738.221" cy="251.133" rx="0.8142" ry="0.721623" fill="white"/>
<ellipse cx="860.354" cy="251.133" rx="0.814244" ry="0.721623" fill="white"/>
<ellipse cx="982.487" cy="251.133" rx="0.814222" ry="0.721623" fill="white"/>
<ellipse cx="1104.62" cy="251.133" rx="0.814244" ry="0.721623" fill="white"/>
<ellipse cx="1226.75" cy="251.133" rx="0.8142" ry="0.721623" fill="white"/>
<ellipse cx="1348.89" cy="251.133" rx="0.814244" ry="0.721623" fill="white"/>
<ellipse cx="1471.02" cy="251.133" rx="0.814244" ry="0.721623" fill="white"/>
<ellipse cx="428.818" cy="330.513" rx="0.814216" ry="0.721623" fill="white"/>
<ellipse cx="550.951" cy="330.513" rx="0.814222" ry="0.721623" fill="white"/>
<ellipse cx="673.083" cy="330.513" rx="0.814211" ry="0.721623" fill="white"/>
<ellipse cx="795.216" cy="330.513" rx="0.814222" ry="0.721623" fill="white"/>
<ellipse cx="917.349" cy="330.513" rx="0.814289" ry="0.721623" fill="white"/>
<ellipse cx="1039.48" cy="330.513" rx="0.814133" ry="0.721623" fill="white"/>
<ellipse cx="1161.62" cy="330.513" rx="0.814244" ry="0.721623" fill="white"/>
<ellipse cx="1283.75" cy="330.513" rx="0.8142" ry="0.721623" fill="white"/>
<ellipse cx="1405.88" cy="330.513" rx="0.8142" ry="0.721623" fill="white"/>
<ellipse cx="1528.01" cy="330.513" rx="0.814244" ry="0.721623" fill="white"/>
<ellipse cx="379.964" cy="409.894" rx="0.814219" ry="0.721662" fill="white"/>
<ellipse cx="502.097" cy="409.894" rx="0.814222" ry="0.721662" fill="white"/>
<ellipse cx="624.23" cy="409.894" rx="0.814255" ry="0.721662" fill="white"/>
<ellipse cx="746.363" cy="409.894" rx="0.814222" ry="0.721662" fill="white"/>
<ellipse cx="868.496" cy="409.894" rx="0.814222" ry="0.721662" fill="white"/>
<ellipse cx="990.629" cy="409.894" rx="0.814289" ry="0.721662" fill="white"/>
<ellipse cx="1112.76" cy="409.894" rx="0.81411" ry="0.721662" fill="white"/>
<ellipse cx="1234.9" cy="409.894" rx="0.814244" ry="0.721662" fill="white"/>
<ellipse cx="1357.03" cy="409.894" rx="0.8142" ry="0.721662" fill="white"/>
<ellipse cx="1479.16" cy="409.894" rx="0.8142" ry="0.721662" fill="white"/>
<ellipse cx="445.102" cy="487.831" rx="0.814216" ry="0.721662" fill="white"/>
<ellipse cx="567.235" cy="487.831" rx="0.814211" ry="0.721662" fill="white"/>
<ellipse cx="689.368" cy="487.831" rx="0.814255" ry="0.721662" fill="white"/>
<ellipse cx="811.501" cy="487.831" rx="0.8142" ry="0.721662" fill="white"/>
<ellipse cx="933.634" cy="487.831" rx="0.8142" ry="0.721662" fill="white"/>
<ellipse cx="1055.77" cy="487.831" rx="0.814222" ry="0.721662" fill="white"/>
<ellipse cx="1177.9" cy="487.831" rx="0.814244" ry="0.721662" fill="white"/>
<ellipse cx="1300.03" cy="487.831" rx="0.8142" ry="0.721662" fill="white"/>
<ellipse cx="1422.17" cy="487.831" rx="0.814244" ry="0.721662" fill="white"/>
<ellipse cx="396.249" cy="567.211" rx="0.814219" ry="0.721662" fill="white"/>
<ellipse cx="518.382" cy="567.211" rx="0.814222" ry="0.721662" fill="white"/>
<ellipse cx="640.515" cy="567.211" rx="0.814233" ry="0.721662" fill="white"/>
<ellipse cx="762.647" cy="567.211" rx="0.814222" ry="0.721662" fill="white"/>
<ellipse cx="884.781" cy="567.211" rx="0.8142" ry="0.721662" fill="white"/>
<ellipse cx="1006.91" cy="567.211" rx="0.8142" ry="0.721662" fill="white"/>
<ellipse cx="1129.05" cy="567.211" rx="0.814244" ry="0.721662" fill="white"/>
<ellipse cx="1251.18" cy="567.211" rx="0.814244" ry="0.721662" fill="white"/>
<ellipse cx="1373.31" cy="567.211" rx="0.8142" ry="0.721662" fill="white"/>
<ellipse cx="1495.44" cy="567.211" rx="0.814244" ry="0.721662" fill="white"/>
<ellipse cx="347.396" cy="646.592" rx="0.814223" ry="0.721623" fill="white"/>
<ellipse cx="469.529" cy="646.592" rx="0.814222" ry="0.721623" fill="white"/>
<ellipse cx="591.661" cy="646.592" rx="0.814222" ry="0.721623" fill="white"/>
<ellipse cx="713.794" cy="646.592" rx="0.814244" ry="0.721623" fill="white"/>
<ellipse cx="835.927" cy="646.592" rx="0.814222" ry="0.721623" fill="white"/>
<ellipse cx="958.06" cy="646.592" rx="0.814222" ry="0.721623" fill="white"/>
<ellipse cx="1080.19" cy="646.592" rx="0.8142" ry="0.721623" fill="white"/>
<ellipse cx="1202.33" cy="646.592" rx="0.814244" ry="0.721623" fill="white"/>
<ellipse cx="1324.46" cy="646.592" rx="0.814244" ry="0.721623" fill="white"/>
<ellipse cx="1446.59" cy="646.592" rx="0.8142" ry="0.721623" fill="white"/>
<ellipse cx="396.249" cy="725.972" rx="0.814219" ry="0.721623" fill="white"/>
<ellipse cx="518.382" cy="725.972" rx="0.814222" ry="0.721623" fill="white"/>
<ellipse cx="640.515" cy="725.972" rx="0.814233" ry="0.721623" fill="white"/>
<ellipse cx="762.647" cy="725.972" rx="0.814222" ry="0.721623" fill="white"/>
<ellipse cx="884.781" cy="725.972" rx="0.8142" ry="0.721623" fill="white"/>
<ellipse cx="1006.91" cy="725.972" rx="0.8142" ry="0.721623" fill="white"/>
<ellipse cx="1129.05" cy="725.972" rx="0.814244" ry="0.721623" fill="white"/>
<ellipse cx="1251.18" cy="725.972" rx="0.814244" ry="0.721623" fill="white"/>
<ellipse cx="1373.31" cy="725.972" rx="0.8142" ry="0.721623" fill="white"/>
<ellipse cx="363.68" cy="798.136" rx="0.814219" ry="0.721623" fill="white"/>
<ellipse cx="485.813" cy="798.136" rx="0.8142" ry="0.721623" fill="white"/>
<ellipse cx="607.946" cy="798.136" rx="0.814222" ry="0.721623" fill="white"/>
<ellipse cx="730.079" cy="798.136" rx="0.814267" ry="0.721623" fill="white"/>
<ellipse cx="852.212" cy="798.136" rx="0.814222" ry="0.721623" fill="white"/>
<ellipse cx="974.344" cy="798.136" rx="0.814133" ry="0.721623" fill="white"/>
<ellipse cx="1096.48" cy="798.136" rx="0.814289" ry="0.721623" fill="white"/>
<ellipse cx="1218.61" cy="798.136" rx="0.814244" ry="0.721623" fill="white"/>
<ellipse cx="1340.74" cy="798.136" rx="0.814244" ry="0.721623" fill="white"/>
<ellipse cx="1340.74" cy="798.136" rx="0.814244" ry="0.721623" fill="white"/>
<ellipse cx="428.818" cy="870.3" rx="0.814216" ry="0.721623" fill="white"/>
<ellipse cx="550.951" cy="870.3" rx="0.814222" ry="0.721623" fill="white"/>
<ellipse cx="673.083" cy="870.3" rx="0.814211" ry="0.721623" fill="white"/>
<ellipse cx="795.216" cy="870.3" rx="0.814222" ry="0.721623" fill="white"/>
<ellipse cx="917.349" cy="870.3" rx="0.814289" ry="0.721623" fill="white"/>
<ellipse cx="1039.48" cy="870.3" rx="0.814133" ry="0.721623" fill="white"/>
<ellipse cx="1161.62" cy="870.3" rx="0.814244" ry="0.721623" fill="white"/>
<ellipse cx="1283.75" cy="870.3" rx="0.8142" ry="0.721623" fill="white"/>
<ellipse cx="1405.88" cy="870.3" rx="0.8142" ry="0.721623" fill="white"/>
<ellipse cx="1495.44" cy="725.972" rx="0.814244" ry="0.721623" fill="white"/>
<ellipse cx="404.391" cy="41.8571" rx="0.814211" ry="0.721642" fill="white"/>
<ellipse cx="526.524" cy="41.8571" rx="0.814233" ry="0.721642" fill="white"/>
<ellipse cx="648.657" cy="41.8571" rx="0.814177" ry="0.721642" fill="white"/>
<ellipse cx="770.79" cy="41.8571" rx="0.814222" ry="0.721642" fill="white"/>
<ellipse cx="892.923" cy="41.8571" rx="0.814222" ry="0.721642" fill="white"/>
<ellipse cx="1015.06" cy="41.8571" rx="0.814222" ry="0.721642" fill="white"/>
<ellipse cx="1137.19" cy="41.8571" rx="0.814289" ry="0.721642" fill="white"/>
<ellipse cx="1259.32" cy="41.8571" rx="0.8142" ry="0.721642" fill="white"/>
<ellipse cx="1381.45" cy="41.8571" rx="0.814244" ry="0.721642" fill="white"/>
<ellipse cx="1503.59" cy="41.8571" rx="0.814065" ry="0.721642" fill="white"/>
<ellipse cx="453.244" cy="114.021" rx="0.814222" ry="0.721623" fill="white"/>
<ellipse cx="575.377" cy="114.021" rx="0.814211" ry="0.721623" fill="white"/>
<ellipse cx="697.51" cy="114.021" rx="0.814255" ry="0.721623" fill="white"/>
<ellipse cx="819.643" cy="114.021" rx="0.814222" ry="0.721623" fill="white"/>
<ellipse cx="941.776" cy="114.021" rx="0.814222" ry="0.721623" fill="white"/>
<ellipse cx="1063.91" cy="114.021" rx="0.814289" ry="0.721623" fill="white"/>
<ellipse cx="1186.04" cy="114.021" rx="0.8142" ry="0.721623" fill="white"/>
<ellipse cx="1308.17" cy="114.021" rx="0.814244" ry="0.721623" fill="white"/>
<ellipse cx="1430.31" cy="114.021" rx="0.8142" ry="0.721623" fill="white"/>
<ellipse cx="1552.44" cy="112.578" rx="0.814021" ry="0.721623" fill="white"/>
<ellipse cx="388.107" cy="186.185" rx="0.814222" ry="0.721662" fill="white"/>
<ellipse cx="510.24" cy="186.185" rx="0.814222" ry="0.721662" fill="white"/>
<ellipse cx="632.373" cy="186.185" rx="0.814188" ry="0.721662" fill="white"/>
<ellipse cx="754.505" cy="186.185" rx="0.8142" ry="0.721662" fill="white"/>
<ellipse cx="876.638" cy="186.185" rx="0.814222" ry="0.721662" fill="white"/>
<ellipse cx="998.771" cy="186.185" rx="0.814222" ry="0.721662" fill="white"/>
<ellipse cx="1120.9" cy="186.185" rx="0.814155" ry="0.721662" fill="white"/>
<ellipse cx="1243.04" cy="186.185" rx="0.8142" ry="0.721662" fill="white"/>
<ellipse cx="1365.17" cy="186.185" rx="0.814244" ry="0.721662" fill="white"/>
<ellipse cx="1487.3" cy="186.185" rx="0.814244" ry="0.721662" fill="white"/>
<ellipse cx="412.533" cy="258.349" rx="0.814228" ry="0.721662" fill="white"/>
<ellipse cx="534.666" cy="258.349" rx="0.814222" ry="0.721662" fill="white"/>
<ellipse cx="656.799" cy="258.349" rx="0.814255" ry="0.721662" fill="white"/>
<ellipse cx="778.932" cy="258.349" rx="0.814222" ry="0.721662" fill="white"/>
<ellipse cx="901.065" cy="258.349" rx="0.8142" ry="0.721662" fill="white"/>
<ellipse cx="1023.2" cy="258.349" rx="0.814289" ry="0.721662" fill="white"/>
<ellipse cx="1145.33" cy="258.349" rx="0.814244" ry="0.721662" fill="white"/>
<ellipse cx="1267.46" cy="258.349" rx="0.814244" ry="0.721662" fill="white"/>
<ellipse cx="1389.6" cy="258.349" rx="0.8142" ry="0.721662" fill="white"/>
<ellipse cx="1511.73" cy="258.349" rx="0.814513" ry="0.721662" fill="white"/>
<ellipse cx="469.529" cy="337.73" rx="0.814222" ry="0.721623" fill="white"/>
<ellipse cx="591.661" cy="337.73" rx="0.814222" ry="0.721623" fill="white"/>
<ellipse cx="713.794" cy="337.73" rx="0.814244" ry="0.721623" fill="white"/>
<ellipse cx="835.927" cy="337.73" rx="0.814222" ry="0.721623" fill="white"/>
<ellipse cx="958.06" cy="337.73" rx="0.814222" ry="0.721623" fill="white"/>
<ellipse cx="1080.19" cy="337.73" rx="0.8142" ry="0.721623" fill="white"/>
<ellipse cx="1202.33" cy="337.73" rx="0.814244" ry="0.721623" fill="white"/>
<ellipse cx="1324.46" cy="337.73" rx="0.814244" ry="0.721623" fill="white"/>
<ellipse cx="1446.59" cy="337.73" rx="0.8142" ry="0.721623" fill="white"/>
<ellipse cx="1568.72" cy="336.287" rx="0.814244" ry="0.721662" fill="white"/>
<ellipse cx="420.675" cy="417.11" rx="0.814222" ry="0.721623" fill="white"/>
<ellipse cx="542.808" cy="417.11" rx="0.814222" ry="0.721623" fill="white"/>
<ellipse cx="664.941" cy="417.11" rx="0.814211" ry="0.721623" fill="white"/>
<ellipse cx="787.074" cy="417.11" rx="0.814244" ry="0.721623" fill="white"/>
<ellipse cx="909.207" cy="417.11" rx="0.814222" ry="0.721623" fill="white"/>
<ellipse cx="1031.34" cy="417.11" rx="0.814222" ry="0.721623" fill="white"/>
<ellipse cx="1153.47" cy="417.11" rx="0.8142" ry="0.721623" fill="white"/>
<ellipse cx="1275.61" cy="417.11" rx="0.814244" ry="0.721623" fill="white"/>
<ellipse cx="1397.74" cy="417.11" rx="0.814244" ry="0.721623" fill="white"/>
<ellipse cx="1519.87" cy="417.11" rx="0.814244" ry="0.721623" fill="white"/>
<ellipse cx="485.813" cy="495.048" rx="0.8142" ry="0.721623" fill="white"/>
<ellipse cx="607.946" cy="495.048" rx="0.814222" ry="0.721623" fill="white"/>
<ellipse cx="730.079" cy="495.048" rx="0.814267" ry="0.721623" fill="white"/>
<ellipse cx="852.212" cy="495.048" rx="0.814222" ry="0.721623" fill="white"/>
<ellipse cx="974.344" cy="495.048" rx="0.814133" ry="0.721623" fill="white"/>
<ellipse cx="1096.48" cy="495.048" rx="0.814289" ry="0.721623" fill="white"/>
<ellipse cx="1218.61" cy="495.048" rx="0.814244" ry="0.721623" fill="white"/>
<ellipse cx="1340.74" cy="495.048" rx="0.814244" ry="0.721623" fill="white"/>
<ellipse cx="1462.88" cy="495.048" rx="0.8142" ry="0.721623" fill="white"/>
<ellipse cx="436.96" cy="574.428" rx="0.814222" ry="0.721662" fill="white"/>
<ellipse cx="559.093" cy="574.428" rx="0.814222" ry="0.721662" fill="white"/>
<ellipse cx="681.225" cy="574.428" rx="0.814211" ry="0.721662" fill="white"/>
<ellipse cx="803.358" cy="574.428" rx="0.814222" ry="0.721662" fill="white"/>
<ellipse cx="925.492" cy="574.428" rx="0.814222" ry="0.721662" fill="white"/>
<ellipse cx="1047.62" cy="574.428" rx="0.814133" ry="0.721662" fill="white"/>
<ellipse cx="1169.76" cy="574.428" rx="0.8142" ry="0.721662" fill="white"/>
<ellipse cx="1291.89" cy="574.428" rx="0.814244" ry="0.721662" fill="white"/>
<ellipse cx="1414.02" cy="574.428" rx="0.814244" ry="0.721662" fill="white"/>
<ellipse cx="1536.16" cy="574.428" rx="0.814244" ry="0.721662" fill="white"/>
<ellipse cx="388.107" cy="653.808" rx="0.814222" ry="0.721662" fill="white"/>
<ellipse cx="510.24" cy="653.808" rx="0.814222" ry="0.721662" fill="white"/>
<ellipse cx="632.373" cy="653.808" rx="0.814188" ry="0.721662" fill="white"/>
<ellipse cx="754.505" cy="653.808" rx="0.8142" ry="0.721662" fill="white"/>
<ellipse cx="876.638" cy="653.808" rx="0.814222" ry="0.721662" fill="white"/>
<ellipse cx="998.771" cy="653.808" rx="0.814222" ry="0.721662" fill="white"/>
<ellipse cx="1120.9" cy="653.808" rx="0.814155" ry="0.721662" fill="white"/>
<ellipse cx="1243.04" cy="653.808" rx="0.8142" ry="0.721662" fill="white"/>
<ellipse cx="1365.17" cy="653.808" rx="0.814244" ry="0.721662" fill="white"/>
<ellipse cx="1487.3" cy="653.808" rx="0.814244" ry="0.721662" fill="white"/>
<ellipse cx="436.96" cy="733.189" rx="0.814222" ry="0.721623" fill="white"/>
<ellipse cx="559.093" cy="733.189" rx="0.814222" ry="0.721623" fill="white"/>
<ellipse cx="681.225" cy="733.189" rx="0.814211" ry="0.721623" fill="white"/>
<ellipse cx="803.358" cy="733.189" rx="0.814222" ry="0.721623" fill="white"/>
<ellipse cx="925.492" cy="733.189" rx="0.814222" ry="0.721623" fill="white"/>
<ellipse cx="1047.62" cy="733.189" rx="0.814133" ry="0.721623" fill="white"/>
<ellipse cx="1169.76" cy="733.189" rx="0.8142" ry="0.721623" fill="white"/>
<ellipse cx="1291.89" cy="733.189" rx="0.814244" ry="0.721623" fill="white"/>
<ellipse cx="1414.02" cy="733.189" rx="0.814244" ry="0.721623" fill="white"/>
<ellipse cx="404.391" cy="805.353" rx="0.814211" ry="0.721623" fill="white"/>
<ellipse cx="526.524" cy="805.353" rx="0.814233" ry="0.721623" fill="white"/>
<ellipse cx="648.657" cy="805.353" rx="0.814177" ry="0.721623" fill="white"/>
<ellipse cx="770.79" cy="805.353" rx="0.814222" ry="0.721623" fill="white"/>
<ellipse cx="892.923" cy="805.353" rx="0.814222" ry="0.721623" fill="white"/>
<ellipse cx="1015.06" cy="805.353" rx="0.814222" ry="0.721623" fill="white"/>
<ellipse cx="1137.19" cy="805.353" rx="0.814289" ry="0.721623" fill="white"/>
<ellipse cx="1259.32" cy="805.353" rx="0.8142" ry="0.721623" fill="white"/>
<ellipse cx="1381.45" cy="805.353" rx="0.814244" ry="0.721623" fill="white"/>
<ellipse cx="1381.45" cy="805.353" rx="0.814244" ry="0.721623" fill="white"/>
<ellipse cx="469.529" cy="877.517" rx="0.814222" ry="0.721702" fill="white"/>
<ellipse cx="591.661" cy="877.517" rx="0.814222" ry="0.721702" fill="white"/>
<ellipse cx="713.794" cy="877.517" rx="0.814244" ry="0.721702" fill="white"/>
<ellipse cx="835.927" cy="877.517" rx="0.814222" ry="0.721702" fill="white"/>
<ellipse cx="958.06" cy="877.517" rx="0.814222" ry="0.721702" fill="white"/>
<ellipse cx="1080.19" cy="877.517" rx="0.8142" ry="0.721702" fill="white"/>
<ellipse cx="1202.33" cy="877.517" rx="0.814244" ry="0.721702" fill="white"/>
<ellipse cx="1324.46" cy="877.517" rx="0.814244" ry="0.721702" fill="white"/>
<ellipse cx="1446.59" cy="877.517" rx="0.8142" ry="0.721702" fill="white"/>
<ellipse cx="1536.16" cy="733.189" rx="0.814244" ry="0.721623" fill="white"/>
<ellipse cx="318.084" cy="70.7228" rx="0.81422" ry="0.721623" fill="white"/>
<ellipse cx="440.217" cy="70.7228" rx="0.814222" ry="0.721623" fill="white"/>
<ellipse cx="562.35" cy="70.7228" rx="0.814222" ry="0.721623" fill="white"/>
<ellipse cx="684.483" cy="70.7228" rx="0.814188" ry="0.721623" fill="white"/>
<ellipse cx="806.616" cy="70.7228" rx="0.814222" ry="0.721623" fill="white"/>
<ellipse cx="928.748" cy="70.7228" rx="0.814289" ry="0.721623" fill="white"/>
<ellipse cx="1050.88" cy="70.7228" rx="0.814222" ry="0.721623" fill="white"/>
<ellipse cx="1173.01" cy="70.7228" rx="0.8142" ry="0.721623" fill="white"/>
<ellipse cx="1295.15" cy="70.7228" rx="0.8142" ry="0.721623" fill="white"/>
<ellipse cx="1417.28" cy="70.7228" rx="0.814244" ry="0.721623" fill="white"/>
<ellipse cx="366.937" cy="142.887" rx="0.814221" ry="0.721662" fill="white"/>
<ellipse cx="489.07" cy="142.887" rx="0.814222" ry="0.721662" fill="white"/>
<ellipse cx="611.203" cy="142.887" rx="0.814222" ry="0.721662" fill="white"/>
<ellipse cx="733.336" cy="142.887" rx="0.814222" ry="0.721662" fill="white"/>
<ellipse cx="855.469" cy="142.887" rx="0.814222" ry="0.721662" fill="white"/>
<ellipse cx="977.601" cy="142.887" rx="0.814222" ry="0.721662" fill="white"/>
<ellipse cx="1099.73" cy="142.887" rx="0.81411" ry="0.721662" fill="white"/>
<ellipse cx="1221.87" cy="142.887" rx="0.8142" ry="0.721662" fill="white"/>
<ellipse cx="1344" cy="142.887" rx="0.814244" ry="0.721662" fill="white"/>
<ellipse cx="1466.13" cy="142.887" rx="0.8142" ry="0.721662" fill="white"/>
<ellipse cx="301.799" cy="215.051" rx="0.81422" ry="0.721623" fill="white"/>
<ellipse cx="423.932" cy="215.051" rx="0.814222" ry="0.721623" fill="white"/>
<ellipse cx="546.065" cy="215.051" rx="0.814222" ry="0.721623" fill="white"/>
<ellipse cx="668.198" cy="215.051" rx="0.814211" ry="0.721623" fill="white"/>
<ellipse cx="790.331" cy="215.051" rx="0.814222" ry="0.721623" fill="white"/>
<ellipse cx="912.464" cy="215.051" rx="0.814289" ry="0.721623" fill="white"/>
<ellipse cx="1034.6" cy="215.051" rx="0.814222" ry="0.721623" fill="white"/>
<ellipse cx="1156.73" cy="215.051" rx="0.814244" ry="0.721623" fill="white"/>
<ellipse cx="1278.86" cy="215.051" rx="0.8142" ry="0.721623" fill="white"/>
<ellipse cx="1401" cy="215.051" rx="0.8142" ry="0.721623" fill="white"/>
<ellipse cx="326.226" cy="287.215" rx="0.81422" ry="0.721662" fill="white"/>
<ellipse cx="448.359" cy="287.215" rx="0.814222" ry="0.721662" fill="white"/>
<ellipse cx="570.492" cy="287.215" rx="0.814222" ry="0.721662" fill="white"/>
<ellipse cx="692.625" cy="287.215" rx="0.814188" ry="0.721662" fill="white"/>
<ellipse cx="814.757" cy="287.215" rx="0.8142" ry="0.721662" fill="white"/>
<ellipse cx="936.891" cy="287.215" rx="0.814244" ry="0.721662" fill="white"/>
<ellipse cx="1059.02" cy="287.215" rx="0.814289" ry="0.721662" fill="white"/>
<ellipse cx="1181.16" cy="287.215" rx="0.8142" ry="0.721662" fill="white"/>
<ellipse cx="1303.29" cy="287.215" rx="0.814244" ry="0.721662" fill="white"/>
<ellipse cx="1425.42" cy="287.215" rx="0.8142" ry="0.721662" fill="white"/>
<ellipse cx="383.221" cy="366.595" rx="0.814219" ry="0.721623" fill="white"/>
<ellipse cx="505.354" cy="366.595" rx="0.8142" ry="0.721623" fill="white"/>
<ellipse cx="627.487" cy="366.595" rx="0.814233" ry="0.721623" fill="white"/>
<ellipse cx="749.62" cy="366.595" rx="0.814222" ry="0.721623" fill="white"/>
<ellipse cx="871.753" cy="366.595" rx="0.8142" ry="0.721623" fill="white"/>
<ellipse cx="993.886" cy="366.595" rx="0.814222" ry="0.721623" fill="white"/>
<ellipse cx="1116.02" cy="366.595" rx="0.814289" ry="0.721623" fill="white"/>
<ellipse cx="1238.15" cy="366.595" rx="0.814244" ry="0.721623" fill="white"/>
<ellipse cx="1360.28" cy="366.595" rx="0.8142" ry="0.721623" fill="white"/>
<ellipse cx="1482.42" cy="366.595" rx="0.8142" ry="0.721623" fill="white"/>
<ellipse cx="334.368" cy="445.976" rx="0.81422" ry="0.721662" fill="white"/>
<ellipse cx="456.501" cy="445.976" rx="0.814222" ry="0.721662" fill="white"/>
<ellipse cx="578.634" cy="445.976" rx="0.814222" ry="0.721662" fill="white"/>
<ellipse cx="700.767" cy="445.976" rx="0.814222" ry="0.721662" fill="white"/>
<ellipse cx="822.9" cy="445.976" rx="0.814222" ry="0.721662" fill="white"/>
<ellipse cx="945.033" cy="445.976" rx="0.814133" ry="0.721662" fill="white"/>
<ellipse cx="1067.17" cy="445.976" rx="0.814222" ry="0.721662" fill="white"/>
<ellipse cx="1189.3" cy="445.976" rx="0.8142" ry="0.721662" fill="white"/>
<ellipse cx="1311.43" cy="445.976" rx="0.814244" ry="0.721662" fill="white"/>
<ellipse cx="1433.56" cy="445.976" rx="0.8142" ry="0.721662" fill="white"/>
<ellipse cx="399.506" cy="523.913" rx="0.814228" ry="0.721583" fill="white"/>
<ellipse cx="521.639" cy="523.913" rx="0.8142" ry="0.721583" fill="white"/>
<ellipse cx="643.772" cy="523.913" rx="0.814267" ry="0.721583" fill="white"/>
<ellipse cx="765.905" cy="523.913" rx="0.814222" ry="0.721583" fill="white"/>
<ellipse cx="888.037" cy="523.913" rx="0.8142" ry="0.721583" fill="white"/>
<ellipse cx="1010.17" cy="523.913" rx="0.814244" ry="0.721583" fill="white"/>
<ellipse cx="1132.3" cy="523.913" rx="0.814289" ry="0.721583" fill="white"/>
<ellipse cx="1254.44" cy="523.913" rx="0.8142" ry="0.721583" fill="white"/>
<ellipse cx="1376.57" cy="523.913" rx="0.814244" ry="0.721583" fill="white"/>
<ellipse cx="350.653" cy="603.294" rx="0.814219" ry="0.721662" fill="white"/>
<ellipse cx="472.785" cy="603.294" rx="0.8142" ry="0.721662" fill="white"/>
<ellipse cx="594.918" cy="603.294" rx="0.814222" ry="0.721662" fill="white"/>
<ellipse cx="717.052" cy="603.294" rx="0.814267" ry="0.721662" fill="white"/>
<ellipse cx="839.184" cy="603.294" rx="0.814222" ry="0.721662" fill="white"/>
<ellipse cx="961.317" cy="603.294" rx="0.814222" ry="0.721662" fill="white"/>
<ellipse cx="1083.45" cy="603.294" rx="0.814244" ry="0.721662" fill="white"/>
<ellipse cx="1205.58" cy="603.294" rx="0.8142" ry="0.721662" fill="white"/>
<ellipse cx="1327.72" cy="603.294" rx="0.8142" ry="0.721662" fill="white"/>
<ellipse cx="1449.85" cy="603.294" rx="0.814244" ry="0.721662" fill="white"/>
<ellipse cx="301.799" cy="682.674" rx="0.81422" ry="0.721623" fill="white"/>
<ellipse cx="423.932" cy="682.674" rx="0.814222" ry="0.721623" fill="white"/>
<ellipse cx="546.065" cy="682.674" rx="0.814222" ry="0.721623" fill="white"/>
<ellipse cx="668.198" cy="682.674" rx="0.814211" ry="0.721623" fill="white"/>
<ellipse cx="790.331" cy="682.674" rx="0.814222" ry="0.721623" fill="white"/>
<ellipse cx="912.464" cy="682.674" rx="0.814289" ry="0.721623" fill="white"/>
<ellipse cx="1034.6" cy="682.674" rx="0.814222" ry="0.721623" fill="white"/>
<ellipse cx="1156.73" cy="682.674" rx="0.814244" ry="0.721623" fill="white"/>
<ellipse cx="1278.86" cy="682.674" rx="0.8142" ry="0.721623" fill="white"/>
<ellipse cx="1401" cy="682.674" rx="0.8142" ry="0.721623" fill="white"/>
<ellipse cx="350.653" cy="762.054" rx="0.814219" ry="0.721543" fill="white"/>
<ellipse cx="472.785" cy="762.054" rx="0.8142" ry="0.721543" fill="white"/>
<ellipse cx="594.918" cy="762.054" rx="0.814222" ry="0.721543" fill="white"/>
<ellipse cx="717.052" cy="762.054" rx="0.814267" ry="0.721543" fill="white"/>
<ellipse cx="839.184" cy="762.054" rx="0.814222" ry="0.721543" fill="white"/>
<ellipse cx="961.317" cy="762.054" rx="0.814222" ry="0.721543" fill="white"/>
<ellipse cx="1083.45" cy="762.054" rx="0.814244" ry="0.721543" fill="white"/>
<ellipse cx="1205.58" cy="762.054" rx="0.8142" ry="0.721543" fill="white"/>
<ellipse cx="1327.72" cy="762.054" rx="0.8142" ry="0.721543" fill="white"/>
<ellipse cx="318.084" cy="834.218" rx="0.81422" ry="0.721623" fill="white"/>
<ellipse cx="440.217" cy="834.218" rx="0.814222" ry="0.721623" fill="white"/>
<ellipse cx="562.35" cy="834.218" rx="0.814222" ry="0.721623" fill="white"/>
<ellipse cx="684.483" cy="834.218" rx="0.814188" ry="0.721623" fill="white"/>
<ellipse cx="806.616" cy="834.218" rx="0.814222" ry="0.721623" fill="white"/>
<ellipse cx="928.748" cy="834.218" rx="0.814289" ry="0.721623" fill="white"/>
<ellipse cx="1050.88" cy="834.218" rx="0.814222" ry="0.721623" fill="white"/>
<ellipse cx="1173.01" cy="834.218" rx="0.8142" ry="0.721623" fill="white"/>
<ellipse cx="1295.15" cy="834.218" rx="0.8142" ry="0.721623" fill="white"/>
<ellipse cx="1295.15" cy="834.218" rx="0.8142" ry="0.721623" fill="white"/>
<ellipse cx="383.221" cy="906.382" rx="0.814219" ry="0.721702" fill="white"/>
<ellipse cx="505.354" cy="906.382" rx="0.8142" ry="0.721702" fill="white"/>
<ellipse cx="627.487" cy="906.382" rx="0.814233" ry="0.721702" fill="white"/>
<ellipse cx="749.62" cy="906.382" rx="0.814222" ry="0.721702" fill="white"/>
<ellipse cx="871.753" cy="906.382" rx="0.8142" ry="0.721702" fill="white"/>
<ellipse cx="993.886" cy="906.382" rx="0.814222" ry="0.721702" fill="white"/>
<ellipse cx="1116.02" cy="906.382" rx="0.814289" ry="0.721702" fill="white"/>
<ellipse cx="1238.15" cy="906.382" rx="0.814244" ry="0.721702" fill="white"/>
<ellipse cx="1360.28" cy="906.382" rx="0.8142" ry="0.721702" fill="white"/>
<ellipse cx="1449.85" cy="762.054" rx="0.814244" ry="0.721543" fill="white"/>
<ellipse cx="630.744" cy="-0.719679" rx="1.62844" ry="1.44328" fill="white"/>
<ellipse cx="345.767" cy="136.392" rx="1.62844" ry="1.44328" fill="white"/>
<ellipse cx="590.033" cy="143.608" rx="1.62843" ry="1.44328" fill="white"/>
<ellipse cx="834.299" cy="136.392" rx="1.62842" ry="1.44328" fill="white"/>
<ellipse cx="1078.56" cy="129.176" rx="1.62853" ry="1.44328" fill="white"/>
<ellipse cx="1322.83" cy="136.392" rx="1.62844" ry="1.44328" fill="white"/>
<ellipse cx="1567.1" cy="142.165" rx="1.62827" ry="1.44328" fill="white"/>
<ellipse cx="476.043" cy="280.72" rx="1.62846" ry="1.44328" fill="white"/>
<ellipse cx="720.308" cy="287.936" rx="1.62844" ry="1.44332" fill="white"/>
<ellipse cx="964.574" cy="280.72" rx="1.62842" ry="1.44328" fill="white"/>
<ellipse cx="1208.84" cy="273.504" rx="1.62844" ry="1.44328" fill="white"/>
<ellipse cx="1453.11" cy="280.72" rx="1.62844" ry="1.44328" fill="white"/>
<ellipse cx="323.783" cy="425.048" rx="1.62844" ry="1.44328" fill="white"/>
<ellipse cx="568.049" cy="432.264" rx="1.62843" ry="1.44328" fill="white"/>
<ellipse cx="812.315" cy="425.048" rx="1.62844" ry="1.44328" fill="white"/>
<ellipse cx="1056.58" cy="417.832" rx="1.62844" ry="1.44328" fill="white"/>
<ellipse cx="1300.85" cy="425.048" rx="1.62844" ry="1.44328" fill="white"/>
<ellipse cx="1545.11" cy="430.822" rx="1.62831" ry="1.44332" fill="white"/>
<ellipse cx="342.511" cy="549.17" rx="1.62844" ry="1.44328" fill="white"/>
<ellipse cx="586.776" cy="556.387" rx="1.62844" ry="1.44328" fill="white"/>
<ellipse cx="831.042" cy="549.17" rx="1.62844" ry="1.44328" fill="white"/>
<ellipse cx="1075.31" cy="541.954" rx="1.6284" ry="1.44328" fill="white"/>
<ellipse cx="1319.57" cy="549.17" rx="1.62844" ry="1.44328" fill="white"/>
<ellipse cx="1563.84" cy="556.387" rx="1.62844" ry="1.44328" fill="white"/>
<ellipse cx="401.949" cy="703.602" rx="1.62844" ry="1.44328" fill="white"/>
<ellipse cx="646.214" cy="710.818" rx="1.6284" ry="1.44325" fill="white"/>
<ellipse cx="890.48" cy="703.602" rx="1.62844" ry="1.44328" fill="white"/>
<ellipse cx="1134.75" cy="696.385" rx="1.62835" ry="1.44328" fill="white"/>
<ellipse cx="1379.01" cy="703.602" rx="1.6284" ry="1.44328" fill="white"/>
<ellipse cx="347.396" cy="858.033" rx="1.62844" ry="1.44332" fill="white"/>
<ellipse cx="591.662" cy="865.249" rx="1.62843" ry="1.44325" fill="white"/>
<ellipse cx="835.928" cy="858.033" rx="1.62844" ry="1.44332" fill="white"/>
<ellipse cx="1080.19" cy="850.816" rx="1.62844" ry="1.44325" fill="white"/>
<ellipse cx="1324.46" cy="858.033" rx="1.62844" ry="1.44332" fill="white"/>
<ellipse cx="1441.71" cy="832.053" rx="1.62844" ry="1.44332" fill="white"/>
<ellipse cx="1568.73" cy="865.249" rx="1.62858" ry="1.44325" fill="white"/>
<ellipse cx="272.488" cy="71.4443" rx="1.62844" ry="1.44325" fill="white"/>
<ellipse cx="516.753" cy="78.6608" rx="1.62843" ry="1.44328" fill="white"/>
<ellipse cx="761.019" cy="71.4443" rx="1.62842" ry="1.44325" fill="white"/>
<ellipse cx="1005.29" cy="64.228" rx="1.62851" ry="1.44328" fill="white"/>
<ellipse cx="1249.55" cy="71.4443" rx="1.62844" ry="1.44325" fill="white"/>
<ellipse cx="1493.82" cy="78.6608" rx="1.62844" ry="1.44328" fill="white"/>
<ellipse cx="231.777" cy="214.329" rx="1.62844" ry="1.44328" fill="white"/>
<ellipse cx="476.042" cy="222.989" rx="1.62846" ry="1.44328" fill="white"/>
<ellipse cx="720.308" cy="215.772" rx="1.62844" ry="1.44328" fill="white"/>
<ellipse cx="964.574" cy="208.556" rx="1.62842" ry="1.44328" fill="white"/>
<ellipse cx="1208.84" cy="215.772" rx="1.62844" ry="1.44328" fill="white"/>
<ellipse cx="1453.11" cy="222.989" rx="1.62844" ry="1.44328" fill="white"/>
<ellipse cx="362.052" cy="360.1" rx="1.62844" ry="1.44325" fill="white"/>
<ellipse cx="606.317" cy="367.317" rx="1.62844" ry="1.44328" fill="white"/>
<ellipse cx="850.583" cy="360.1" rx="1.62844" ry="1.44325" fill="white"/>
<ellipse cx="1094.85" cy="352.884" rx="1.62853" ry="1.44328" fill="white"/>
<ellipse cx="1339.11" cy="360.1" rx="1.62849" ry="1.44325" fill="white"/>
<ellipse cx="1583.38" cy="365.874" rx="1.62844" ry="1.44328" fill="white"/>
<ellipse cx="209.793" cy="502.986" rx="1.62844" ry="1.44328" fill="white"/>
<ellipse cx="454.058" cy="510.202" rx="1.62844" ry="1.44328" fill="white"/>
<ellipse cx="698.324" cy="502.986" rx="1.62847" ry="1.44328" fill="white"/>
<ellipse cx="942.59" cy="495.769" rx="1.62851" ry="1.44328" fill="white"/>
<ellipse cx="1186.86" cy="502.986" rx="1.62844" ry="1.44328" fill="white"/>
<ellipse cx="1431.12" cy="510.202" rx="1.62844" ry="1.44328" fill="white"/>
<ellipse cx="228.52" cy="628.551" rx="1.62844" ry="1.44325" fill="white"/>
<ellipse cx="472.785" cy="635.767" rx="1.62842" ry="1.44328" fill="white"/>
<ellipse cx="717.051" cy="628.551" rx="1.62842" ry="1.44325" fill="white"/>
<ellipse cx="961.317" cy="621.334" rx="1.62851" ry="1.44332" fill="white"/>
<ellipse cx="1205.58" cy="628.551" rx="1.62844" ry="1.44325" fill="white"/>
<ellipse cx="1449.85" cy="635.767" rx="1.62844" ry="1.44328" fill="white"/>
<ellipse cx="287.958" cy="782.982" rx="1.62843" ry="1.44325" fill="white"/>
<ellipse cx="532.224" cy="790.198" rx="1.62843" ry="1.44325" fill="white"/>
<ellipse cx="776.49" cy="782.982" rx="1.62844" ry="1.44325" fill="white"/>
<ellipse cx="1020.76" cy="775.765" rx="1.62838" ry="1.44325" fill="white"/>
<ellipse cx="1265.02" cy="782.982" rx="1.62844" ry="1.44325" fill="white"/>
<ellipse cx="1470.2" cy="918.073" rx="1.62844" ry="1.44325" fill="white"/>
<ellipse cx="334.368" cy="925.433" rx="0.814219" ry="0.721623" fill="white"/>
<ellipse cx="456.501" cy="925.433" rx="0.8142" ry="0.721623" fill="white"/>
<ellipse cx="578.635" cy="925.433" rx="0.814222" ry="0.721623" fill="white"/>
<ellipse cx="700.767" cy="925.433" rx="0.814267" ry="0.721623" fill="white"/>
<ellipse cx="822.9" cy="925.433" rx="0.814222" ry="0.721623" fill="white"/>
<ellipse cx="945.033" cy="925.433" rx="0.814133" ry="0.721623" fill="white"/>
<ellipse cx="1067.17" cy="925.433" rx="0.814289" ry="0.721623" fill="white"/>
<ellipse cx="1189.3" cy="925.433" rx="0.814244" ry="0.721623" fill="white"/>
<ellipse cx="1311.43" cy="925.433" rx="0.814244" ry="0.721623" fill="white"/>
<ellipse cx="1311.43" cy="925.433" rx="0.814244" ry="0.721623" fill="white"/>
<ellipse cx="375.079" cy="932.65" rx="0.814211" ry="0.721623" fill="white"/>
<ellipse cx="497.213" cy="932.65" rx="0.814233" ry="0.721623" fill="white"/>
<ellipse cx="619.345" cy="932.65" rx="0.814177" ry="0.721623" fill="white"/>
<ellipse cx="741.477" cy="932.65" rx="0.814222" ry="0.721623" fill="white"/>
<ellipse cx="863.611" cy="932.65" rx="0.814222" ry="0.721623" fill="white"/>
<ellipse cx="985.744" cy="932.65" rx="0.814222" ry="0.721623" fill="white"/>
<ellipse cx="1107.88" cy="932.65" rx="0.814289" ry="0.721623" fill="white"/>
<ellipse cx="1230.01" cy="932.65" rx="0.8142" ry="0.721623" fill="white"/>
<ellipse cx="1352.14" cy="932.65" rx="0.814244" ry="0.721623" fill="white"/>
<ellipse cx="1352.14" cy="932.65" rx="0.814244" ry="0.721623" fill="white"/>
<ellipse cx="321.34" cy="889.352" rx="0.814219" ry="0.721543" fill="white"/>
<ellipse cx="443.474" cy="889.352" rx="0.8142" ry="0.721543" fill="white"/>
<ellipse cx="565.606" cy="889.352" rx="0.814222" ry="0.721543" fill="white"/>
<ellipse cx="687.739" cy="889.352" rx="0.814267" ry="0.721543" fill="white"/>
<ellipse cx="809.872" cy="889.352" rx="0.814222" ry="0.721543" fill="white"/>
<ellipse cx="932.005" cy="889.352" rx="0.814222" ry="0.721543" fill="white"/>
<ellipse cx="1054.14" cy="889.352" rx="0.814244" ry="0.721543" fill="white"/>
<ellipse cx="1176.27" cy="889.352" rx="0.8142" ry="0.721543" fill="white"/>
<ellipse cx="1298.4" cy="889.352" rx="0.8142" ry="0.721543" fill="white"/>
<ellipse cx="1420.54" cy="889.352" rx="0.814244" ry="0.721543" fill="white"/>
<ellipse cx="502.912" cy="917.495" rx="1.62843" ry="1.44325" fill="white"/>
<ellipse cx="747.178" cy="910.279" rx="1.62844" ry="1.44325" fill="white"/>
<ellipse cx="991.443" cy="903.063" rx="1.62838" ry="1.44325" fill="white"/>
<ellipse cx="1235.71" cy="910.279" rx="1.62844" ry="1.44325" fill="white"/>
<ellipse cx="1509.29" cy="790.198" rx="1.62831" ry="1.44325" fill="white"/>
<ellipse cx="233.405" cy="937.413" rx="1.62845" ry="1.44332" fill="white"/>
<ellipse cx="477.671" cy="944.629" rx="1.62843" ry="1.44317" fill="white"/>
<ellipse cx="721.937" cy="937.413" rx="1.6284" ry="1.44332" fill="white"/>
<ellipse cx="966.203" cy="930.196" rx="1.62853" ry="1.44332" fill="white"/>
<ellipse cx="1210.47" cy="937.413" rx="1.6284" ry="1.44332" fill="white"/>
<ellipse cx="1454.73" cy="944.629" rx="1.62844" ry="1.44317" fill="white"/>
</svg>
