<svg width="1600" height="960" viewBox="0 0 1600 960" fill="none" xmlns="http://www.w3.org/2000/svg">
<ellipse cx="65.968" cy="46.19" rx="0.952477" ry="0.855732" fill="white"/>
<ellipse cx="208.827" cy="46.19" rx="0.952372" ry="0.855732" fill="white"/>
<ellipse cx="351.687" cy="46.19" rx="0.952425" ry="0.855732" fill="white"/>
<ellipse cx="494.546" cy="46.19" rx="0.952372" ry="0.855732" fill="white"/>
<ellipse cx="123.112" cy="131.763" rx="0.952268" ry="0.855732" fill="white"/>
<ellipse cx="265.971" cy="131.763" rx="0.952425" ry="0.855732" fill="white"/>
<ellipse cx="408.831" cy="131.763" rx="0.952372" ry="0.855732" fill="white"/>
<ellipse cx="104.064" cy="217.336" rx="0.952477" ry="0.855732" fill="white"/>
<ellipse cx="246.923" cy="217.336" rx="0.952425" ry="0.855732" fill="white"/>
<ellipse cx="389.782" cy="217.336" rx="0.952425" ry="0.855732" fill="white"/>
<ellipse cx="532.642" cy="217.336" rx="0.952372" ry="0.855732" fill="white"/>
<ellipse cx="18.348" cy="302.909" rx="0.952477" ry="0.855709" fill="white"/>
<ellipse cx="161.208" cy="302.909" rx="0.952425" ry="0.855709" fill="white"/>
<ellipse cx="304.067" cy="302.909" rx="0.952425" ry="0.855709" fill="white"/>
<ellipse cx="446.926" cy="302.909" rx="0.952372" ry="0.855709" fill="white"/>
<ellipse cx="589.785" cy="302.909" rx="0.952739" ry="0.855709" fill="white"/>
<ellipse cx="85.0157" cy="388.482" rx="0.952372" ry="0.855709" fill="white"/>
<ellipse cx="227.875" cy="388.482" rx="0.952425" ry="0.855709" fill="white"/>
<ellipse cx="370.734" cy="388.482" rx="0.952425" ry="0.855709" fill="white"/>
<ellipse cx="513.594" cy="388.482" rx="0.952372" ry="0.855709" fill="white"/>
<ellipse cx="113.588" cy="474.055" rx="0.952425" ry="0.855709" fill="white"/>
<ellipse cx="256.447" cy="474.055" rx="0.952372" ry="0.855709" fill="white"/>
<ellipse cx="399.307" cy="474.055" rx="0.952425" ry="0.855709" fill="white"/>
<ellipse cx="542.166" cy="474.055" rx="0.952425" ry="0.855709" fill="white"/>
<ellipse cx="37.396" cy="568.185" rx="0.952294" ry="0.855709" fill="white"/>
<ellipse cx="180.255" cy="568.185" rx="0.952425" ry="0.855709" fill="white"/>
<ellipse cx="323.115" cy="568.185" rx="0.952372" ry="0.855709" fill="white"/>
<ellipse cx="465.974" cy="568.185" rx="0.952372" ry="0.855709" fill="white"/>
<ellipse cx="608.834" cy="568.185" rx="0.952425" ry="0.855709" fill="white"/>
<ellipse cx="123.112" cy="662.315" rx="0.952268" ry="0.855755" fill="white"/>
<ellipse cx="265.971" cy="662.315" rx="0.952425" ry="0.855755" fill="white"/>
<ellipse cx="408.831" cy="662.315" rx="0.952372" ry="0.855755" fill="white"/>
<ellipse cx="551.69" cy="662.315" rx="0.952372" ry="0.855755" fill="white"/>
<ellipse cx="56.444" cy="754.734" rx="0.952399" ry="0.855755" fill="white"/>
<ellipse cx="199.303" cy="754.734" rx="0.952425" ry="0.855755" fill="white"/>
<ellipse cx="342.162" cy="754.734" rx="0.952372" ry="0.855755" fill="white"/>
<ellipse cx="485.022" cy="754.734" rx="0.952425" ry="0.855755" fill="white"/>
<ellipse cx="-0.69988" cy="848.864" rx="0.952372" ry="0.855755" fill="white"/>
<ellipse cx="142.16" cy="848.864" rx="0.952425" ry="0.855755" fill="white"/>
<ellipse cx="285.019" cy="848.864" rx="0.952425" ry="0.855755" fill="white"/>
<ellipse cx="427.878" cy="848.864" rx="0.952372" ry="0.855755" fill="white"/>
<ellipse cx="570.738" cy="848.864" rx="0.952425" ry="0.855755" fill="white"/>
<ellipse cx="85.0157" cy="942.995" rx="0.952372" ry="0.855709" fill="white"/>
<ellipse cx="227.875" cy="942.995" rx="0.952425" ry="0.855709" fill="white"/>
<ellipse cx="370.734" cy="942.995" rx="0.952425" ry="0.855709" fill="white"/>
<ellipse cx="513.594" cy="942.995" rx="0.952372" ry="0.855709" fill="white"/>
<ellipse cx="113.588" cy="54.7472" rx="0.952425" ry="0.855732" fill="white"/>
<ellipse cx="256.447" cy="54.7472" rx="0.952372" ry="0.855732" fill="white"/>
<ellipse cx="399.307" cy="54.7472" rx="0.952425" ry="0.855732" fill="white"/>
<ellipse cx="542.166" cy="54.7472" rx="0.952425" ry="0.855732" fill="white"/>
<ellipse cx="27.8721" cy="140.32" rx="0.952399" ry="0.855732" fill="white"/>
<ellipse cx="170.731" cy="140.32" rx="0.952372" ry="0.855732" fill="white"/>
<ellipse cx="313.591" cy="140.32" rx="0.952425" ry="0.855732" fill="white"/>
<ellipse cx="456.45" cy="140.32" rx="0.952425" ry="0.855732" fill="white"/>
<ellipse cx="8.82422" cy="225.893" rx="0.952399" ry="0.855732" fill="white"/>
<ellipse cx="151.684" cy="225.893" rx="0.952477" ry="0.855732" fill="white"/>
<ellipse cx="294.543" cy="225.893" rx="0.952372" ry="0.855732" fill="white"/>
<ellipse cx="437.402" cy="225.893" rx="0.952425" ry="0.855732" fill="white"/>
<ellipse cx="580.262" cy="225.893" rx="0.952215" ry="0.855732" fill="white"/>
<ellipse cx="65.9682" cy="311.466" rx="0.952477" ry="0.855709" fill="white"/>
<ellipse cx="208.827" cy="311.466" rx="0.952372" ry="0.855709" fill="white"/>
<ellipse cx="351.687" cy="311.466" rx="0.952425" ry="0.855709" fill="white"/>
<ellipse cx="494.546" cy="311.466" rx="0.952372" ry="0.855709" fill="white"/>
<ellipse cx="637.405" cy="309.755" rx="0.952163" ry="0.855709" fill="white"/>
<ellipse cx="132.636" cy="397.039" rx="0.95232" ry="0.855755" fill="white"/>
<ellipse cx="275.495" cy="397.039" rx="0.952372" ry="0.855755" fill="white"/>
<ellipse cx="418.355" cy="397.039" rx="0.952425" ry="0.855755" fill="white"/>
<ellipse cx="561.214" cy="397.039" rx="0.952425" ry="0.855755" fill="white"/>
<ellipse cx="18.348" cy="482.612" rx="0.952477" ry="0.855755" fill="white"/>
<ellipse cx="161.208" cy="482.612" rx="0.952425" ry="0.855755" fill="white"/>
<ellipse cx="304.067" cy="482.612" rx="0.952425" ry="0.855755" fill="white"/>
<ellipse cx="446.926" cy="482.612" rx="0.952372" ry="0.855755" fill="white"/>
<ellipse cx="589.785" cy="482.612" rx="0.952739" ry="0.855755" fill="white"/>
<ellipse cx="85.0159" cy="576.742" rx="0.952372" ry="0.855709" fill="white"/>
<ellipse cx="227.875" cy="576.742" rx="0.952425" ry="0.855709" fill="white"/>
<ellipse cx="370.735" cy="576.742" rx="0.952425" ry="0.855709" fill="white"/>
<ellipse cx="513.594" cy="576.742" rx="0.952372" ry="0.855709" fill="white"/>
<ellipse cx="656.453" cy="575.031" rx="0.952425" ry="0.855755" fill="white"/>
<ellipse cx="27.8721" cy="670.872" rx="0.952399" ry="0.855709" fill="white"/>
<ellipse cx="170.731" cy="670.872" rx="0.952372" ry="0.855709" fill="white"/>
<ellipse cx="313.591" cy="670.872" rx="0.952425" ry="0.855709" fill="white"/>
<ellipse cx="456.45" cy="670.872" rx="0.952425" ry="0.855709" fill="white"/>
<ellipse cx="599.31" cy="670.872" rx="0.952425" ry="0.855709" fill="white"/>
<ellipse cx="104.064" cy="763.292" rx="0.952477" ry="0.855709" fill="white"/>
<ellipse cx="246.923" cy="763.292" rx="0.952425" ry="0.855709" fill="white"/>
<ellipse cx="389.783" cy="763.292" rx="0.952425" ry="0.855709" fill="white"/>
<ellipse cx="532.642" cy="763.292" rx="0.952372" ry="0.855709" fill="white"/>
<ellipse cx="46.9199" cy="857.422" rx="0.952294" ry="0.855755" fill="white"/>
<ellipse cx="189.78" cy="857.422" rx="0.952372" ry="0.855755" fill="white"/>
<ellipse cx="332.639" cy="857.422" rx="0.952425" ry="0.855755" fill="white"/>
<ellipse cx="475.498" cy="857.422" rx="0.952425" ry="0.855755" fill="white"/>
<ellipse cx="618.357" cy="857.422" rx="0.952425" ry="0.855755" fill="white"/>
<ellipse cx="132.636" cy="951.552" rx="0.95232" ry="0.855755" fill="white"/>
<ellipse cx="275.495" cy="951.552" rx="0.952372" ry="0.855755" fill="white"/>
<ellipse cx="418.355" cy="951.552" rx="0.952425" ry="0.855755" fill="white"/>
<ellipse cx="561.214" cy="951.552" rx="0.952425" ry="0.855755" fill="white"/>
<ellipse cx="60.2536" cy="1.69228" rx="0.952477" ry="0.855732" fill="white"/>
<ellipse cx="203.113" cy="1.69228" rx="0.952372" ry="0.855732" fill="white"/>
<ellipse cx="345.972" cy="1.69228" rx="0.952425" ry="0.855732" fill="white"/>
<ellipse cx="488.832" cy="1.69228" rx="0.952372" ry="0.855732" fill="white"/>
<ellipse cx="12.6339" cy="88.9763" rx="0.952294" ry="0.855732" fill="white"/>
<ellipse cx="155.493" cy="88.9763" rx="0.952372" ry="0.855732" fill="white"/>
<ellipse cx="298.352" cy="88.9763" rx="0.952372" ry="0.855732" fill="white"/>
<ellipse cx="441.212" cy="88.9763" rx="0.952425" ry="0.855732" fill="white"/>
<ellipse cx="69.7775" cy="174.549" rx="0.952399" ry="0.855732" fill="white"/>
<ellipse cx="212.637" cy="174.549" rx="0.952372" ry="0.855732" fill="white"/>
<ellipse cx="355.496" cy="174.549" rx="0.952425" ry="0.855732" fill="white"/>
<ellipse cx="50.7294" cy="260.122" rx="0.952399" ry="0.855709" fill="white"/>
<ellipse cx="193.589" cy="260.122" rx="0.952372" ry="0.855709" fill="white"/>
<ellipse cx="336.448" cy="260.122" rx="0.952372" ry="0.855709" fill="white"/>
<ellipse cx="479.308" cy="260.122" rx="0.952425" ry="0.855709" fill="white"/>
<ellipse cx="107.873" cy="345.695" rx="0.952268" ry="0.855755" fill="white"/>
<ellipse cx="250.732" cy="345.695" rx="0.952372" ry="0.855755" fill="white"/>
<ellipse cx="393.592" cy="345.695" rx="0.952425" ry="0.855755" fill="white"/>
<ellipse cx="536.452" cy="345.695" rx="0.952372" ry="0.855755" fill="white"/>
<ellipse cx="31.6816" cy="431.268" rx="0.952399" ry="0.855709" fill="white"/>
<ellipse cx="174.541" cy="431.268" rx="0.952425" ry="0.855709" fill="white"/>
<ellipse cx="317.4" cy="431.268" rx="0.952372" ry="0.855709" fill="white"/>
<ellipse cx="460.26" cy="431.268" rx="0.952372" ry="0.855709" fill="white"/>
<ellipse cx="60.2536" cy="516.841" rx="0.952477" ry="0.855755" fill="white"/>
<ellipse cx="203.113" cy="516.841" rx="0.952372" ry="0.855755" fill="white"/>
<ellipse cx="345.972" cy="516.841" rx="0.952425" ry="0.855755" fill="white"/>
<ellipse cx="488.832" cy="516.841" rx="0.952372" ry="0.855755" fill="white"/>
<ellipse cx="126.921" cy="610.971" rx="0.952477" ry="0.855709" fill="white"/>
<ellipse cx="269.781" cy="610.971" rx="0.952425" ry="0.855709" fill="white"/>
<ellipse cx="412.64" cy="610.971" rx="0.952372" ry="0.855709" fill="white"/>
<ellipse cx="555.499" cy="610.971" rx="0.952372" ry="0.855709" fill="white"/>
<ellipse cx="69.7775" cy="705.102" rx="0.952399" ry="0.855755" fill="white"/>
<ellipse cx="212.637" cy="705.102" rx="0.952372" ry="0.855755" fill="white"/>
<ellipse cx="355.496" cy="705.102" rx="0.952425" ry="0.855755" fill="white"/>
<ellipse cx="498.356" cy="705.102" rx="0.952372" ry="0.855755" fill="white"/>
<ellipse cx="3.1099" cy="797.521" rx="0.952425" ry="0.855662" fill="white"/>
<ellipse cx="145.969" cy="797.521" rx="0.952477" ry="0.855662" fill="white"/>
<ellipse cx="288.829" cy="797.521" rx="0.952372" ry="0.855662" fill="white"/>
<ellipse cx="431.688" cy="797.521" rx="0.952425" ry="0.855662" fill="white"/>
<ellipse cx="88.8257" cy="891.651" rx="0.952425" ry="0.855755" fill="white"/>
<ellipse cx="231.685" cy="891.651" rx="0.952372" ry="0.855755" fill="white"/>
<ellipse cx="374.544" cy="891.651" rx="0.952372" ry="0.855755" fill="white"/>
<ellipse cx="517.404" cy="891.651" rx="0.952425" ry="0.855755" fill="white"/>
<ellipse cx="749.788" cy="2.54807" rx="1.9048" ry="1.71146" fill="white"/>
<ellipse cx="130.731" cy="158.291" rx="1.90485" ry="1.71144" fill="white"/>
<ellipse cx="416.45" cy="166.848" rx="1.90474" ry="1.71146" fill="white"/>
<ellipse cx="702.168" cy="173.694" rx="1.9048" ry="1.71146" fill="white"/>
<ellipse cx="83.1113" cy="329.436" rx="1.9049" ry="1.71146" fill="white"/>
<ellipse cx="368.83" cy="337.994" rx="1.9048" ry="1.71146" fill="white"/>
<ellipse cx="654.548" cy="344.84" rx="1.90459" ry="1.71146" fill="white"/>
<ellipse cx="235.494" cy="500.582" rx="1.9048" ry="1.71146" fill="white"/>
<ellipse cx="521.213" cy="509.139" rx="1.9048" ry="1.71146" fill="white"/>
<ellipse cx="806.932" cy="515.986" rx="1.90459" ry="1.71146" fill="white"/>
<ellipse cx="57.3963" cy="671.728" rx="1.9048" ry="1.71146" fill="white"/>
<ellipse cx="343.115" cy="680.285" rx="1.9048" ry="1.71146" fill="white"/>
<ellipse cx="628.834" cy="687.132" rx="1.90464" ry="1.71151" fill="white"/>
<ellipse cx="79.3015" cy="818.914" rx="1.90474" ry="1.71146" fill="white"/>
<ellipse cx="365.02" cy="827.471" rx="1.9048" ry="1.71146" fill="white"/>
<ellipse cx="650.739" cy="836.029" rx="1.9048" ry="1.71146" fill="white"/>
<ellipse cx="45.0152" cy="81.2748" rx="1.90482" ry="1.71146" fill="white"/>
<ellipse cx="330.734" cy="89.8321" rx="1.90474" ry="1.71146" fill="white"/>
<ellipse cx="616.453" cy="96.6784" rx="1.9048" ry="1.71146" fill="white"/>
<ellipse cx="283.114" cy="260.978" rx="1.9048" ry="1.71142" fill="white"/>
<ellipse cx="568.833" cy="269.535" rx="1.9048" ry="1.71146" fill="white"/>
<ellipse cx="235.494" cy="432.124" rx="1.9048" ry="1.71146" fill="white"/>
<ellipse cx="521.213" cy="440.681" rx="1.9048" ry="1.71146" fill="white"/>
<ellipse cx="102.159" cy="594.713" rx="1.9049" ry="1.71146" fill="white"/>
<ellipse cx="387.878" cy="603.27" rx="1.90485" ry="1.71142" fill="white"/>
<ellipse cx="673.596" cy="610.116" rx="1.9048" ry="1.71146" fill="white"/>
<ellipse cx="209.779" cy="772.705" rx="1.9048" ry="1.71146" fill="white"/>
<ellipse cx="495.499" cy="781.262" rx="1.9048" ry="1.71146" fill="white"/>
<ellipse cx="231.685" cy="921.602" rx="1.9048" ry="1.71142" fill="white"/>
<ellipse cx="517.403" cy="930.159" rx="1.9048" ry="1.71146" fill="white"/>
<ellipse cx="603.119" cy="70.1504" rx="0.952395" ry="0.855732" fill="white"/>
<ellipse cx="745.978" cy="70.1504" rx="0.952399" ry="0.855732" fill="white"/>
<ellipse cx="888.838" cy="70.1504" rx="0.952438" ry="0.855732" fill="white"/>
<ellipse cx="1031.7" cy="70.1504" rx="0.952399" ry="0.855732" fill="white"/>
<ellipse cx="1174.56" cy="70.1504" rx="0.952399" ry="0.855732" fill="white"/>
<ellipse cx="1317.42" cy="70.1504" rx="0.952477" ry="0.855732" fill="white"/>
<ellipse cx="1460.28" cy="70.1504" rx="0.952268" ry="0.855732" fill="white"/>
<ellipse cx="584.071" cy="155.723" rx="0.952395" ry="0.855732" fill="white"/>
<ellipse cx="726.93" cy="155.723" rx="0.952372" ry="0.855732" fill="white"/>
<ellipse cx="869.79" cy="155.723" rx="0.952399" ry="0.855732" fill="white"/>
<ellipse cx="1012.65" cy="155.723" rx="0.952451" ry="0.855732" fill="white"/>
<ellipse cx="1155.51" cy="155.723" rx="0.952399" ry="0.855732" fill="white"/>
<ellipse cx="1298.37" cy="155.723" rx="0.952294" ry="0.855732" fill="white"/>
<ellipse cx="1441.23" cy="155.723" rx="0.952477" ry="0.855732" fill="white"/>
<ellipse cx="1584.09" cy="155.723" rx="0.952425" ry="0.855732" fill="white"/>
<ellipse cx="641.215" cy="241.296" rx="0.952405" ry="0.855709" fill="white"/>
<ellipse cx="784.074" cy="241.296" rx="0.952399" ry="0.855709" fill="white"/>
<ellipse cx="926.934" cy="241.296" rx="0.952438" ry="0.855709" fill="white"/>
<ellipse cx="1069.79" cy="241.296" rx="0.952399" ry="0.855709" fill="white"/>
<ellipse cx="1212.65" cy="241.296" rx="0.952372" ry="0.855709" fill="white"/>
<ellipse cx="1355.51" cy="241.296" rx="0.952477" ry="0.855709" fill="white"/>
<ellipse cx="1498.37" cy="241.296" rx="0.952425" ry="0.855709" fill="white"/>
<ellipse cx="565.023" cy="326.869" rx="0.952399" ry="0.855709" fill="white"/>
<ellipse cx="707.882" cy="326.869" rx="0.952399" ry="0.855709" fill="white"/>
<ellipse cx="850.742" cy="326.869" rx="0.952399" ry="0.855709" fill="white"/>
<ellipse cx="993.601" cy="326.869" rx="0.952425" ry="0.855709" fill="white"/>
<ellipse cx="1136.46" cy="326.869" rx="0.952399" ry="0.855709" fill="white"/>
<ellipse cx="1279.32" cy="326.869" rx="0.952399" ry="0.855709" fill="white"/>
<ellipse cx="1422.18" cy="326.869" rx="0.952372" ry="0.855709" fill="white"/>
<ellipse cx="1565.04" cy="326.869" rx="0.952425" ry="0.855709" fill="white"/>
<ellipse cx="593.595" cy="412.442" rx="0.952399" ry="0.855709" fill="white"/>
<ellipse cx="736.454" cy="412.442" rx="0.952418" ry="0.855709" fill="white"/>
<ellipse cx="879.314" cy="412.442" rx="0.952399" ry="0.855709" fill="white"/>
<ellipse cx="1022.17" cy="412.442" rx="0.952372" ry="0.855709" fill="white"/>
<ellipse cx="1165.03" cy="412.442" rx="0.952425" ry="0.855709" fill="white"/>
<ellipse cx="1307.89" cy="412.442" rx="0.952399" ry="0.855709" fill="white"/>
<ellipse cx="1450.75" cy="412.442" rx="0.952425" ry="0.855709" fill="white"/>
<ellipse cx="1593.61" cy="412.442" rx="0.952372" ry="0.855709" fill="white"/>
<ellipse cx="660.263" cy="506.572" rx="0.952392" ry="0.855709" fill="white"/>
<ellipse cx="803.122" cy="506.572" rx="0.952399" ry="0.855709" fill="white"/>
<ellipse cx="945.981" cy="506.572" rx="0.952385" ry="0.855709" fill="white"/>
<ellipse cx="1088.84" cy="506.572" rx="0.952399" ry="0.855709" fill="white"/>
<ellipse cx="1231.7" cy="506.572" rx="0.952477" ry="0.855709" fill="white"/>
<ellipse cx="1374.56" cy="506.572" rx="0.952294" ry="0.855709" fill="white"/>
<ellipse cx="1517.42" cy="506.572" rx="0.952425" ry="0.855709" fill="white"/>
<ellipse cx="603.119" cy="600.703" rx="0.952395" ry="0.855755" fill="white"/>
<ellipse cx="745.978" cy="600.703" rx="0.952399" ry="0.855755" fill="white"/>
<ellipse cx="888.838" cy="600.703" rx="0.952438" ry="0.855755" fill="white"/>
<ellipse cx="1031.7" cy="600.703" rx="0.952399" ry="0.855755" fill="white"/>
<ellipse cx="1174.56" cy="600.703" rx="0.952399" ry="0.855755" fill="white"/>
<ellipse cx="1317.42" cy="600.703" rx="0.952477" ry="0.855755" fill="white"/>
<ellipse cx="1460.28" cy="600.703" rx="0.952268" ry="0.855755" fill="white"/>
<ellipse cx="679.311" cy="693.122" rx="0.952392" ry="0.855755" fill="white"/>
<ellipse cx="822.17" cy="693.122" rx="0.952385" ry="0.855755" fill="white"/>
<ellipse cx="965.029" cy="693.122" rx="0.952438" ry="0.855755" fill="white"/>
<ellipse cx="1107.89" cy="693.122" rx="0.952372" ry="0.855755" fill="white"/>
<ellipse cx="1250.75" cy="693.122" rx="0.952372" ry="0.855755" fill="white"/>
<ellipse cx="1393.61" cy="693.122" rx="0.952399" ry="0.855755" fill="white"/>
<ellipse cx="1536.47" cy="693.122" rx="0.952425" ry="0.855755" fill="white"/>
<ellipse cx="622.167" cy="787.252" rx="0.952395" ry="0.855755" fill="white"/>
<ellipse cx="765.026" cy="787.252" rx="0.952399" ry="0.855755" fill="white"/>
<ellipse cx="907.886" cy="787.252" rx="0.952412" ry="0.855755" fill="white"/>
<ellipse cx="1050.74" cy="787.252" rx="0.952399" ry="0.855755" fill="white"/>
<ellipse cx="1193.6" cy="787.252" rx="0.952372" ry="0.855755" fill="white"/>
<ellipse cx="1336.46" cy="787.252" rx="0.952372" ry="0.855755" fill="white"/>
<ellipse cx="1479.32" cy="787.252" rx="0.952425" ry="0.855755" fill="white"/>
<ellipse cx="565.023" cy="881.382" rx="0.952399" ry="0.855709" fill="white"/>
<ellipse cx="707.882" cy="881.382" rx="0.952399" ry="0.855709" fill="white"/>
<ellipse cx="850.742" cy="881.382" rx="0.952399" ry="0.855709" fill="white"/>
<ellipse cx="993.601" cy="881.382" rx="0.952425" ry="0.855709" fill="white"/>
<ellipse cx="1136.46" cy="881.382" rx="0.952399" ry="0.855709" fill="white"/>
<ellipse cx="1279.32" cy="881.382" rx="0.952399" ry="0.855709" fill="white"/>
<ellipse cx="1422.18" cy="881.382" rx="0.952372" ry="0.855709" fill="white"/>
<ellipse cx="1565.04" cy="881.382" rx="0.952425" ry="0.855709" fill="white"/>
<ellipse cx="650.739" cy="78.7076" rx="0.952399" ry="0.855732" fill="white"/>
<ellipse cx="793.598" cy="78.7076" rx="0.952399" ry="0.855732" fill="white"/>
<ellipse cx="936.457" cy="78.7076" rx="0.952385" ry="0.855732" fill="white"/>
<ellipse cx="1079.32" cy="78.7076" rx="0.952425" ry="0.855732" fill="white"/>
<ellipse cx="1222.18" cy="78.7076" rx="0.952399" ry="0.855732" fill="white"/>
<ellipse cx="1365.04" cy="78.7076" rx="0.952399" ry="0.855732" fill="white"/>
<ellipse cx="1507.9" cy="78.7076" rx="0.952372" ry="0.855732" fill="white"/>
<ellipse cx="631.691" cy="164.281" rx="0.952385" ry="0.855732" fill="white"/>
<ellipse cx="774.55" cy="164.281" rx="0.952412" ry="0.855732" fill="white"/>
<ellipse cx="917.409" cy="164.281" rx="0.952346" ry="0.855732" fill="white"/>
<ellipse cx="1060.27" cy="164.281" rx="0.952399" ry="0.855732" fill="white"/>
<ellipse cx="1203.13" cy="164.281" rx="0.952399" ry="0.855732" fill="white"/>
<ellipse cx="1345.99" cy="164.281" rx="0.952399" ry="0.855732" fill="white"/>
<ellipse cx="1488.85" cy="164.281" rx="0.952477" ry="0.855732" fill="white"/>
<ellipse cx="688.835" cy="249.853" rx="0.952399" ry="0.855709" fill="white"/>
<ellipse cx="831.694" cy="249.853" rx="0.952385" ry="0.855709" fill="white"/>
<ellipse cx="974.553" cy="249.853" rx="0.952438" ry="0.855709" fill="white"/>
<ellipse cx="1117.41" cy="249.853" rx="0.952399" ry="0.855709" fill="white"/>
<ellipse cx="1260.27" cy="249.853" rx="0.952399" ry="0.855709" fill="white"/>
<ellipse cx="1403.13" cy="249.853" rx="0.952477" ry="0.855709" fill="white"/>
<ellipse cx="1545.99" cy="249.853" rx="0.952372" ry="0.855709" fill="white"/>
<ellipse cx="612.643" cy="335.426" rx="0.952399" ry="0.855755" fill="white"/>
<ellipse cx="755.502" cy="335.426" rx="0.952399" ry="0.855755" fill="white"/>
<ellipse cx="898.362" cy="335.426" rx="0.952359" ry="0.855755" fill="white"/>
<ellipse cx="1041.22" cy="335.426" rx="0.952372" ry="0.855755" fill="white"/>
<ellipse cx="1184.08" cy="335.426" rx="0.952399" ry="0.855755" fill="white"/>
<ellipse cx="1326.94" cy="335.426" rx="0.952399" ry="0.855755" fill="white"/>
<ellipse cx="1469.8" cy="335.426" rx="0.95232" ry="0.855755" fill="white"/>
<ellipse cx="641.215" cy="420.999" rx="0.952405" ry="0.855755" fill="white"/>
<ellipse cx="784.074" cy="420.999" rx="0.952399" ry="0.855755" fill="white"/>
<ellipse cx="926.934" cy="420.999" rx="0.952438" ry="0.855755" fill="white"/>
<ellipse cx="1069.79" cy="420.999" rx="0.952399" ry="0.855755" fill="white"/>
<ellipse cx="1212.65" cy="420.999" rx="0.952372" ry="0.855755" fill="white"/>
<ellipse cx="1355.51" cy="420.999" rx="0.952477" ry="0.855755" fill="white"/>
<ellipse cx="1498.37" cy="420.999" rx="0.952425" ry="0.855755" fill="white"/>
<ellipse cx="707.883" cy="515.13" rx="0.952399" ry="0.855709" fill="white"/>
<ellipse cx="850.742" cy="515.13" rx="0.952399" ry="0.855709" fill="white"/>
<ellipse cx="993.601" cy="515.13" rx="0.952425" ry="0.855709" fill="white"/>
<ellipse cx="1136.46" cy="515.13" rx="0.952399" ry="0.855709" fill="white"/>
<ellipse cx="1279.32" cy="515.13" rx="0.952399" ry="0.855709" fill="white"/>
<ellipse cx="1422.18" cy="515.13" rx="0.952372" ry="0.855709" fill="white"/>
<ellipse cx="1565.04" cy="515.13" rx="0.952425" ry="0.855709" fill="white"/>
<ellipse cx="650.739" cy="609.26" rx="0.952399" ry="0.855709" fill="white"/>
<ellipse cx="793.598" cy="609.26" rx="0.952399" ry="0.855709" fill="white"/>
<ellipse cx="936.457" cy="609.26" rx="0.952385" ry="0.855709" fill="white"/>
<ellipse cx="1079.32" cy="609.26" rx="0.952425" ry="0.855709" fill="white"/>
<ellipse cx="1222.18" cy="609.26" rx="0.952399" ry="0.855709" fill="white"/>
<ellipse cx="1365.04" cy="609.26" rx="0.952399" ry="0.855709" fill="white"/>
<ellipse cx="1507.9" cy="609.26" rx="0.952372" ry="0.855709" fill="white"/>
<ellipse cx="726.931" cy="701.679" rx="0.952372" ry="0.855709" fill="white"/>
<ellipse cx="869.79" cy="701.679" rx="0.952399" ry="0.855709" fill="white"/>
<ellipse cx="1012.65" cy="701.679" rx="0.952451" ry="0.855709" fill="white"/>
<ellipse cx="1155.51" cy="701.679" rx="0.952399" ry="0.855709" fill="white"/>
<ellipse cx="1298.37" cy="701.679" rx="0.952294" ry="0.855709" fill="white"/>
<ellipse cx="1441.23" cy="701.679" rx="0.952477" ry="0.855709" fill="white"/>
<ellipse cx="1584.09" cy="701.679" rx="0.952425" ry="0.855709" fill="white"/>
<ellipse cx="669.787" cy="795.809" rx="0.952399" ry="0.855755" fill="white"/>
<ellipse cx="812.646" cy="795.809" rx="0.952399" ry="0.855755" fill="white"/>
<ellipse cx="955.505" cy="795.809" rx="0.952385" ry="0.855755" fill="white"/>
<ellipse cx="1098.36" cy="795.809" rx="0.952399" ry="0.855755" fill="white"/>
<ellipse cx="1241.22" cy="795.809" rx="0.952399" ry="0.855755" fill="white"/>
<ellipse cx="1384.08" cy="795.809" rx="0.952294" ry="0.855755" fill="white"/>
<ellipse cx="1526.94" cy="795.809" rx="0.952372" ry="0.855755" fill="white"/>
<ellipse cx="612.643" cy="889.94" rx="0.952399" ry="0.855755" fill="white"/>
<ellipse cx="755.502" cy="889.94" rx="0.952399" ry="0.855755" fill="white"/>
<ellipse cx="898.362" cy="889.94" rx="0.952359" ry="0.855755" fill="white"/>
<ellipse cx="1041.22" cy="889.94" rx="0.952372" ry="0.855755" fill="white"/>
<ellipse cx="1184.08" cy="889.94" rx="0.952399" ry="0.855755" fill="white"/>
<ellipse cx="1326.94" cy="889.94" rx="0.952399" ry="0.855755" fill="white"/>
<ellipse cx="1469.8" cy="889.94" rx="0.95232" ry="0.855755" fill="white"/>
<ellipse cx="492.641" cy="27.3639" rx="0.952395" ry="0.855732" fill="white"/>
<ellipse cx="635.5" cy="27.3639" rx="0.952382" ry="0.855732" fill="white"/>
<ellipse cx="778.36" cy="27.3639" rx="0.952399" ry="0.855732" fill="white"/>
<ellipse cx="921.219" cy="27.3639" rx="0.952399" ry="0.855732" fill="white"/>
<ellipse cx="1064.08" cy="27.3639" rx="0.952399" ry="0.855732" fill="white"/>
<ellipse cx="1206.94" cy="27.3639" rx="0.952399" ry="0.855732" fill="white"/>
<ellipse cx="1349.8" cy="27.3639" rx="0.952294" ry="0.855732" fill="white"/>
<ellipse cx="1492.66" cy="27.3639" rx="0.952372" ry="0.855732" fill="white"/>
<ellipse cx="549.785" cy="112.937" rx="0.952396" ry="0.855732" fill="white"/>
<ellipse cx="692.644" cy="112.937" rx="0.952399" ry="0.855732" fill="white"/>
<ellipse cx="835.504" cy="112.937" rx="0.952399" ry="0.855732" fill="white"/>
<ellipse cx="978.363" cy="112.937" rx="0.952399" ry="0.855732" fill="white"/>
<ellipse cx="1121.22" cy="112.937" rx="0.952399" ry="0.855732" fill="white"/>
<ellipse cx="1264.08" cy="112.937" rx="0.952294" ry="0.855732" fill="white"/>
<ellipse cx="1406.94" cy="112.937" rx="0.952399" ry="0.855732" fill="white"/>
<ellipse cx="1549.8" cy="112.937" rx="0.952372" ry="0.855732" fill="white"/>
<ellipse cx="530.737" cy="198.51" rx="0.952397" ry="0.855709" fill="white"/>
<ellipse cx="673.596" cy="198.51" rx="0.952399" ry="0.855709" fill="white"/>
<ellipse cx="816.456" cy="198.51" rx="0.952399" ry="0.855709" fill="white"/>
<ellipse cx="959.315" cy="198.51" rx="0.952359" ry="0.855709" fill="white"/>
<ellipse cx="1102.17" cy="198.51" rx="0.952399" ry="0.855709" fill="white"/>
<ellipse cx="1245.03" cy="198.51" rx="0.952477" ry="0.855709" fill="white"/>
<ellipse cx="1387.89" cy="198.51" rx="0.952399" ry="0.855709" fill="white"/>
<ellipse cx="1530.75" cy="198.51" rx="0.952372" ry="0.855709" fill="white"/>
<ellipse cx="587.881" cy="284.083" rx="0.952397" ry="0.855755" fill="white"/>
<ellipse cx="730.74" cy="284.083" rx="0.952399" ry="0.855755" fill="white"/>
<ellipse cx="873.599" cy="284.083" rx="0.952399" ry="0.855755" fill="white"/>
<ellipse cx="1016.46" cy="284.083" rx="0.952399" ry="0.855755" fill="white"/>
<ellipse cx="1159.32" cy="284.083" rx="0.952399" ry="0.855755" fill="white"/>
<ellipse cx="1302.18" cy="284.083" rx="0.952399" ry="0.855755" fill="white"/>
<ellipse cx="1445.04" cy="284.083" rx="0.952268" ry="0.855755" fill="white"/>
<ellipse cx="1587.9" cy="284.083" rx="0.952372" ry="0.855755" fill="white"/>
<ellipse cx="511.689" cy="369.656" rx="0.952396" ry="0.855709" fill="white"/>
<ellipse cx="654.548" cy="369.656" rx="0.952399" ry="0.855709" fill="white"/>
<ellipse cx="797.408" cy="369.656" rx="0.952399" ry="0.855709" fill="white"/>
<ellipse cx="940.267" cy="369.656" rx="0.952385" ry="0.855709" fill="white"/>
<ellipse cx="1083.13" cy="369.656" rx="0.952399" ry="0.855709" fill="white"/>
<ellipse cx="1225.99" cy="369.656" rx="0.952477" ry="0.855709" fill="white"/>
<ellipse cx="1368.84" cy="369.656" rx="0.952399" ry="0.855709" fill="white"/>
<ellipse cx="1511.7" cy="369.656" rx="0.952425" ry="0.855709" fill="white"/>
<ellipse cx="540.261" cy="455.229" rx="0.952396" ry="0.855755" fill="white"/>
<ellipse cx="683.12" cy="455.229" rx="0.952399" ry="0.855755" fill="white"/>
<ellipse cx="825.979" cy="455.229" rx="0.952399" ry="0.855755" fill="white"/>
<ellipse cx="968.839" cy="455.229" rx="0.952359" ry="0.855755" fill="white"/>
<ellipse cx="1111.7" cy="455.229" rx="0.952372" ry="0.855755" fill="white"/>
<ellipse cx="1254.56" cy="455.229" rx="0.952425" ry="0.855755" fill="white"/>
<ellipse cx="1397.42" cy="455.229" rx="0.952477" ry="0.855755" fill="white"/>
<ellipse cx="1540.28" cy="455.229" rx="0.952372" ry="0.855755" fill="white"/>
<ellipse cx="606.929" cy="549.359" rx="0.952395" ry="0.855709" fill="white"/>
<ellipse cx="749.788" cy="549.359" rx="0.952372" ry="0.855709" fill="white"/>
<ellipse cx="892.647" cy="549.359" rx="0.952412" ry="0.855709" fill="white"/>
<ellipse cx="1035.51" cy="549.359" rx="0.952399" ry="0.855709" fill="white"/>
<ellipse cx="1178.37" cy="549.359" rx="0.952372" ry="0.855709" fill="white"/>
<ellipse cx="1321.23" cy="549.359" rx="0.952399" ry="0.855709" fill="white"/>
<ellipse cx="1464.08" cy="549.359" rx="0.952477" ry="0.855709" fill="white"/>
<ellipse cx="549.785" cy="643.489" rx="0.952396" ry="0.855755" fill="white"/>
<ellipse cx="692.644" cy="643.489" rx="0.952399" ry="0.855755" fill="white"/>
<ellipse cx="835.504" cy="643.489" rx="0.952399" ry="0.855755" fill="white"/>
<ellipse cx="978.363" cy="643.489" rx="0.952399" ry="0.855755" fill="white"/>
<ellipse cx="1121.22" cy="643.489" rx="0.952399" ry="0.855755" fill="white"/>
<ellipse cx="1264.08" cy="643.489" rx="0.952294" ry="0.855755" fill="white"/>
<ellipse cx="1406.94" cy="643.489" rx="0.952399" ry="0.855755" fill="white"/>
<ellipse cx="1549.8" cy="643.489" rx="0.952372" ry="0.855755" fill="white"/>
<ellipse cx="625.976" cy="735.908" rx="0.952405" ry="0.855662" fill="white"/>
<ellipse cx="768.836" cy="735.908" rx="0.952372" ry="0.855662" fill="white"/>
<ellipse cx="911.695" cy="735.908" rx="0.952451" ry="0.855662" fill="white"/>
<ellipse cx="1054.55" cy="735.908" rx="0.952399" ry="0.855662" fill="white"/>
<ellipse cx="1197.41" cy="735.908" rx="0.952372" ry="0.855662" fill="white"/>
<ellipse cx="1340.27" cy="735.908" rx="0.952425" ry="0.855662" fill="white"/>
<ellipse cx="1483.13" cy="735.908" rx="0.952477" ry="0.855662" fill="white"/>
<ellipse cx="568.833" cy="830.039" rx="0.952395" ry="0.855755" fill="white"/>
<ellipse cx="711.692" cy="830.039" rx="0.952372" ry="0.855755" fill="white"/>
<ellipse cx="854.551" cy="830.039" rx="0.952399" ry="0.855755" fill="white"/>
<ellipse cx="997.411" cy="830.039" rx="0.952451" ry="0.855755" fill="white"/>
<ellipse cx="1140.27" cy="830.039" rx="0.952399" ry="0.855755" fill="white"/>
<ellipse cx="1283.13" cy="830.039" rx="0.952399" ry="0.855755" fill="white"/>
<ellipse cx="1425.99" cy="830.039" rx="0.952425" ry="0.855755" fill="white"/>
<ellipse cx="1568.85" cy="830.039" rx="0.952372" ry="0.855755" fill="white"/>
<ellipse cx="511.689" cy="924.169" rx="0.952396" ry="0.855709" fill="white"/>
<ellipse cx="654.548" cy="924.169" rx="0.952399" ry="0.855709" fill="white"/>
<ellipse cx="797.408" cy="924.169" rx="0.952399" ry="0.855709" fill="white"/>
<ellipse cx="940.267" cy="924.169" rx="0.952385" ry="0.855709" fill="white"/>
<ellipse cx="1083.13" cy="924.169" rx="0.952399" ry="0.855709" fill="white"/>
<ellipse cx="1225.99" cy="924.169" rx="0.952477" ry="0.855709" fill="white"/>
<ellipse cx="1368.84" cy="924.169" rx="0.952399" ry="0.855709" fill="white"/>
<ellipse cx="1511.7" cy="924.169" rx="0.952425" ry="0.855709" fill="white"/>
<ellipse cx="610.738" cy="105.235" rx="1.90479" ry="1.71146" fill="white"/>
<ellipse cx="896.457" cy="113.792" rx="1.9048" ry="1.71146" fill="white"/>
<ellipse cx="1182.18" cy="105.235" rx="1.9048" ry="1.71146" fill="white"/>
<ellipse cx="1467.89" cy="96.678" rx="1.90485" ry="1.71144" fill="white"/>
<ellipse cx="563.119" cy="276.381" rx="1.90479" ry="1.71146" fill="white"/>
<ellipse cx="848.837" cy="284.938" rx="1.90478" ry="1.71146" fill="white"/>
<ellipse cx="1134.56" cy="276.381" rx="1.90477" ry="1.71146" fill="white"/>
<ellipse cx="1420.27" cy="267.824" rx="1.9049" ry="1.71146" fill="white"/>
<ellipse cx="715.502" cy="447.527" rx="1.90481" ry="1.71146" fill="white"/>
<ellipse cx="1001.22" cy="456.084" rx="1.9048" ry="1.71151" fill="white"/>
<ellipse cx="1286.94" cy="447.527" rx="1.90477" ry="1.71146" fill="white"/>
<ellipse cx="1572.66" cy="438.97" rx="1.9048" ry="1.71146" fill="white"/>
<ellipse cx="537.404" cy="618.673" rx="1.90479" ry="1.71146" fill="white"/>
<ellipse cx="823.123" cy="627.23" rx="1.90478" ry="1.71146" fill="white"/>
<ellipse cx="1108.84" cy="618.673" rx="1.9048" ry="1.71146" fill="white"/>
<ellipse cx="1394.56" cy="610.116" rx="1.9048" ry="1.71146" fill="white"/>
<ellipse cx="559.309" cy="765.859" rx="1.90479" ry="1.71146" fill="white"/>
<ellipse cx="845.028" cy="774.416" rx="1.9048" ry="1.71146" fill="white"/>
<ellipse cx="1130.75" cy="765.859" rx="1.9048" ry="1.71146" fill="white"/>
<ellipse cx="1416.46" cy="757.301" rx="1.90474" ry="1.71146" fill="white"/>
<ellipse cx="628.834" cy="948.985" rx="1.90479" ry="1.71146" fill="white"/>
<ellipse cx="914.553" cy="957.542" rx="1.90474" ry="1.71142" fill="white"/>
<ellipse cx="1200.27" cy="948.985" rx="1.9048" ry="1.71146" fill="white"/>
<ellipse cx="1485.99" cy="940.427" rx="1.90469" ry="1.71146" fill="white"/>
<ellipse cx="525.022" cy="28.2196" rx="1.90479" ry="1.71146" fill="white"/>
<ellipse cx="810.741" cy="36.777" rx="1.90478" ry="1.71144" fill="white"/>
<ellipse cx="1096.46" cy="28.2196" rx="1.9048" ry="1.71146" fill="white"/>
<ellipse cx="1382.18" cy="19.6623" rx="1.90482" ry="1.71146" fill="white"/>
<ellipse cx="477.403" cy="199.365" rx="1.90479" ry="1.71142" fill="white"/>
<ellipse cx="763.122" cy="207.923" rx="1.90478" ry="1.71146" fill="white"/>
<ellipse cx="1048.84" cy="199.365" rx="1.90477" ry="1.71142" fill="white"/>
<ellipse cx="1334.56" cy="190.808" rx="1.90488" ry="1.71146" fill="white"/>
<ellipse cx="429.783" cy="368.8" rx="1.90479" ry="1.71146" fill="white"/>
<ellipse cx="715.502" cy="379.069" rx="1.90481" ry="1.71146" fill="white"/>
<ellipse cx="1001.22" cy="370.511" rx="1.9048" ry="1.71146" fill="white"/>
<ellipse cx="1286.94" cy="361.954" rx="1.90477" ry="1.71146" fill="white"/>
<ellipse cx="1572.66" cy="370.511" rx="1.9048" ry="1.71146" fill="white"/>
<ellipse cx="582.166" cy="541.657" rx="1.90479" ry="1.71142" fill="white"/>
<ellipse cx="867.885" cy="550.215" rx="1.9048" ry="1.71146" fill="white"/>
<ellipse cx="1153.6" cy="541.657" rx="1.9048" ry="1.71142" fill="white"/>
<ellipse cx="1439.32" cy="533.1" rx="1.9049" ry="1.71146" fill="white"/>
<ellipse cx="404.068" cy="711.092" rx="1.90479" ry="1.71146" fill="white"/>
<ellipse cx="689.787" cy="719.649" rx="1.90479" ry="1.71146" fill="white"/>
<ellipse cx="975.506" cy="711.092" rx="1.90482" ry="1.71146" fill="white"/>
<ellipse cx="1261.22" cy="702.535" rx="1.90488" ry="1.71146" fill="white"/>
<ellipse cx="1546.94" cy="711.092" rx="1.9048" ry="1.71146" fill="white"/>
<ellipse cx="425.974" cy="859.989" rx="1.90479" ry="1.71142" fill="white"/>
<ellipse cx="711.692" cy="868.546" rx="1.90477" ry="1.71146" fill="white"/>
<ellipse cx="997.411" cy="859.989" rx="1.90477" ry="1.71142" fill="white"/>
<ellipse cx="1283.13" cy="851.432" rx="1.90488" ry="1.71151" fill="white"/>
<ellipse cx="1568.85" cy="859.989" rx="1.9048" ry="1.71142" fill="white"/>
</svg>
