<svg width="307" height="135" viewBox="0 0 307 135" fill="none" xmlns="http://www.w3.org/2000/svg">
<path d="M82.2317 32.7262C82.5525 32.6523 82.3131 33.133 82.3131 33.133C81.526 33.5021 67.667 38.2111 67.7043 44.1632C67.7175 46.2727 67.7428 47.5954 69.6469 49.1876C73.0929 52.0694 79.189 51.3589 86.1218 51.8285C93.9771 52.3605 99.6456 50.6196 107.376 51.3104C113.485 51.8563 118.589 51.5177 121.675 54.0981C124.047 56.0816 125.327 57.6902 123.832 60.4342C121.835 64.0989 117.198 66.1954 110.786 68.5042C105.983 70.234 102.011 71.0691 96.816 71.9563C70.0741 76.5235 61.3654 60.6372 34.8485 66.4606C24.2169 68.7955 16.1536 69.7129 9.09806 75.1868C3.15507 79.7976 2.19527 82.8249 3.4914 87.3664C4.89028 92.268 11.441 93.1844 17.7165 96.3078C25.6444 100.254 34.0275 100.243 40.742 104.797C44.6107 107.421 47.6597 108.807 48.4874 112.416C49.0594 114.91 48.4169 116.521 47.1852 119.226C44.4857 125.155 31.1932 134.877 31.1932 134.877L29.5781 133.788C29.5781 133.788 42.252 125.281 45.0074 119.444C46.2031 116.911 46.911 115.391 46.3936 113.053C45.6047 109.489 42.1673 108.276 38.263 105.73C31.4471 101.285 23.4168 101.13 15.6648 97.1552C9.27241 93.8779 2.69192 92.8305 1.31486 87.7506C0.0574386 83.1121 1.60659 79.4513 7.62939 74.7485C14.6664 69.2538 23.9548 67.7105 35.4927 65.24C62.0468 59.5544 70.7661 75.7259 97.4602 70.7357C102.487 69.796 105.604 69.4973 110.191 67.7501C115.744 65.6349 119.979 63.8738 121.654 60.6519C122.84 58.3715 122.251 57.0052 120.571 55.2439C117.793 52.3308 112.522 52.3753 106.101 51.7582C99.0842 51.084 93.8989 52.7461 86.6384 52.3895C79.1589 52.0221 72.5455 52.8846 68.839 49.8307C66.7468 48.1069 66.7826 46.6413 66.8499 44.3342C67.0252 38.326 79.8298 33.6302 82.2317 32.7262Z" fill="#DDDDDD"/>
<path d="M82.2317 32.7262C81.9209 32.8208 82.3131 33.133 82.3131 33.133C82.3131 33.133 106.344 23.8661 117.555 26.7234C121.528 27.7361 124.011 28.3825 126.105 30.416C129.897 34.0963 125.647 37.8429 123.223 42.7117C120.477 48.2284 114.487 51.1981 112.101 56.7065C110.214 61.0598 107.139 64.3185 110.534 67.6141C113.144 70.1474 115.567 71.7707 121.457 72.0746C129.323 72.4803 135.492 70.3706 142.907 67.1735C148.463 64.7782 151.935 62.5139 156.088 59.4553C177.468 43.7103 151.657 30.3154 175.3 15.3188C184.779 9.30615 190.358 4.33995 204.052 2.21719C215.587 0.429149 221.756 1.22658 229.704 4.2562C238.283 7.52598 236.885 12.3514 239.781 18.0426C243.44 25.2323 239.42 30.8445 244.805 37.5105C247.908 41.3512 249.068 44.054 255.48 46.3258C259.911 47.8957 263.258 48.232 268.949 48.694C281.422 49.7066 306.107 45.4262 306.107 45.4262L304.822 43.8255C304.822 43.8255 282.725 48.2696 270.399 47.3384C265.05 46.9342 261.845 46.6853 257.682 45.2262C251.335 43.0016 250.687 40.121 247.748 36.2934C242.617 29.6114 246.156 24.1566 242.359 17.071C239.228 11.2283 240.393 6.3206 231.468 2.98062C223.318 -0.0691917 215.673 -0.773177 203.926 1.02453C190.202 3.12497 182.857 8.61423 172.69 15.1697C149.289 30.2567 175.633 43.7943 153.478 59.3062C149.306 62.2272 147.254 64.1738 141.769 66.4158C135.128 69.13 129.785 71.1298 122.907 70.7189C118.04 70.4281 115.743 69.3836 113.222 67.42C109.053 64.1723 111.653 60.6617 113.554 56.0651C115.632 51.0429 121.242 48.3594 124.035 43.3248C126.912 38.1383 131.696 34.1174 127.704 30.1807C125.451 27.9585 122.669 27.2852 118.285 26.2324C106.867 23.4908 84.261 32.1084 82.2317 32.7262Z" fill="#DDDDDD"/>
</svg>
